<svg width="269" height="206" viewBox="0 0 269 206" fill="none" xmlns="http://www.w3.org/2000/svg">
<path d="M67.7667 35.021C67.7667 53.843 52.7671 69.1011 34.2642 69.1011C15.7613 69.1011 0.761719 53.843 0.761719 35.021C0.761719 16.1991 15.7613 0.940918 34.2642 0.940918C52.7671 0.940918 67.7667 16.1991 67.7667 35.021ZM3.59414 35.021C3.59414 52.2517 17.3256 66.2199 34.2642 66.2199C51.2028 66.2199 64.9343 52.2517 64.9343 35.021C64.9343 17.7904 51.2028 3.82218 34.2642 3.82218C17.3256 3.82218 3.59414 17.7904 3.59414 35.021Z" fill="#D9D9D9"/>
<path d="M67.7667 103.181C67.7667 122.003 52.7671 137.261 34.2642 137.261C15.7613 137.261 0.761719 122.003 0.761719 103.181C0.761719 84.3593 15.7613 69.1011 34.2642 69.1011C52.7671 69.1011 67.7667 84.3593 67.7667 103.181ZM3.59414 103.181C3.59414 120.412 17.3256 134.38 34.2642 134.38C51.2028 134.38 64.9343 120.412 64.9343 103.181C64.9343 85.9505 51.2028 71.9823 34.2642 71.9823C17.3256 71.9823 3.59414 85.9505 3.59414 103.181Z" fill="#D9D9D9"/>
<path d="M67.7667 171.341C67.7667 190.163 52.7671 205.421 34.2642 205.421C15.7613 205.421 0.761719 190.163 0.761719 171.341C0.761719 152.519 15.7613 137.261 34.2642 137.261C52.7671 137.261 67.7667 152.519 67.7667 171.341ZM3.59414 171.341C3.59414 188.572 17.3256 202.54 34.2642 202.54C51.2028 202.54 64.9343 188.572 64.9343 171.341C64.9343 154.111 51.2028 140.142 34.2642 140.142C17.3256 140.142 3.59414 154.111 3.59414 171.341Z" fill="#D9D9D9"/>
<path d="M134.772 35.021C134.772 53.843 119.772 69.1011 101.269 69.1011C82.7662 69.1011 67.7666 53.843 67.7666 35.021C67.7666 16.1991 82.7662 0.940918 101.269 0.940918C119.772 0.940918 134.772 16.1991 134.772 35.021ZM70.599 35.021C70.599 52.2517 84.3305 66.2199 101.269 66.2199C118.208 66.2199 131.939 52.2517 131.939 35.021C131.939 17.7904 118.208 3.82218 101.269 3.82218C84.3305 3.82218 70.599 17.7904 70.599 35.021Z" fill="#D9D9D9"/>
<path d="M134.772 103.181C134.772 122.003 119.772 137.261 101.269 137.261C82.7662 137.261 67.7666 122.003 67.7666 103.181C67.7666 84.3593 82.7662 69.1011 101.269 69.1011C119.772 69.1011 134.772 84.3593 134.772 103.181ZM70.599 103.181C70.599 120.412 84.3305 134.38 101.269 134.38C118.208 134.38 131.939 120.412 131.939 103.181C131.939 85.9505 118.208 71.9823 101.269 71.9823C84.3305 71.9823 70.599 85.9505 70.599 103.181Z" fill="#D9D9D9"/>
<path d="M134.772 171.341C134.772 190.163 119.772 205.421 101.269 205.421C82.7662 205.421 67.7666 190.163 67.7666 171.341C67.7666 152.519 82.7662 137.261 101.269 137.261C119.772 137.261 134.772 152.519 134.772 171.341ZM70.599 171.341C70.599 188.572 84.3305 202.54 101.269 202.54C118.208 202.54 131.939 188.572 131.939 171.341C131.939 154.111 118.208 140.142 101.269 140.142C84.3305 140.142 70.599 154.111 70.599 171.341Z" fill="#D9D9D9"/>
<path d="M201.776 35.021C201.776 53.843 186.777 69.1011 168.274 69.1011C149.771 69.1011 134.771 53.843 134.771 35.021C134.771 16.1991 149.771 0.940918 168.274 0.940918C186.777 0.940918 201.776 16.1991 201.776 35.021ZM137.604 35.021C137.604 52.2517 151.335 66.2199 168.274 66.2199C185.213 66.2199 198.944 52.2517 198.944 35.021C198.944 17.7904 185.213 3.82218 168.274 3.82218C151.335 3.82218 137.604 17.7904 137.604 35.021Z" fill="#D9D9D9"/>
<ellipse cx="168.274" cy="103.181" rx="33.5025" ry="34.0801" fill="#D4ECF8"/>
<ellipse cx="168.274" cy="171.341" rx="33.5025" ry="34.0801" fill="#D4ECF8"/>
<path d="M268.781 35.021C268.781 53.843 253.782 69.1011 235.279 69.1011C216.776 69.1011 201.776 53.843 201.776 35.021C201.776 16.1991 216.776 0.940918 235.279 0.940918C253.782 0.940918 268.781 16.1991 268.781 35.021ZM204.609 35.021C204.609 52.2517 218.34 66.2199 235.279 66.2199C252.217 66.2199 265.949 52.2517 265.949 35.021C265.949 17.7904 252.217 3.82218 235.279 3.82218C218.34 3.82218 204.609 17.7904 204.609 35.021Z" fill="#D9D9D9"/>
<path d="M268.781 103.181C268.781 122.003 253.782 137.261 235.279 137.261C216.776 137.261 201.776 122.003 201.776 103.181C201.776 84.3593 216.776 69.1011 235.279 69.1011C253.782 69.1011 268.781 84.3593 268.781 103.181ZM204.609 103.181C204.609 120.412 218.34 134.38 235.279 134.38C252.217 134.38 265.949 120.412 265.949 103.181C265.949 85.9505 252.217 71.9823 235.279 71.9823C218.34 71.9823 204.609 85.9505 204.609 103.181Z" fill="#D9D9D9"/>
<path d="M268.781 171.341C268.781 190.163 253.782 205.421 235.279 205.421C216.776 205.421 201.776 190.163 201.776 171.341C201.776 152.519 216.776 137.261 235.279 137.261C253.782 137.261 268.781 152.519 268.781 171.341ZM204.609 171.341C204.609 188.572 218.34 202.54 235.279 202.54C252.217 202.54 265.949 188.572 265.949 171.341C265.949 154.111 252.217 140.142 235.279 140.142C218.34 140.142 204.609 154.111 204.609 171.341Z" fill="#D9D9D9"/>
</svg>
