<svg width="236" height="297" viewBox="0 0 236 297" fill="none" xmlns="http://www.w3.org/2000/svg">
<path d="M58.3471 88.6765C58.3471 105.066 45.2856 118.353 29.1735 118.353C13.0614 118.353 0 105.066 0 88.6765C0 72.2866 13.0614 59 29.1735 59C45.2856 59 58.3471 72.2866 58.3471 88.6765ZM2.46644 88.6765C2.46644 103.681 14.4236 115.844 29.1735 115.844C43.9235 115.844 55.8806 103.681 55.8806 88.6765C55.8806 73.6723 43.9235 61.509 29.1735 61.509C14.4236 61.509 2.46644 73.6723 2.46644 88.6765Z" fill="#D9D9D9"/>
<path d="M58.3471 29.6765C58.3471 46.0664 45.2856 59.3531 29.1735 59.3531C13.0614 59.3531 0 46.0664 0 29.6765C0 13.2866 13.0614 0 29.1735 0C45.2856 0 58.3471 13.2866 58.3471 29.6765ZM2.46644 29.6765C2.46644 44.6808 14.4236 56.8441 29.1735 56.8441C43.9235 56.8441 55.8806 44.6808 55.8806 29.6765C55.8806 14.6723 43.9235 2.50896 29.1735 2.50896C14.4236 2.50896 2.46644 14.6723 2.46644 29.6765Z" fill="#D9D9D9"/>
<path d="M117.347 29.6765C117.347 46.0664 104.286 59.3531 88.1735 59.3531C72.0614 59.3531 59 46.0664 59 29.6765C59 13.2866 72.0614 0 88.1735 0C104.286 0 117.347 13.2866 117.347 29.6765ZM61.4664 29.6765C61.4664 44.6808 73.4236 56.8441 88.1735 56.8441C102.923 56.8441 114.881 44.6808 114.881 29.6765C114.881 14.6723 102.923 2.50896 88.1735 2.50896C73.4236 2.50896 61.4664 14.6723 61.4664 29.6765Z" fill="#D9D9D9"/>
<path d="M176.347 29.6765C176.347 46.0664 163.286 59.3531 147.174 59.3531C131.061 59.3531 118 46.0664 118 29.6765C118 13.2866 131.061 0 147.174 0C163.286 0 176.347 13.2866 176.347 29.6765ZM120.466 29.6765C120.466 44.6808 132.424 56.8441 147.174 56.8441C161.923 56.8441 173.881 44.6808 173.881 29.6765C173.881 14.6723 161.923 2.50896 147.174 2.50896C132.424 2.50896 120.466 14.6723 120.466 29.6765Z" fill="#D9D9D9"/>
<path d="M235.347 29.6765C235.347 46.0664 222.286 59.3531 206.174 59.3531C190.061 59.3531 177 46.0664 177 29.6765C177 13.2866 190.061 0 206.174 0C222.286 0 235.347 13.2866 235.347 29.6765ZM179.466 29.6765C179.466 44.6808 191.424 56.8441 206.174 56.8441C220.923 56.8441 232.881 44.6808 232.881 29.6765C232.881 14.6723 220.923 2.50896 206.174 2.50896C191.424 2.50896 179.466 14.6723 179.466 29.6765Z" fill="#D9D9D9"/>
<path d="M58.3471 148.029C58.3471 164.419 45.2856 177.706 29.1735 177.706C13.0614 177.706 0 164.419 0 148.029C0 131.639 13.0614 118.353 29.1735 118.353C45.2856 118.353 58.3471 131.639 58.3471 148.029ZM2.46644 148.029C2.46644 163.033 14.4236 175.197 29.1735 175.197C43.9235 175.197 55.8806 163.033 55.8806 148.029C55.8806 133.025 43.9235 120.862 29.1735 120.862C14.4236 120.862 2.46644 133.025 2.46644 148.029Z" fill="#D9D9D9"/>
<path d="M58.3471 207.382C58.3471 223.772 45.2856 237.059 29.1735 237.059C13.0614 237.059 0 223.772 0 207.382C0 190.992 13.0614 177.706 29.1735 177.706C45.2856 177.706 58.3471 190.992 58.3471 207.382ZM2.46644 207.382C2.46644 222.386 14.4236 234.55 29.1735 234.55C43.9235 234.55 55.8806 222.386 55.8806 207.382C55.8806 192.378 43.9235 180.215 29.1735 180.215C14.4236 180.215 2.46644 192.378 2.46644 207.382Z" fill="#D9D9D9"/>
<path d="M58.3471 266.677C58.3471 283.066 45.2856 296.353 29.1735 296.353C13.0614 296.353 0 283.066 0 266.677C0 250.287 13.0614 237 29.1735 237C45.2856 237 58.3471 250.287 58.3471 266.677ZM2.46644 266.677C2.46644 281.681 14.4236 293.844 29.1735 293.844C43.9235 293.844 55.8806 281.681 55.8806 266.677C55.8806 251.672 43.9235 239.509 29.1735 239.509C14.4236 239.509 2.46644 251.672 2.46644 266.677Z" fill="#D9D9D9"/>
<path d="M117.347 266.677C117.347 283.066 104.286 296.353 88.1735 296.353C72.0614 296.353 59 283.066 59 266.677C59 250.287 72.0614 237 88.1735 237C104.286 237 117.347 250.287 117.347 266.677ZM61.4664 266.677C61.4664 281.681 73.4236 293.844 88.1735 293.844C102.923 293.844 114.881 281.681 114.881 266.677C114.881 251.672 102.923 239.509 88.1735 239.509C73.4236 239.509 61.4664 251.672 61.4664 266.677Z" fill="#D9D9D9"/>
<path d="M235.347 266.677C235.347 283.066 222.286 296.353 206.174 296.353C190.061 296.353 177 283.066 177 266.677C177 250.287 190.061 237 206.174 237C222.286 237 235.347 250.287 235.347 266.677ZM179.466 266.677C179.466 281.681 191.424 293.844 206.174 293.844C220.923 293.844 232.881 281.681 232.881 266.677C232.881 251.672 220.923 239.509 206.174 239.509C191.424 239.509 179.466 251.672 179.466 266.677Z" fill="#D9D9D9"/>
<path d="M116.694 88.6765C116.694 105.066 103.632 118.353 87.5202 118.353C71.4081 118.353 58.3467 105.066 58.3467 88.6765C58.3467 72.2866 71.4081 59 87.5202 59C103.632 59 116.694 72.2866 116.694 88.6765ZM60.8131 88.6765C60.8131 103.681 72.7703 115.844 87.5202 115.844C102.27 115.844 114.227 103.681 114.227 88.6765C114.227 73.6723 102.27 61.509 87.5202 61.509C72.7703 61.509 60.8131 73.6723 60.8131 88.6765Z" fill="#D9D9D9"/>
<path d="M116.694 148.029C116.694 164.419 103.632 177.706 87.5202 177.706C71.4081 177.706 58.3467 164.419 58.3467 148.029C58.3467 131.639 71.4081 118.353 87.5202 118.353C103.632 118.353 116.694 131.639 116.694 148.029ZM60.8131 148.029C60.8131 163.033 72.7703 175.197 87.5202 175.197C102.27 175.197 114.227 163.033 114.227 148.029C114.227 133.025 102.27 120.862 87.5202 120.862C72.7703 120.862 60.8131 133.025 60.8131 148.029Z" fill="#D9D9D9"/>
<path d="M116.694 207.382C116.694 223.772 103.632 237.059 87.5202 237.059C71.4081 237.059 58.3467 223.772 58.3467 207.382C58.3467 190.992 71.4081 177.706 87.5202 177.706C103.632 177.706 116.694 190.992 116.694 207.382ZM60.8131 207.382C60.8131 222.386 72.7703 234.55 87.5202 234.55C102.27 234.55 114.227 222.386 114.227 207.382C114.227 192.378 102.27 180.215 87.5202 180.215C72.7703 180.215 60.8131 192.378 60.8131 207.382Z" fill="#D9D9D9"/>
<path d="M175.04 88.6765C175.04 105.066 161.979 118.353 145.867 118.353C129.755 118.353 116.693 105.066 116.693 88.6765C116.693 72.2866 129.755 59 145.867 59C161.979 59 175.04 72.2866 175.04 88.6765ZM119.16 88.6765C119.16 103.681 131.117 115.844 145.867 115.844C160.617 115.844 172.574 103.681 172.574 88.6765C172.574 73.6723 160.617 61.509 145.867 61.509C131.117 61.509 119.16 73.6723 119.16 88.6765Z" fill="#D9D9D9"/>
<path d="M175.347 147.677C175.347 164.066 162.286 177.353 146.174 177.353C130.061 177.353 117 164.066 117 147.677C117 131.287 130.061 118 146.174 118C162.286 118 175.347 131.287 175.347 147.677ZM119.466 147.677C119.466 162.681 131.424 174.844 146.174 174.844C160.923 174.844 172.881 162.681 172.881 147.677C172.881 132.672 160.923 120.509 146.174 120.509C131.424 120.509 119.466 132.672 119.466 147.677Z" fill="#D9D9D9"/>
<ellipse cx="145.867" cy="207.382" rx="29.1735" ry="29.6765" fill="#D4ECF8"/>
<ellipse cx="146.174" cy="266.677" rx="29.1735" ry="29.6765" fill="#D4ECF8"/>
<path d="M233.387 88.6765C233.387 105.066 220.326 118.353 204.214 118.353C188.101 118.353 175.04 105.066 175.04 88.6765C175.04 72.2866 188.101 59 204.214 59C220.326 59 233.387 72.2866 233.387 88.6765ZM177.506 88.6765C177.506 103.681 189.464 115.844 204.214 115.844C218.963 115.844 230.921 103.681 230.921 88.6765C230.921 73.6723 218.963 61.509 204.214 61.509C189.464 61.509 177.506 73.6723 177.506 88.6765Z" fill="#D9D9D9"/>
<path d="M233.387 148.029C233.387 164.419 220.326 177.706 204.214 177.706C188.101 177.706 175.04 164.419 175.04 148.029C175.04 131.639 188.101 118.353 204.214 118.353C220.326 118.353 233.387 131.639 233.387 148.029ZM177.506 148.029C177.506 163.033 189.464 175.197 204.214 175.197C218.963 175.197 230.921 163.033 230.921 148.029C230.921 133.025 218.963 120.862 204.214 120.862C189.464 120.862 177.506 133.025 177.506 148.029Z" fill="#D9D9D9"/>
<path d="M233.387 207.382C233.387 223.772 220.326 237.059 204.214 237.059C188.101 237.059 175.04 223.772 175.04 207.382C175.04 190.992 188.101 177.706 204.214 177.706C220.326 177.706 233.387 190.992 233.387 207.382ZM177.506 207.382C177.506 222.386 189.464 234.55 204.214 234.55C218.963 234.55 230.921 222.386 230.921 207.382C230.921 192.378 218.963 180.215 204.214 180.215C189.464 180.215 177.506 192.378 177.506 207.382Z" fill="#D9D9D9"/>
</svg>
