<svg width="234" height="297" viewBox="0 0 234 297" fill="none" xmlns="http://www.w3.org/2000/svg">
<path d="M58.3471 147.677C58.3471 164.066 45.2856 177.353 29.1735 177.353C13.0614 177.353 0 164.066 0 147.677C0 131.287 13.0614 118 29.1735 118C45.2856 118 58.3471 131.287 58.3471 147.677ZM2.46644 147.677C2.46644 162.681 14.4236 174.844 29.1735 174.844C43.9235 174.844 55.8806 162.681 55.8806 147.677C55.8806 132.672 43.9235 120.509 29.1735 120.509C14.4236 120.509 2.46644 132.672 2.46644 147.677Z" fill="#D9D9D9"/>
<path d="M58.3471 88.6765C58.3471 105.066 45.2856 118.353 29.1735 118.353C13.0614 118.353 0 105.066 0 88.6765C0 72.2866 13.0614 59 29.1735 59C45.2856 59 58.3471 72.2866 58.3471 88.6765ZM2.46644 88.6765C2.46644 103.681 14.4236 115.844 29.1735 115.844C43.9235 115.844 55.8806 103.681 55.8806 88.6765C55.8806 73.6723 43.9235 61.509 29.1735 61.509C14.4236 61.509 2.46644 73.6723 2.46644 88.6765Z" fill="#D9D9D9"/>
<path d="M58.3471 29.6765C58.3471 46.0664 45.2856 59.3531 29.1735 59.3531C13.0614 59.3531 0 46.0664 0 29.6765C0 13.2866 13.0614 0 29.1735 0C45.2856 0 58.3471 13.2866 58.3471 29.6765ZM2.46644 29.6765C2.46644 44.6808 14.4236 56.8441 29.1735 56.8441C43.9235 56.8441 55.8806 44.6808 55.8806 29.6765C55.8806 14.6723 43.9235 2.50896 29.1735 2.50896C14.4236 2.50896 2.46644 14.6723 2.46644 29.6765Z" fill="#D9D9D9"/>
<path d="M58.3471 207.029C58.3471 223.419 45.2856 236.706 29.1735 236.706C13.0614 236.706 0 223.419 0 207.029C0 190.639 13.0614 177.353 29.1735 177.353C45.2856 177.353 58.3471 190.639 58.3471 207.029ZM2.46644 207.029C2.46644 222.034 14.4236 234.197 29.1735 234.197C43.9235 234.197 55.8806 222.034 55.8806 207.029C55.8806 192.025 43.9235 179.862 29.1735 179.862C14.4236 179.862 2.46644 192.025 2.46644 207.029Z" fill="#D9D9D9"/>
<path d="M58.3471 266.382C58.3471 282.772 45.2856 296.059 29.1735 296.059C13.0614 296.059 0 282.772 0 266.382C0 249.992 13.0614 236.706 29.1735 236.706C45.2856 236.706 58.3471 249.992 58.3471 266.382ZM2.46644 266.382C2.46644 281.386 14.4236 293.55 29.1735 293.55C43.9235 293.55 55.8806 281.386 55.8806 266.382C55.8806 251.378 43.9235 239.215 29.1735 239.215C14.4236 239.215 2.46644 251.378 2.46644 266.382Z" fill="#D9D9D9"/>
<path d="M116.694 147.677C116.694 164.066 103.632 177.353 87.5202 177.353C71.4081 177.353 58.3467 164.066 58.3467 147.677C58.3467 131.287 71.4081 118 87.5202 118C103.632 118 116.694 131.287 116.694 147.677ZM60.8131 147.677C60.8131 162.681 72.7703 174.844 87.5202 174.844C102.27 174.844 114.227 162.681 114.227 147.677C114.227 132.672 102.27 120.509 87.5202 120.509C72.7703 120.509 60.8131 132.672 60.8131 147.677Z" fill="#D9D9D9"/>
<path d="M116.694 88.6765C116.694 105.066 103.632 118.353 87.5202 118.353C71.4081 118.353 58.3467 105.066 58.3467 88.6765C58.3467 72.2866 71.4081 59 87.5202 59C103.632 59 116.694 72.2866 116.694 88.6765ZM60.8131 88.6765C60.8131 103.681 72.7703 115.844 87.5202 115.844C102.27 115.844 114.227 103.681 114.227 88.6765C114.227 73.6723 102.27 61.509 87.5202 61.509C72.7703 61.509 60.8131 73.6723 60.8131 88.6765Z" fill="#D9D9D9"/>
<path d="M116.694 29.6765C116.694 46.0664 103.632 59.3531 87.5202 59.3531C71.4081 59.3531 58.3467 46.0664 58.3467 29.6765C58.3467 13.2866 71.4081 0 87.5202 0C103.632 0 116.694 13.2866 116.694 29.6765ZM60.8131 29.6765C60.8131 44.6808 72.7703 56.8441 87.5202 56.8441C102.27 56.8441 114.227 44.6808 114.227 29.6765C114.227 14.6723 102.27 2.50896 87.5202 2.50896C72.7703 2.50896 60.8131 14.6723 60.8131 29.6765Z" fill="#D9D9D9"/>
<path d="M116.694 207.029C116.694 223.419 103.632 236.706 87.5202 236.706C71.4081 236.706 58.3467 223.419 58.3467 207.029C58.3467 190.639 71.4081 177.353 87.5202 177.353C103.632 177.353 116.694 190.639 116.694 207.029ZM60.8131 207.029C60.8131 222.034 72.7703 234.197 87.5202 234.197C102.27 234.197 114.227 222.034 114.227 207.029C114.227 192.025 102.27 179.862 87.5202 179.862C72.7703 179.862 60.8131 192.025 60.8131 207.029Z" fill="#D9D9D9"/>
<path d="M116.694 266.382C116.694 282.772 103.632 296.059 87.5202 296.059C71.4081 296.059 58.3467 282.772 58.3467 266.382C58.3467 249.992 71.4081 236.706 87.5202 236.706C103.632 236.706 116.694 249.992 116.694 266.382ZM60.8131 266.382C60.8131 281.386 72.7703 293.55 87.5202 293.55C102.27 293.55 114.227 281.386 114.227 266.382C114.227 251.378 102.27 239.215 87.5202 239.215C72.7703 239.215 60.8131 251.378 60.8131 266.382Z" fill="#D9D9D9"/>
<path d="M175.04 147.677C175.04 164.066 161.979 177.353 145.867 177.353C129.755 177.353 116.693 164.066 116.693 147.677C116.693 131.287 129.755 118 145.867 118C161.979 118 175.04 131.287 175.04 147.677ZM119.16 147.677C119.16 162.681 131.117 174.844 145.867 174.844C160.617 174.844 172.574 162.681 172.574 147.677C172.574 132.672 160.617 120.509 145.867 120.509C131.117 120.509 119.16 132.672 119.16 147.677Z" fill="#D9D9D9"/>
<path d="M175.04 88.6765C175.04 105.066 161.979 118.353 145.867 118.353C129.755 118.353 116.693 105.066 116.693 88.6765C116.693 72.2866 129.755 59 145.867 59C161.979 59 175.04 72.2866 175.04 88.6765ZM119.16 88.6765C119.16 103.681 131.117 115.844 145.867 115.844C160.617 115.844 172.574 103.681 172.574 88.6765C172.574 73.6723 160.617 61.509 145.867 61.509C131.117 61.509 119.16 73.6723 119.16 88.6765Z" fill="#D9D9D9"/>
<path d="M175.04 29.6765C175.04 46.0664 161.979 59.3531 145.867 59.3531C129.755 59.3531 116.693 46.0664 116.693 29.6765C116.693 13.2866 129.755 0 145.867 0C161.979 0 175.04 13.2866 175.04 29.6765ZM119.16 29.6765C119.16 44.6808 131.117 56.8441 145.867 56.8441C160.617 56.8441 172.574 44.6808 172.574 29.6765C172.574 14.6723 160.617 2.50896 145.867 2.50896C131.117 2.50896 119.16 14.6723 119.16 29.6765Z" fill="#D9D9D9"/>
<ellipse cx="145.867" cy="207.029" rx="29.1735" ry="29.6765" fill="#D4ECF8"/>
<ellipse cx="145.867" cy="266.382" rx="29.1735" ry="29.6765" fill="#D4ECF8"/>
<path d="M233.387 147.677C233.387 164.066 220.326 177.353 204.214 177.353C188.101 177.353 175.04 164.066 175.04 147.677C175.04 131.287 188.101 118 204.214 118C220.326 118 233.387 131.287 233.387 147.677ZM177.506 147.677C177.506 162.681 189.464 174.844 204.214 174.844C218.963 174.844 230.921 162.681 230.921 147.677C230.921 132.672 218.963 120.509 204.214 120.509C189.464 120.509 177.506 132.672 177.506 147.677Z" fill="#D9D9D9"/>
<path d="M233.387 88.6765C233.387 105.066 220.326 118.353 204.214 118.353C188.101 118.353 175.04 105.066 175.04 88.6765C175.04 72.2866 188.101 59 204.214 59C220.326 59 233.387 72.2866 233.387 88.6765ZM177.506 88.6765C177.506 103.681 189.464 115.844 204.214 115.844C218.963 115.844 230.921 103.681 230.921 88.6765C230.921 73.6723 218.963 61.509 204.214 61.509C189.464 61.509 177.506 73.6723 177.506 88.6765Z" fill="#D9D9D9"/>
<path d="M233.387 29.6765C233.387 46.0664 220.326 59.3531 204.214 59.3531C188.101 59.3531 175.04 46.0664 175.04 29.6765C175.04 13.2866 188.101 0 204.214 0C220.326 0 233.387 13.2866 233.387 29.6765ZM177.506 29.6765C177.506 44.6808 189.464 56.8441 204.214 56.8441C218.963 56.8441 230.921 44.6808 230.921 29.6765C230.921 14.6723 218.963 2.50896 204.214 2.50896C189.464 2.50896 177.506 14.6723 177.506 29.6765Z" fill="#D9D9D9"/>
<path d="M233.387 207.029C233.387 223.419 220.326 236.706 204.214 236.706C188.101 236.706 175.04 223.419 175.04 207.029C175.04 190.639 188.101 177.353 204.214 177.353C220.326 177.353 233.387 190.639 233.387 207.029ZM177.506 207.029C177.506 222.034 189.464 234.197 204.214 234.197C218.963 234.197 230.921 222.034 230.921 207.029C230.921 192.025 218.963 179.862 204.214 179.862C189.464 179.862 177.506 192.025 177.506 207.029Z" fill="#D9D9D9"/>
<path d="M233.387 266.382C233.387 282.772 220.326 296.059 204.214 296.059C188.101 296.059 175.04 282.772 175.04 266.382C175.04 249.992 188.101 236.706 204.214 236.706C220.326 236.706 233.387 249.992 233.387 266.382ZM177.506 266.382C177.506 281.386 189.464 293.55 204.214 293.55C218.963 293.55 230.921 281.386 230.921 266.382C230.921 251.378 218.963 239.215 204.214 239.215C189.464 239.215 177.506 251.378 177.506 266.382Z" fill="#D9D9D9"/>
</svg>
