<svg width="226" height="105" viewBox="0 0 226 105" fill="none" xmlns="http://www.w3.org/2000/svg">
<g filter="url(#filter0_d_130_3067)">
<rect x="12.0908" width="219.153" height="53.7468" rx="26.8734" transform="rotate(13 12.0908 0)" fill="#EEEDE9"/>
<rect x="12.4655" y="0.599661" width="218.153" height="52.7468" rx="26.3734" transform="rotate(13 12.4655 0.599661)" stroke="#383838"/>
</g>
<path d="M60.0284 33.2351C59.1338 33.2694 58.2411 33.2002 57.3505 33.0274C56.4599 32.8546 55.5852 32.6363 54.7266 32.3723C54.6666 32.3476 54.5859 32.318 54.4843 32.2836C54.3932 32.2516 54.2993 32.208 54.2025 32.1528C54.1138 32.1105 54.0327 32.0589 53.9591 31.9981C53.8936 31.9501 53.8524 31.8914 53.8356 31.8218C53.83 31.7986 53.8292 31.7547 53.8332 31.6899C53.8372 31.6251 53.8412 31.5604 53.8452 31.4956C53.862 31.4229 53.8712 31.3593 53.8728 31.3049C53.8872 31.2426 53.898 31.1958 53.9052 31.1646C54.0308 30.0989 54.2124 29.0516 54.45 28.0226C54.6875 26.9937 54.9471 25.9644 55.2286 24.9346C55.2526 24.8307 55.311 24.6252 55.4037 24.3182C55.4965 24.0112 55.5941 23.6835 55.6964 23.3349C55.8116 22.9783 55.9156 22.6465 56.0083 22.3395C56.1115 22.0349 56.1803 21.8319 56.2147 21.7303C56.2291 21.668 56.2558 21.5756 56.295 21.4533C56.3446 21.3334 56.3954 21.2083 56.4474 21.078C56.4994 20.9477 56.5541 20.8289 56.6117 20.7218C56.6693 20.6147 56.7249 20.5399 56.7784 20.4976C56.9215 20.3992 57.081 20.3485 57.2569 20.3453C57.4456 20.3341 57.6307 20.3385 57.8122 20.3585C58.3359 20.4138 58.8511 20.5054 59.358 20.6333C59.8777 20.7533 60.3885 20.8877 60.8906 21.0364C61.5046 21.222 62.1054 21.4647 62.693 21.7645C63.2806 22.0644 63.7819 22.4538 64.1968 22.9327C64.395 23.1646 64.5613 23.4165 64.6956 23.6883C64.8403 23.9626 64.923 24.2444 64.9437 24.5338C64.9589 24.8 64.9029 25.0663 64.7758 25.3325C64.659 25.6011 64.4987 25.8214 64.2948 25.9932C64.0222 26.2259 63.7111 26.4113 63.3617 26.5496C63.0147 26.6775 62.6634 26.777 62.3076 26.8481C62.7161 27.1176 63.1034 27.4314 63.4696 27.7896C63.7749 28.0791 64.0164 28.4085 64.1938 28.7779C64.3345 29.1169 64.4148 29.4803 64.4348 29.868C64.4571 30.2454 64.4067 30.606 64.2836 30.9497C64.1548 31.2703 63.9713 31.5673 63.733 31.8407C63.4947 32.1141 63.2205 32.33 62.9103 32.4882C62.4745 32.7161 62.0068 32.8927 61.5071 33.0182C61.0202 33.1357 60.5273 33.208 60.0284 33.2351ZM59.2282 23.3292C59.1067 23.6186 59.0019 23.9064 58.9139 24.1927C58.826 24.4789 58.742 24.7715 58.662 25.0705C58.9139 25.1177 59.1705 25.1441 59.4319 25.1497C59.6934 25.1553 59.9516 25.1274 60.2067 25.0658C60.361 25.0139 60.5057 24.9323 60.6408 24.8212C60.7863 24.7125 60.8499 24.5794 60.8315 24.4219C60.8211 24.2772 60.758 24.1477 60.6421 24.0333C60.5262 23.919 60.3859 23.8154 60.2212 23.7227C60.0565 23.6299 59.883 23.5515 59.7007 23.4876C59.5184 23.4236 59.3609 23.3708 59.2282 23.3292ZM57.9457 29.4537C58.0784 29.4953 58.2511 29.5297 58.4637 29.5569C58.6868 29.5865 58.9122 29.6057 59.1401 29.6145C59.3679 29.6233 59.5838 29.6129 59.7877 29.5834C59.9916 29.5538 60.1523 29.4979 60.2698 29.4155C60.349 29.3572 60.4033 29.2876 60.4329 29.2069C60.4649 29.1157 60.4685 29.029 60.4437 28.9466C60.4214 28.8539 60.381 28.7679 60.3226 28.6888C60.2771 28.6016 60.2123 28.5265 60.1284 28.4633C59.8582 28.2586 59.5576 28.0907 59.2266 27.9595C58.8956 27.8284 58.5614 27.7348 58.224 27.6788C58.1673 27.9722 58.1105 28.2656 58.0537 28.559C58.0073 28.8549 57.9713 29.1531 57.9457 29.4537ZM66.4867 34.9724C66.37 34.9564 66.2557 34.9301 66.1438 34.8933C66.0294 34.8669 65.9251 34.8209 65.8308 34.7553C65.7156 34.685 65.6209 34.5974 65.5466 34.4927C65.4746 34.3775 65.4143 34.2596 65.3655 34.1389C65.3327 34.0437 65.3116 33.9458 65.302 33.845C65.2924 33.7443 65.288 33.6448 65.2888 33.5464C65.2856 33.2282 65.3045 32.9096 65.3453 32.5906C65.3965 32.274 65.4477 31.9574 65.4989 31.6408C65.5981 30.9741 65.7181 30.3121 65.8588 29.6549C66.002 28.9873 66.1596 28.3286 66.3315 27.6786C66.4619 27.1613 66.6014 26.6517 66.7502 26.1496C66.9014 25.6371 67.0877 25.1382 67.3092 24.653C67.4187 24.4155 67.5451 24.1765 67.6882 23.9359C67.8338 23.6848 68.0272 23.5106 68.2687 23.413C68.4022 23.3563 68.5349 23.3267 68.6669 23.3243C68.8116 23.3139 68.9591 23.3152 69.1094 23.328C69.3037 23.34 69.4943 23.3676 69.6814 23.4108C69.8685 23.454 70.0556 23.4972 70.2427 23.5403C70.3466 23.5643 70.5233 23.6051 70.7727 23.6627C71.0222 23.7203 71.308 23.7863 71.6302 23.8607C71.9651 23.9271 72.3145 24.0022 72.6783 24.0862C73.0445 24.1598 73.3886 24.2338 73.7108 24.3082C74.0434 24.385 74.3344 24.4522 74.5839 24.5097C74.8333 24.5673 75.01 24.6081 75.1139 24.6321C75.2178 24.6561 75.3194 24.6905 75.4185 24.7353C75.5304 24.7721 75.6132 24.8404 75.6667 24.9404C75.7067 25.0043 75.7215 25.1063 75.7111 25.2462C75.7135 25.3781 75.7031 25.518 75.6799 25.6659C75.6567 25.8138 75.6283 25.9605 75.5947 26.106C75.5635 26.2412 75.5395 26.3451 75.5227 26.4178C75.5083 26.4802 75.4919 26.5749 75.4735 26.7021C75.4575 26.8188 75.4299 26.9383 75.3907 27.0606C75.3643 27.175 75.3275 27.2869 75.2804 27.3964C75.2356 27.4955 75.1864 27.5663 75.1328 27.6087C75.0944 27.6326 75.0353 27.6518 74.9553 27.6662C74.8778 27.6702 74.795 27.673 74.7071 27.6746C74.6215 27.6658 74.536 27.657 74.4504 27.6482C74.3649 27.6394 74.3013 27.6302 74.2598 27.6206C74.1558 27.5966 73.9376 27.5462 73.605 27.4694C73.2852 27.3846 72.9446 27.295 72.5833 27.2007C72.2219 27.1063 71.8801 27.0219 71.5579 26.9475C71.2381 26.8628 71.0263 26.8084 70.9223 26.7844C70.8743 26.9922 70.8252 27.2053 70.7748 27.4236C70.7244 27.6418 70.6804 27.8561 70.6428 28.0664C70.9754 28.1431 71.304 28.2135 71.6285 28.2775C71.9531 28.3415 72.2829 28.4067 72.6179 28.4731C72.7946 28.5139 72.9937 28.5763 73.2151 28.6602C73.439 28.7338 73.5589 28.8545 73.5749 29.0224C73.5813 29.0896 73.5796 29.144 73.5701 29.1855C73.5612 29.2711 73.538 29.419 73.5005 29.6292C73.4629 29.8395 73.4177 30.059 73.3649 30.2876C73.3145 30.5059 73.2601 30.7177 73.2017 30.9232C73.1433 31.1287 73.0993 31.2718 73.0698 31.3525C73.0274 31.4413 72.9626 31.5084 72.8755 31.554C72.8115 31.594 72.7355 31.6147 72.6476 31.6163C72.57 31.6203 72.4925 31.6243 72.4149 31.6283C72.319 31.6171 72.1503 31.5891 71.9089 31.5443C71.6802 31.4915 71.4308 31.4339 71.1606 31.3715C70.9007 31.3115 70.6513 31.254 70.4122 31.1988C70.1836 31.146 70.0277 31.11 69.9445 31.0908C69.8893 31.3298 69.8302 31.5625 69.767 31.7887C69.7166 32.007 69.6586 32.2345 69.593 32.4711C70.0583 32.5895 70.5272 32.6923 70.9997 32.7794C71.4746 32.8562 71.9571 32.9238 72.4472 32.9822C72.5535 32.9959 72.6547 33.0083 72.7506 33.0195C72.8569 33.0331 72.9661 33.0583 73.078 33.095C73.1923 33.1214 73.2891 33.1766 73.3682 33.2606C73.421 33.3165 73.4509 33.4001 73.4581 33.5112C73.4757 33.6247 73.4753 33.7451 73.4569 33.8722C73.4489 34.0017 73.4357 34.13 73.4173 34.2571C73.4013 34.3739 73.3849 34.4686 73.3681 34.5414C73.3465 34.6349 73.3229 34.7608 73.2973 34.9191C73.2717 35.0774 73.2345 35.2385 73.1857 35.4024C73.1473 35.5687 73.0997 35.7274 73.043 35.8785C72.9886 36.0192 72.923 36.1135 72.8462 36.1615C72.7799 36.2119 72.6807 36.2382 72.5488 36.2406C72.4169 36.243 72.277 36.2326 72.1291 36.2094C71.9916 36.1886 71.8553 36.1626 71.7202 36.1314C71.585 36.1002 71.4759 36.075 71.3928 36.0558C70.5717 35.8663 69.7546 35.6831 68.9415 35.5063C68.1261 35.34 67.3078 35.162 66.4867 34.9724ZM77.4094 37.4449C77.1735 37.4233 76.9437 37.3757 76.7198 37.3021C76.496 37.2285 76.2745 37.1446 76.0555 37.0502C75.9355 37.0006 75.8156 36.951 75.6957 36.9015C75.5758 36.8519 75.4647 36.7879 75.3623 36.7095C75.2704 36.6336 75.2044 36.5636 75.1645 36.4997C75.1005 36.3973 75.0642 36.2466 75.0554 36.0475C75.049 35.8381 75.0554 35.6206 75.0746 35.3951C75.1066 35.1617 75.1362 34.9386 75.1634 34.726C75.201 34.5157 75.229 34.347 75.2474 34.2199C75.4026 33.2157 75.593 32.2252 75.8186 31.2482C76.0465 30.2608 76.3004 29.2795 76.5804 28.3041C76.6219 28.1714 76.6767 27.9815 76.7447 27.7345C76.8151 27.477 76.8983 27.2116 76.9942 26.9382C77.0902 26.6648 77.1866 26.4133 77.2833 26.1839C77.3929 25.9465 77.5012 25.7854 77.6084 25.7006C77.7155 25.6159 77.8362 25.5671 77.9705 25.5544C78.1153 25.544 78.2536 25.5376 78.3855 25.5352C78.6725 25.5248 78.9559 25.5301 79.2358 25.5509C79.5156 25.5717 79.7906 25.6133 80.0608 25.6757C80.2063 25.7093 80.3494 25.7533 80.4901 25.8076C80.6333 25.8516 80.76 25.9192 80.8703 26.0103C81.0414 26.1703 81.1445 26.3637 81.1796 26.5908C81.3283 27.3695 81.4485 28.1527 81.5404 28.9402C81.6347 29.7173 81.7729 30.4936 81.9551 31.2692C82.0055 31.1932 82.0899 31.0649 82.2082 30.8842C82.3369 30.7059 82.4769 30.5029 82.628 30.275C82.7919 30.0392 82.9594 29.7878 83.1305 29.5208C83.3017 29.2537 83.4628 29.0063 83.6139 28.7785C83.7674 28.5402 83.8982 28.3296 84.0061 28.1465C84.1245 27.9658 84.2088 27.8375 84.2592 27.7616C84.2768 27.7328 84.3108 27.6804 84.3612 27.6045C84.4115 27.5285 84.4631 27.4474 84.5159 27.361C84.5791 27.2771 84.6346 27.2024 84.6826 27.1368C84.733 27.0609 84.7722 27.0097 84.8001 26.9833C84.8457 26.9281 84.9085 26.8934 84.9884 26.879C85.0684 26.8646 85.1563 26.863 85.2523 26.8742C85.3506 26.875 85.4465 26.8862 85.5401 26.9078C85.6464 26.9214 85.7308 26.9354 85.7931 26.9498C86.1721 27.0154 86.5438 27.1122 86.9084 27.2401C87.2834 27.3705 87.6255 27.548 87.9349 27.7727C88.066 27.8687 88.1552 28.0042 88.2023 28.1793C88.2623 28.3464 88.2846 28.5103 88.2694 28.671C88.2318 29.3082 88.1526 29.9358 88.0318 30.5538C87.9214 31.1742 87.7994 31.7974 87.6658 32.4234C87.5139 33.1765 87.3423 33.9196 87.1512 34.6527C86.9728 35.3779 86.7713 36.1086 86.5465 36.8449C86.5145 36.936 86.4654 37.078 86.399 37.2706C86.343 37.4657 86.2742 37.6688 86.1926 37.8798C86.1239 38.0829 86.0471 38.2732 85.9623 38.4507C85.888 38.6305 85.8112 38.7496 85.7321 38.808C85.6225 38.9031 85.4954 38.9559 85.3507 38.9663C85.206 38.9767 85.0676 38.983 84.9357 38.9854C84.7702 38.991 84.5656 38.9766 84.3217 38.9422C84.0859 38.9206 83.8496 38.877 83.613 38.8114C83.3739 38.7562 83.1565 38.6786 82.9606 38.5787C82.7647 38.4787 82.624 38.3532 82.5385 38.2021C82.453 38.051 82.4062 37.8267 82.3983 37.5293C82.3927 37.2215 82.4063 36.9017 82.4391 36.5699C82.4823 36.2405 82.5283 35.9227 82.5771 35.6165C82.6259 35.3103 82.6707 35.0689 82.7115 34.8922C82.7259 34.8298 82.7507 34.6987 82.7859 34.4988C82.8315 34.3013 82.8795 34.0935 82.9299 33.8752C82.9827 33.6466 83.0266 33.4323 83.0618 33.2324C83.1074 33.035 83.1374 32.905 83.1518 32.8427C83.1342 32.8715 83.0903 32.9434 83.0199 33.0585C82.9519 33.1633 82.8816 33.2784 82.8088 33.4039C82.7384 33.519 82.6681 33.6341 82.5977 33.7493C82.5297 33.854 82.4857 33.926 82.4657 33.9651C82.433 34.0123 82.385 34.0778 82.3218 34.1618C82.2714 34.2377 82.2147 34.3177 82.1515 34.4016C82.0883 34.4856 82.0212 34.5631 81.95 34.6343C81.8892 34.7078 81.8345 34.7554 81.7857 34.777C81.6882 34.8201 81.585 34.8401 81.4763 34.8369C81.37 34.8233 81.2648 34.8045 81.1609 34.7805C81.057 34.7565 80.9554 34.7221 80.8563 34.6773C80.7675 34.6349 80.6876 34.5782 80.6165 34.507C80.5901 34.479 80.5645 34.4239 80.5397 34.3415C80.5149 34.2592 80.4914 34.1716 80.469 34.0789C80.4466 33.9861 80.423 33.8986 80.3983 33.8162C80.3863 33.7259 80.3735 33.6627 80.3599 33.6267C80.304 33.3949 80.2456 33.1734 80.1849 32.9623C80.1265 32.7409 80.0746 32.5154 80.029 32.2859C79.9882 32.4626 79.9354 32.6913 79.8707 32.9719C79.8163 33.2549 79.7455 33.5615 79.6583 33.8917C79.5815 34.2243 79.4919 34.5649 79.3896 34.9134C79.3 35.254 79.1972 35.5806 79.0813 35.8932C78.9653 36.2058 78.841 36.4836 78.7082 36.7266C78.5779 36.9593 78.44 37.13 78.2944 37.2387C78.1745 37.3314 78.0346 37.3922 77.8747 37.4209C77.7148 37.4497 77.5597 37.4577 77.4094 37.4449ZM101.464 42.9161C101.057 42.8769 100.644 42.8365 100.227 42.7949C99.8201 42.7556 99.414 42.6893 99.0087 42.5957C98.8632 42.5621 98.746 42.4529 98.6573 42.2682C98.579 42.0859 98.5294 41.9212 98.5087 41.7741C98.4735 41.5471 98.4499 41.3172 98.438 41.0846C98.4284 40.8415 98.4176 40.6037 98.4057 40.371C97.4711 40.0567 96.5185 39.8204 95.5479 39.662C95.42 39.8842 95.292 40.1065 95.1641 40.3287C95.0489 40.543 94.9194 40.7484 94.7755 40.9451C94.6971 41.0474 94.6107 41.137 94.5164 41.2137C94.4324 41.2929 94.3337 41.3412 94.2202 41.3588C94.1634 41.3676 94.0727 41.3576 93.9479 41.3288C93.8232 41.3 93.6945 41.2648 93.5618 41.2232C93.4267 41.192 93.298 41.1568 93.1756 41.1176C93.0637 41.0809 92.9766 41.0553 92.9142 41.0409C92.7815 40.9993 92.62 40.9401 92.4297 40.8633C92.2475 40.7994 92.0688 40.7198 91.8937 40.6246C91.7162 40.5399 91.5579 40.4431 91.4188 40.3344C91.2925 40.2176 91.2178 40.0909 91.1946 39.9542C91.1722 39.8614 91.1718 39.7683 91.1934 39.6748C91.2174 39.5708 91.2442 39.4785 91.2738 39.3977C91.3378 39.2155 91.4109 39.0408 91.4933 38.8737C91.5781 38.6962 91.6668 38.5251 91.7596 38.3604C93.0014 35.9213 94.4476 33.6169 96.0979 31.4472C96.2898 31.1849 96.4817 30.9227 96.6736 30.6605C96.8656 30.3983 97.0918 30.1768 97.3525 29.9962C97.5108 29.8795 97.6871 29.8271 97.8814 29.8391C98.744 29.896 99.6063 30.0732 100.468 30.3706C100.713 30.449 100.907 30.6033 101.051 30.8336C101.208 31.0999 101.305 31.3905 101.342 31.7055C101.379 32.0205 101.423 32.3263 101.475 32.6229C101.768 34.0589 101.988 35.5 102.136 36.9463C102.294 38.395 102.39 39.8513 102.424 41.3152C102.425 41.3592 102.425 41.4303 102.424 41.5287C102.423 41.627 102.421 41.7305 102.418 41.8393C102.415 41.948 102.408 42.0503 102.397 42.1463C102.396 42.2446 102.391 42.3146 102.381 42.3561C102.335 42.5536 102.229 42.7043 102.063 42.8082C101.974 42.8642 101.878 42.897 101.778 42.9065C101.677 42.9161 101.572 42.9193 101.464 42.9161ZM96.6646 37.6701C96.942 37.7013 97.2198 37.7545 97.4981 37.8297C97.7763 37.9049 98.0481 37.9841 98.3135 38.0672C98.3143 37.9689 98.3056 37.7698 98.2872 37.47C98.2816 37.1622 98.2745 36.8376 98.2657 36.4962C98.2569 36.1548 98.2434 35.8342 98.225 35.5344C98.2067 35.2346 98.1927 35.0343 98.1831 34.9336C98.1303 35.0199 98.03 35.1938 97.882 35.4552C97.7341 35.7166 97.5762 35.9977 97.4083 36.2983C97.2531 36.5909 97.1004 36.8731 96.9501 37.1449C96.8125 37.4087 96.7174 37.5838 96.6646 37.6701ZM107.6 34.9073C107.232 34.8441 106.877 34.7457 106.535 34.6122C106.426 34.565 106.311 34.5166 106.191 34.467C106.082 34.4199 105.989 34.3491 105.912 34.2548C105.841 34.1836 105.789 34.1004 105.756 34.0053C105.736 33.9022 105.72 33.8054 105.708 33.7151C105.698 33.6143 105.696 33.4824 105.701 33.3193C105.716 33.1586 105.743 32.9951 105.781 32.8288C105.82 32.6625 105.866 32.509 105.92 32.3683C105.977 32.2172 106.041 32.1061 106.112 32.035C106.117 32.0142 106.119 32.0038 106.119 32.0038C106.132 31.9958 106.141 31.9814 106.146 31.9606C106.247 31.8087 106.381 31.7028 106.548 31.6428C106.668 31.5941 106.789 31.5673 106.911 31.5625C107.045 31.5497 107.178 31.5422 107.31 31.5398C107.595 31.5398 107.876 31.5774 108.155 31.6526C108.446 31.7198 108.727 31.8065 108.998 31.9129C109.097 31.9577 109.195 32.0077 109.291 32.0628C109.388 32.118 109.47 32.1916 109.536 32.2835C109.648 32.4626 109.701 32.6609 109.694 32.8784C109.69 33.0854 109.676 33.2901 109.651 33.4924C109.631 33.6739 109.596 33.8518 109.544 34.026C109.506 34.1923 109.432 34.345 109.324 34.4841C109.243 34.5969 109.133 34.692 108.995 34.7695C108.859 34.8367 108.72 34.8922 108.579 34.9362C108.417 34.9753 108.255 34.9873 108.094 34.9721C107.934 34.9569 107.769 34.9353 107.6 34.9073ZM105.709 44.0934C105.509 44.0582 105.312 44.0126 105.117 43.9566C104.932 43.903 104.744 43.8431 104.551 43.7767C104.489 43.7623 104.403 43.7315 104.293 43.6843C104.192 43.6499 104.087 43.6039 103.98 43.5464C103.871 43.4992 103.767 43.448 103.671 43.3928C103.584 43.3401 103.526 43.2829 103.497 43.2213C103.454 43.1678 103.426 43.079 103.411 42.9551C103.406 42.8336 103.403 42.7016 103.403 42.5593C103.414 42.4194 103.423 42.2847 103.431 42.1552C103.449 42.0281 103.466 41.9333 103.48 41.871C103.539 41.3809 103.613 40.8944 103.702 40.4115C103.792 39.9286 103.898 39.4441 104.021 38.958C104.132 38.5239 104.248 38.0962 104.367 37.6749C104.499 37.2456 104.661 36.8286 104.853 36.4241C104.9 36.3146 104.956 36.2126 105.022 36.1183C105.087 36.024 105.169 35.9552 105.266 35.9121C105.315 35.8905 105.39 35.8749 105.491 35.8653C105.602 35.8581 105.717 35.8573 105.836 35.8629C105.968 35.8606 106.087 35.8662 106.193 35.8798C106.302 35.883 106.384 35.8854 106.438 35.887C106.697 35.903 106.957 35.941 107.216 36.001C107.476 36.061 107.735 36.1262 107.992 36.1965C108.034 36.2061 108.09 36.2245 108.16 36.2517C108.233 36.2685 108.304 36.2905 108.375 36.3177C108.456 36.3473 108.525 36.3797 108.582 36.4149C108.65 36.4524 108.696 36.4904 108.72 36.5288C108.742 36.5776 108.752 36.6511 108.751 36.7495C108.763 36.8398 108.768 36.9393 108.765 37.0481C108.761 37.1568 108.753 37.2643 108.739 37.3707C108.728 37.4666 108.717 37.5406 108.705 37.5925C108.69 37.6549 108.658 37.7952 108.607 38.0135C108.57 38.2237 108.523 38.4484 108.468 38.6874C108.423 38.9289 108.377 39.1535 108.329 39.3614C108.291 39.5717 108.264 39.7132 108.247 39.7859C108.159 40.2144 108.061 40.6406 107.952 41.0643C107.856 41.48 107.749 41.8986 107.63 42.3199C107.564 42.5565 107.488 42.7908 107.402 43.0226C107.315 43.2545 107.205 43.4699 107.072 43.669C107.021 43.7449 106.959 43.8237 106.886 43.9052C106.815 43.9764 106.732 44.0283 106.636 44.0611C106.492 44.1154 106.339 44.1402 106.176 44.1354C106.013 44.1306 105.857 44.1166 105.709 44.0934ZM111.437 45.2843C111.128 45.2459 110.831 45.1827 110.545 45.0948C110.258 45.0068 109.975 44.9084 109.693 44.7997C109.563 44.7477 109.43 44.6841 109.294 44.6089C109.166 44.5466 109.074 44.4486 109.017 44.3151C108.977 44.2511 108.957 44.148 108.957 44.0057C108.957 43.8634 108.959 43.7107 108.964 43.5476C108.979 43.3869 108.992 43.2366 109.003 43.0967C109.026 42.9488 109.042 42.832 109.051 42.7465C109.109 42.2564 109.183 41.7699 109.273 41.287C109.373 40.8065 109.479 40.322 109.592 39.8336C109.729 39.2411 109.876 38.6511 110.033 38.0635C110.191 37.4759 110.385 36.8967 110.615 36.3258C110.669 36.1851 110.73 36.0404 110.797 35.8917C110.875 35.7454 110.983 35.6335 111.121 35.556C111.16 35.532 111.224 35.514 111.314 35.502C111.405 35.49 111.499 35.4845 111.597 35.4853C111.708 35.4781 111.808 35.4737 111.896 35.4721C111.994 35.4729 112.065 35.4729 112.109 35.4721C112.49 35.4833 112.862 35.5309 113.226 35.6149C113.592 35.6885 113.952 35.7881 114.306 35.9136C114.437 35.9656 114.53 36.0364 114.586 36.1259C114.629 36.2235 114.645 36.3694 114.633 36.5637C114.62 36.7579 114.596 36.9602 114.558 37.1705C114.521 37.3808 114.479 37.5846 114.433 37.7821C114.398 37.982 114.369 38.1339 114.345 38.2378C114.441 38.1507 114.537 38.0687 114.631 37.992C114.738 37.9072 114.844 37.8277 114.949 37.7534C115.33 37.48 115.755 37.2717 116.226 37.1287C116.708 36.988 117.184 36.9393 117.656 36.9825C117.721 36.9865 117.8 36.9993 117.893 37.0209C118 37.0345 118.098 37.0573 118.189 37.0893C118.293 37.1133 118.385 37.1453 118.463 37.1852C118.552 37.2276 118.611 37.2796 118.64 37.3412C118.678 37.4155 118.691 37.5227 118.681 37.6626C118.681 37.8049 118.663 37.954 118.627 38.1099C118.601 38.2682 118.572 38.4201 118.538 38.5656C118.505 38.7111 118.479 38.8202 118.463 38.893C118.443 38.9761 118.416 39.0956 118.38 39.2515C118.357 39.3994 118.326 39.5565 118.288 39.7228C118.252 39.8787 118.206 40.027 118.152 40.1678C118.108 40.3109 118.058 40.4088 118.002 40.4616C117.946 40.5143 117.878 40.5479 117.798 40.5623C117.729 40.5791 117.656 40.5842 117.581 40.5778C117.529 40.5658 117.425 40.5418 117.269 40.5059C117.113 40.4699 116.948 40.4263 116.774 40.3751C116.6 40.3239 116.435 40.2803 116.279 40.2443C116.123 40.2083 116.019 40.1843 115.967 40.1723C115.788 40.1419 115.605 40.1271 115.419 40.1279C115.243 40.1311 115.07 40.1679 114.901 40.2382C114.767 40.295 114.65 40.3773 114.548 40.4852C114.457 40.5955 114.366 40.7059 114.275 40.8162C114.039 41.0792 113.854 41.3814 113.721 41.7228C113.587 42.0641 113.455 42.4003 113.324 42.7313L113.316 42.7625C113.248 43.0095 113.18 43.2566 113.112 43.5036C113.044 43.7506 112.956 43.9929 112.846 44.2303C112.774 44.3998 112.692 44.5669 112.599 44.7316C112.506 44.8963 112.383 45.0266 112.23 45.1225C112.125 45.1968 111.999 45.2444 111.852 45.2652C111.715 45.2883 111.577 45.2947 111.437 45.2843ZM120.772 47.5216C120.521 47.5184 120.273 47.4776 120.028 47.3992C119.784 47.3208 119.545 47.2384 119.314 47.1521C119.098 47.0913 118.889 46.9993 118.688 46.8762C118.523 46.7834 118.406 46.6743 118.336 46.5488C118.28 46.4592 118.251 46.3265 118.248 46.1506C118.247 45.9643 118.254 45.7688 118.268 45.5642C118.282 45.3595 118.305 45.1676 118.335 44.9885C118.368 44.7991 118.391 44.6511 118.405 44.5448C118.504 43.878 118.619 43.2149 118.749 42.5553C118.892 41.8877 119.041 41.2214 119.194 40.5562C119.363 39.8726 119.536 39.1955 119.713 38.5247C119.902 37.8459 120.118 37.1732 120.359 36.5064C120.414 36.3657 120.474 36.221 120.541 36.0723C120.619 35.926 120.723 35.8077 120.853 35.7174C120.958 35.643 121.08 35.611 121.22 35.6215C121.363 35.6215 121.501 35.6151 121.635 35.6023C121.669 35.5991 121.702 35.5959 121.736 35.5927C121.782 35.5815 121.822 35.5743 121.856 35.5711C122.13 35.5688 122.4 35.5872 122.664 35.6264C122.939 35.668 123.209 35.7304 123.475 35.8135C123.506 35.8207 123.552 35.8367 123.612 35.8615C123.674 35.8759 123.74 35.8967 123.811 35.9239C123.883 35.9407 123.95 35.9615 124.01 35.9863C124.07 36.0111 124.11 36.0259 124.131 36.0307C124.23 36.0755 124.296 36.1454 124.329 36.2406C124.345 36.3101 124.347 36.42 124.335 36.5704C124.335 36.7127 124.327 36.8642 124.312 37.0249C124.297 37.1856 124.277 37.3399 124.254 37.4878C124.233 37.6253 124.215 37.7304 124.198 37.8032C124.174 37.9071 124.133 38.0838 124.075 38.3332C124.031 38.5747 123.971 38.8565 123.897 39.1787C123.833 39.5033 123.759 39.8475 123.675 40.2112C123.604 40.567 123.531 40.906 123.456 41.2282C123.392 41.5528 123.332 41.8398 123.274 42.0892C123.216 42.3386 123.176 42.5153 123.152 42.6193C123.137 42.6816 123.1 42.8207 123.039 43.0366C122.988 43.2549 122.929 43.4875 122.861 43.7345C122.806 43.9736 122.748 44.201 122.687 44.4169C122.637 44.6352 122.603 44.7807 122.587 44.8534C122.507 45.1524 122.415 45.4542 122.312 45.7588C122.219 46.0658 122.102 46.3616 121.959 46.6462C121.897 46.7742 121.824 46.8997 121.741 47.0228C121.66 47.1355 121.566 47.2342 121.459 47.319C121.357 47.3829 121.246 47.4341 121.128 47.4724C121.01 47.5108 120.891 47.5272 120.772 47.5216ZM132.787 49.9014C132.634 50.0413 132.44 50.1224 132.205 50.1448C131.968 50.1776 131.718 50.1691 131.456 50.1195C131.191 50.0803 130.933 50.0152 130.68 49.924C130.425 49.8432 130.204 49.7593 130.016 49.6721C129.906 49.6249 129.799 49.5673 129.694 49.4994C129.598 49.4442 129.517 49.3654 129.453 49.2631C129.413 49.1991 129.387 49.1 129.374 48.9657C129.374 48.8234 129.375 48.6759 129.378 48.5232C129.383 48.3601 129.39 48.2085 129.401 48.0686C129.424 47.9207 129.44 47.804 129.449 47.7185C129.196 47.9119 128.93 48.0914 128.651 48.2568C128.385 48.4143 128.1 48.5346 127.796 48.6177C127.528 48.6873 127.228 48.7056 126.896 48.6728C126.565 48.64 126.243 48.5656 125.93 48.4497C125.617 48.3337 125.329 48.185 125.064 48.0035C124.799 47.822 124.596 47.6109 124.455 47.3702C124.265 47.0528 124.153 46.7094 124.118 46.34C124.085 45.9603 124.084 45.5877 124.113 45.2223C124.146 44.7482 124.204 44.2853 124.286 43.8336C124.371 43.3715 124.451 42.9082 124.525 42.4437C124.583 42.0519 124.697 41.6734 124.869 41.308C125.041 40.9427 125.264 40.6165 125.539 40.3295C125.846 39.9953 126.198 39.7263 126.595 39.5225C127.005 39.3107 127.435 39.18 127.884 39.1305C128.212 39.0857 128.54 39.0902 128.867 39.1438C129.196 39.187 129.508 39.2809 129.803 39.4257C130.101 39.56 130.372 39.7375 130.616 39.9582C130.871 40.1813 131.089 40.4232 131.27 40.6838C131.315 40.6287 131.365 40.5799 131.418 40.5375C131.474 40.4848 131.538 40.4448 131.61 40.4176C131.731 40.3689 131.916 40.3513 132.164 40.3649C132.415 40.3681 132.678 40.3905 132.953 40.4321C133.231 40.4633 133.494 40.5077 133.744 40.5653C133.996 40.6125 134.189 40.6517 134.324 40.6829C134.405 40.7125 134.521 40.7557 134.672 40.8125C134.825 40.8589 134.922 40.914 134.962 40.978C134.986 41.0164 134.999 41.0795 135.001 41.1675C135.015 41.2474 135.017 41.3354 135.005 41.4313C135.007 41.5193 135.002 41.6112 134.991 41.7071C134.992 41.7951 134.988 41.8598 134.979 41.9014C134.966 42.0517 134.928 42.2892 134.864 42.6138C134.8 42.9384 134.72 43.3085 134.624 43.7242C134.541 44.132 134.445 44.5697 134.337 45.0374C134.231 45.4947 134.131 45.9312 134.035 46.3469C133.941 46.7523 133.852 47.1149 133.767 47.4346C133.693 47.7568 133.634 47.9895 133.59 48.1326C133.505 48.4524 133.41 48.7698 133.304 49.0848C133.198 49.3998 133.026 49.672 132.787 49.9014ZM128.434 46.1378C128.543 46.2833 128.686 46.3492 128.865 46.3357C129.053 46.3245 129.219 46.2697 129.362 46.1714C129.482 46.0787 129.586 45.9604 129.674 45.8165C129.773 45.675 129.833 45.5303 129.857 45.3824C129.973 44.8291 130.094 44.2823 130.219 43.7418C130.354 43.2038 130.51 42.6705 130.687 42.1421C130.592 42.0325 130.463 41.9482 130.302 41.889C130.153 41.8218 130.008 41.8102 129.866 41.8542C129.635 41.9101 129.428 42.0484 129.245 42.269C129.073 42.4921 128.921 42.7471 128.789 43.0341C128.668 43.3235 128.566 43.6229 128.484 43.9323C128.401 44.2417 128.344 44.5132 128.312 44.7466C128.302 44.8865 128.287 45.02 128.269 45.1472C128.261 45.2767 128.258 45.4074 128.26 45.5393C128.268 45.6504 128.281 45.7576 128.301 45.8607C128.321 45.9639 128.365 46.0562 128.434 46.1378ZM137.299 51.2715C137.151 51.2483 136.958 51.2091 136.719 51.1539C136.488 51.1115 136.251 51.0459 136.009 50.9572C135.774 50.8812 135.554 50.792 135.348 50.6897C135.142 50.5873 134.997 50.4774 134.915 50.3598C134.875 50.2959 134.849 50.1967 134.836 50.0624C134.826 49.9177 134.822 49.769 134.824 49.6163C134.837 49.466 134.848 49.3209 134.859 49.181C134.882 49.0331 134.898 48.9163 134.907 48.8308C134.97 48.3199 135.049 47.8126 135.143 47.309C135.238 46.8053 135.348 46.3052 135.473 45.8087C135.62 45.2187 135.766 44.6339 135.911 44.0543C136.069 43.4667 136.273 42.8898 136.524 42.3238C136.571 42.2143 136.625 42.1008 136.685 41.9832C136.755 41.8681 136.847 41.7798 136.959 41.7182C137.072 41.6567 137.193 41.6299 137.323 41.6379C137.452 41.6459 137.577 41.6527 137.696 41.6583C138.11 41.6664 138.527 41.708 138.948 41.7832C139.381 41.8504 139.794 41.9567 140.188 42.1023C140.347 42.1719 140.432 42.279 140.442 42.4237C140.493 42.8187 140.467 43.2176 140.363 43.6206C140.261 44.0131 140.17 44.408 140.089 44.8054C140.553 44.4089 141.047 44.0468 141.571 43.719C141.787 43.5935 142.003 43.4848 142.221 43.3929C142.453 43.293 142.69 43.2382 142.933 43.2286C143.264 43.2175 143.59 43.2491 143.912 43.3235C144.247 43.3899 144.564 43.4902 144.861 43.6246C145.09 43.7213 145.314 43.8441 145.531 43.9928C145.751 44.1311 145.93 44.3039 146.069 44.5109C146.177 44.6565 146.25 44.8156 146.287 44.9883C146.334 45.1634 146.359 45.3388 146.362 45.5147C146.375 45.9337 146.339 46.3522 146.253 46.7703C146.167 47.1885 146.073 47.599 145.969 48.0019C145.862 48.4153 145.751 48.8274 145.634 49.2383C145.53 49.6413 145.414 50.047 145.287 50.4556C145.199 50.7418 145.106 51.0268 145.008 51.3106C144.922 51.5864 144.816 51.8574 144.689 52.1237C144.654 52.1812 144.618 52.2388 144.583 52.2963C144.558 52.3563 144.53 52.4099 144.497 52.457C144.434 52.541 144.339 52.5957 144.213 52.6213C144.099 52.6389 143.972 52.6425 143.832 52.6321C143.703 52.624 143.565 52.6032 143.42 52.5697C143.285 52.5385 143.165 52.5109 143.061 52.4869C142.737 52.4229 142.41 52.3693 142.08 52.3261C141.761 52.2853 141.447 52.2017 141.137 52.0753C141.087 52.053 141.033 52.0242 140.976 51.989C140.926 51.9666 140.886 51.9298 140.854 51.8786C140.787 51.7867 140.752 51.6528 140.749 51.4769C140.756 51.3034 140.771 51.1207 140.794 50.9288C140.829 50.729 140.867 50.5407 140.908 50.364C140.961 50.1793 141.001 50.0298 141.028 49.9155C141.154 49.463 141.279 49.0157 141.403 48.5736C141.529 48.1211 141.647 47.661 141.755 47.1933C141.774 47.1101 141.798 47.0062 141.827 46.8815C141.855 46.7567 141.88 46.6256 141.901 46.4881C141.922 46.3506 141.923 46.2251 141.906 46.1115C141.901 45.99 141.873 45.8961 141.823 45.8297C141.728 45.7202 141.597 45.6954 141.43 45.7553C141.273 45.8177 141.131 45.8888 141.003 45.9688C140.785 46.1046 140.58 46.2597 140.386 46.434C140.203 46.6107 140.025 46.7885 139.853 46.9676C139.822 47.0044 139.764 47.0675 139.678 47.1571C139.602 47.249 139.558 47.321 139.546 47.3729C139.437 47.7967 139.329 48.2152 139.223 48.6285C139.127 49.0443 139.004 49.4592 138.853 49.8733C138.801 50.0036 138.749 50.1339 138.697 50.2643C138.645 50.3946 138.583 50.5225 138.51 50.648C138.455 50.7447 138.39 50.8391 138.314 50.931C138.25 51.0149 138.168 51.0889 138.065 51.1528C137.953 51.2144 137.829 51.2516 137.695 51.2643C137.56 51.2771 137.429 51.2795 137.299 51.2715ZM151.514 58.3465C151.155 58.3841 150.791 58.3712 150.423 58.308C150.062 58.2576 149.701 58.1852 149.34 58.0909C149.205 58.0597 149.019 58.0113 148.782 57.9457C148.543 57.8905 148.301 57.8237 148.057 57.7454C147.812 57.667 147.581 57.5754 147.365 57.4707C147.158 57.3683 147.013 57.2636 146.928 57.1564C146.862 57.0645 146.815 56.9605 146.787 56.8446C146.769 56.7311 146.758 56.6135 146.753 56.492C146.754 56.2514 146.776 56.0155 146.818 55.7845C146.86 55.5534 146.914 55.3196 146.98 55.0829C146.997 55.0102 147.026 54.9074 147.068 54.7747C147.117 54.6548 147.169 54.5245 147.224 54.3838C147.278 54.2431 147.335 54.114 147.395 53.9964C147.455 53.8789 147.517 53.8002 147.581 53.7602C147.65 53.6995 147.73 53.6579 147.823 53.6355C147.916 53.6131 148.006 53.6011 148.094 53.5996C148.125 53.6068 148.188 53.6212 148.281 53.6427C148.385 53.6667 148.489 53.6907 148.593 53.7147C148.705 53.7515 148.808 53.7807 148.901 53.8023C149.003 53.8367 149.074 53.8587 149.116 53.8683C149.381 53.9515 149.667 53.9955 149.972 54.0003C150.275 54.0155 150.56 53.9664 150.827 53.8529C150.999 53.7721 151.152 53.6542 151.287 53.4991C151.431 53.3464 151.541 53.1801 151.615 53.0003C151.191 52.9898 150.766 52.9574 150.341 52.903C149.915 52.8486 149.497 52.763 149.086 52.6462C148.81 52.5607 148.539 52.4543 148.273 52.3272C148.007 52.2 147.771 52.0361 147.566 51.8354C147.384 51.6731 147.238 51.4752 147.128 51.2417C147.028 51.0107 146.951 50.774 146.898 50.5318C146.819 50.1632 146.796 49.7858 146.831 49.3997C146.867 49.0031 146.917 48.6206 146.981 48.252L146.991 48.2052C147.052 47.7047 147.17 47.2175 147.345 46.7434C147.533 46.2613 147.797 45.8296 148.137 45.4483C148.383 45.1876 148.67 44.9638 148.998 44.7768C149.336 44.5921 149.685 44.481 150.044 44.4435C150.313 44.4179 150.578 44.4299 150.84 44.4795C151.115 44.5211 151.385 44.5835 151.651 44.6667C151.974 44.785 152.283 44.9386 152.579 45.1273C152.875 45.316 153.116 45.5523 153.302 45.8361C153.342 45.7578 153.402 45.6894 153.481 45.631C153.562 45.5623 153.648 45.5219 153.739 45.5099C153.839 45.5004 154 45.5156 154.221 45.5556C154.444 45.5852 154.68 45.6288 154.93 45.6863C155.181 45.7335 155.415 45.7875 155.631 45.8483C155.86 45.9011 156.021 45.9383 156.114 45.9599C156.27 45.9959 156.425 46.0371 156.578 46.0835C156.734 46.1194 156.878 46.1854 157.009 46.2814C157.091 46.3549 157.152 46.4457 157.192 46.5536C157.233 46.6616 157.257 46.7711 157.264 46.8822C157.268 47.1021 157.246 47.3159 157.198 47.5238C157.15 47.7317 157.102 47.9395 157.054 48.1474C157.014 48.3241 156.948 48.6099 156.856 49.0049C156.768 49.3894 156.66 49.8299 156.535 50.3264C156.42 50.8253 156.288 51.3477 156.14 51.8938C156.003 52.4422 155.866 52.9635 155.73 53.4576C155.607 53.9436 155.489 54.3818 155.377 54.7719C155.268 55.1517 155.177 55.4263 155.105 55.5958C154.951 55.9763 154.753 56.3357 154.511 56.6738C154.279 57.0144 154.009 57.3078 153.7 57.554C153.392 57.8002 153.048 57.9837 152.67 58.1044C152.29 58.2355 151.904 58.3162 151.514 58.3465ZM151.084 50.6773C151.171 50.774 151.272 50.8356 151.386 50.862C151.514 50.8804 151.635 50.8756 151.751 50.8476C151.869 50.8093 151.972 50.7453 152.058 50.6558C152.147 50.5558 152.206 50.4435 152.234 50.3188C152.293 50.1133 152.346 49.9067 152.394 49.6988C152.444 49.4805 152.499 49.2687 152.557 49.0632C152.627 48.7618 152.691 48.4592 152.75 48.1554C152.809 47.8516 152.863 47.5466 152.912 47.2404C152.81 47.162 152.688 47.0957 152.548 47.0413C152.409 46.9765 152.276 46.9621 152.147 46.9981C152.052 47.0308 151.96 47.0972 151.871 47.1971C151.785 47.2866 151.7 47.393 151.617 47.5161C151.534 47.6392 151.461 47.7647 151.399 47.8926C151.339 48.0102 151.293 48.1145 151.261 48.2056C151.191 48.3647 151.118 48.5614 151.042 48.7956C150.979 49.0219 150.931 49.2569 150.896 49.5008C150.864 49.7342 150.856 49.9569 150.873 50.1688C150.89 50.3806 150.96 50.5501 151.084 50.6773ZM162.141 60.7999C161.782 60.8374 161.418 60.8246 161.049 60.7614C160.689 60.711 160.328 60.6386 159.967 60.5442C159.831 60.513 159.646 60.4647 159.409 60.3991C159.17 60.3439 158.928 60.2771 158.683 60.1987C158.439 60.1204 158.208 60.0288 157.991 59.924C157.785 59.8217 157.64 59.7169 157.555 59.6098C157.489 59.5178 157.441 59.4139 157.413 59.298C157.396 59.1844 157.385 59.0669 157.38 58.9454C157.381 58.7047 157.402 58.4689 157.445 58.2378C157.487 58.0068 157.541 57.7729 157.607 57.5363C157.624 57.4635 157.653 57.3608 157.694 57.2281C157.744 57.1082 157.796 56.9779 157.85 56.8372C157.905 56.6965 157.962 56.5673 158.022 56.4498C158.082 56.3323 158.144 56.2536 158.208 56.2136C158.276 56.1528 158.357 56.1113 158.45 56.0889C158.543 56.0665 158.633 56.0545 158.721 56.0529C158.752 56.0601 158.815 56.0745 158.908 56.0961C159.012 56.1201 159.116 56.1441 159.22 56.1681C159.332 56.2049 159.435 56.2341 159.528 56.2557C159.63 56.2901 159.701 56.3121 159.743 56.3217C160.008 56.4048 160.294 56.4488 160.599 56.4537C160.902 56.4689 161.187 56.4197 161.454 56.3062C161.626 56.2255 161.779 56.1076 161.913 55.9525C162.058 55.7998 162.168 55.6335 162.242 55.4536C161.818 55.4432 161.393 55.4108 160.967 55.3564C160.542 55.302 160.124 55.2164 159.713 55.0996C159.437 55.014 159.166 54.9077 158.9 54.7805C158.634 54.6534 158.398 54.4895 158.192 54.2888C158.011 54.1265 157.865 53.9286 157.755 53.6951C157.655 53.464 157.578 53.2274 157.524 52.9851C157.445 52.6166 157.423 52.2392 157.457 51.853C157.494 51.4565 157.544 51.0739 157.607 50.7054L157.618 50.6586C157.679 50.1581 157.797 49.6708 157.972 49.1967C158.16 48.7147 158.424 48.283 158.764 47.9016C159.01 47.641 159.297 47.4172 159.625 47.2301C159.963 47.0455 160.312 46.9344 160.671 46.8968C160.939 46.8713 161.205 46.8833 161.467 46.9329C161.742 46.9745 162.012 47.0369 162.278 47.12C162.601 47.2384 162.91 47.3919 163.206 47.5806C163.502 47.7694 163.743 48.0056 163.929 48.2895C163.969 48.2111 164.028 48.1428 164.108 48.0844C164.189 48.0157 164.275 47.9753 164.365 47.9633C164.466 47.9537 164.627 47.9689 164.848 48.0089C165.071 48.0385 165.307 48.0821 165.556 48.1397C165.808 48.1869 166.042 48.2409 166.258 48.3017C166.486 48.3545 166.648 48.3917 166.741 48.4133C166.897 48.4492 167.052 48.4904 167.205 48.5368C167.361 48.5728 167.505 48.6388 167.636 48.7347C167.717 48.8083 167.778 48.8991 167.819 49.007C167.86 49.1149 167.884 49.2245 167.891 49.3356C167.895 49.5555 167.873 49.7693 167.825 49.9772C167.777 50.185 167.729 50.3929 167.681 50.6008C167.64 50.7775 167.574 51.0633 167.483 51.4582C167.394 51.8428 167.287 52.2833 167.162 52.7798C167.046 53.2786 166.915 53.8011 166.767 54.3472C166.629 54.8956 166.493 55.4169 166.357 55.9109C166.233 56.397 166.116 56.8351 166.004 57.2253C165.894 57.605 165.804 57.8797 165.732 58.0491C165.578 58.4297 165.38 58.789 165.138 59.1272C164.906 59.4678 164.636 59.7612 164.327 60.0074C164.018 60.2536 163.675 60.4371 163.297 60.5577C162.916 60.6888 162.531 60.7695 162.141 60.7999ZM161.711 53.1306C161.798 53.2274 161.899 53.289 162.013 53.3154C162.14 53.3338 162.262 53.329 162.378 53.301C162.496 53.2626 162.598 53.1987 162.685 53.1091C162.774 53.0092 162.832 52.8969 162.861 52.7722C162.919 52.5667 162.973 52.36 163.021 52.1522C163.071 51.9339 163.125 51.7221 163.184 51.5166C163.253 51.2152 163.318 50.9126 163.377 50.6088C163.436 50.305 163.49 50 163.539 49.6938C163.437 49.6154 163.315 49.549 163.174 49.4946C163.036 49.4299 162.903 49.4155 162.774 49.4514C162.679 49.4842 162.587 49.5506 162.498 49.6505C162.412 49.74 162.327 49.8463 162.244 49.9695C162.161 50.0926 162.088 50.2181 162.025 50.346C161.965 50.4635 161.92 50.5679 161.888 50.659C161.818 50.8181 161.745 51.0148 161.669 51.249C161.606 51.4753 161.557 51.7103 161.523 51.9542C161.491 52.1876 161.483 52.4103 161.5 52.6221C161.517 52.834 161.587 53.0035 161.711 53.1306ZM176.664 60.0312C176.511 60.1711 176.318 60.2523 176.083 60.2746C175.845 60.3074 175.595 60.299 175.333 60.2494C175.068 60.2102 174.81 60.145 174.557 60.0538C174.302 59.9731 174.081 59.8891 173.893 59.8019C173.783 59.7547 173.676 59.6972 173.571 59.6292C173.475 59.574 173.394 59.4953 173.33 59.3929C173.29 59.329 173.264 59.2298 173.251 59.0955C173.251 58.9532 173.252 58.8057 173.255 58.653C173.26 58.4899 173.267 58.3384 173.278 58.1985C173.301 58.0506 173.317 57.9338 173.326 57.8483C173.073 58.0417 172.807 58.2212 172.528 58.3867C172.262 58.5442 171.977 58.6644 171.673 58.7476C171.405 58.8171 171.105 58.8355 170.774 58.8027C170.442 58.7698 170.12 58.6955 169.807 58.5795C169.494 58.4635 169.206 58.3148 168.941 58.1333C168.677 57.9518 168.474 57.7407 168.332 57.5C168.143 57.1826 168.03 56.8392 167.995 56.4698C167.962 56.0901 167.961 55.7175 167.99 55.3521C168.023 54.878 168.081 54.4151 168.163 53.9634C168.248 53.5013 168.328 53.038 168.402 52.5735C168.46 52.1818 168.574 51.8032 168.746 51.4379C168.918 51.0725 169.141 50.7463 169.416 50.4593C169.723 50.1252 170.075 49.8562 170.472 49.6523C170.882 49.4405 171.312 49.3098 171.761 49.2603C172.089 49.2156 172.417 49.22 172.744 49.2736C173.073 49.3168 173.385 49.4108 173.68 49.5555C173.978 49.6898 174.249 49.8674 174.493 50.088C174.748 50.3111 174.966 50.553 175.147 50.8137C175.192 50.7585 175.242 50.7097 175.296 50.6674C175.351 50.6146 175.415 50.5746 175.487 50.5475C175.608 50.4987 175.793 50.4811 176.041 50.4947C176.293 50.498 176.556 50.5204 176.831 50.562C177.108 50.5932 177.371 50.6376 177.621 50.6952C177.873 50.7424 178.066 50.7815 178.201 50.8127C178.282 50.8423 178.398 50.8855 178.549 50.9423C178.703 50.9887 178.799 51.0439 178.839 51.1078C178.863 51.1462 178.876 51.2094 178.878 51.2973C178.892 51.3773 178.894 51.4652 178.882 51.5611C178.884 51.6491 178.879 51.741 178.868 51.837C178.87 51.9249 178.866 51.9897 178.856 52.0312C178.843 52.1815 178.805 52.419 178.741 52.7436C178.677 53.0682 178.597 53.4383 178.501 53.8541C178.418 54.2618 178.322 54.6995 178.214 55.1672C178.109 55.6245 178.008 56.061 177.912 56.4768C177.818 56.8821 177.729 57.2447 177.644 57.5645C177.57 57.8867 177.511 58.1193 177.467 58.2624C177.382 58.5822 177.287 58.8996 177.181 59.2146C177.076 59.5296 176.903 59.8018 176.664 60.0312ZM172.311 56.2676C172.42 56.4131 172.563 56.4791 172.742 56.4655C172.93 56.4543 173.096 56.3996 173.239 56.3012C173.359 56.2085 173.463 56.0902 173.551 55.9463C173.65 55.8048 173.71 55.6601 173.734 55.5122C173.85 54.9589 173.971 54.4121 174.096 53.8716C174.231 53.3336 174.387 52.8003 174.564 52.2719C174.469 52.1623 174.34 52.078 174.179 52.0188C174.03 51.9516 173.885 51.94 173.744 51.984C173.512 52.0399 173.305 52.1782 173.122 52.3989C172.95 52.6219 172.798 52.8769 172.667 53.164C172.545 53.4534 172.443 53.7528 172.361 54.0622C172.278 54.3716 172.221 54.643 172.189 54.8764C172.179 55.0163 172.164 55.1499 172.146 55.277C172.138 55.4065 172.135 55.5372 172.137 55.6691C172.145 55.7803 172.158 55.8874 172.178 55.9905C172.198 56.0937 172.243 56.186 172.311 56.2676ZM40.9995 48.5223C40.4518 48.5711 39.8986 48.5254 39.3397 48.3855C38.7889 48.2583 38.278 48.0528 37.8072 47.7689C37.4618 47.5578 37.1248 47.3103 36.7963 47.0265C36.4781 46.745 36.2303 46.4196 36.0528 46.0502C35.8858 45.6832 35.7727 45.2959 35.7135 44.8881C35.6544 44.4804 35.6289 44.0694 35.6369 43.6553C35.6634 42.4025 35.8118 41.1669 36.0822 39.9484C36.3629 38.7324 36.6996 37.5348 37.0923 36.3556C37.0995 36.3244 37.1103 36.2776 37.1247 36.2153C37.1495 36.1553 37.1703 36.089 37.1871 36.0162C37.2142 35.9458 37.2402 35.8807 37.265 35.8207C37.2898 35.7608 37.311 35.7164 37.3286 35.6876C37.3742 35.6325 37.4369 35.5977 37.5169 35.5833C37.6072 35.5713 37.7004 35.5709 37.7963 35.5821C37.8947 35.5829 37.9906 35.5941 38.0841 35.6157C38.1905 35.6293 38.2748 35.6433 38.3372 35.6577C38.641 35.7169 38.932 35.7841 39.2102 35.8593C39.5012 35.9265 39.795 36.0053 40.0916 36.0956C40.1228 36.1028 40.1736 36.12 40.2439 36.1472C40.3143 36.1744 40.3834 36.2068 40.4514 36.2444C40.5321 36.274 40.6065 36.3075 40.6744 36.3451C40.7448 36.3723 40.7944 36.3947 40.8231 36.4123C40.9207 36.5114 40.9546 36.6725 40.925 36.8956C40.8954 37.1187 40.8598 37.2965 40.8183 37.4293C40.6055 38.2559 40.372 39.0778 40.1177 39.8949C39.8761 40.7039 39.6854 41.5302 39.5454 42.3737C39.5078 42.5839 39.4858 42.7978 39.4794 43.0152C39.4729 43.2327 39.5013 43.4418 39.5644 43.6425C39.6444 43.9127 39.7891 44.1158 39.9985 44.2517C40.1008 44.3301 40.2168 44.3733 40.3463 44.3813C40.4862 44.3917 40.6193 44.3841 40.7456 44.3585C40.9103 44.309 41.0591 44.2338 41.1918 44.1331C41.3245 44.0324 41.444 43.9177 41.5504 43.789C41.7151 43.5971 41.8419 43.38 41.9306 43.1378C42.0298 42.898 42.1185 42.6557 42.1969 42.4111C42.3801 41.8075 42.532 41.1967 42.6528 40.5787C42.784 39.9631 42.8944 39.3427 42.984 38.7175C42.9904 38.6423 43 38.5296 43.0128 38.3793C43.0384 38.221 43.064 38.0627 43.0896 37.9044C43.1152 37.7461 43.1488 37.6006 43.1904 37.4679C43.2344 37.3248 43.2843 37.2268 43.3403 37.1741C43.3963 37.1213 43.4758 37.0849 43.579 37.0649C43.6925 37.0474 43.8088 37.0414 43.9279 37.047C44.0599 37.0446 44.183 37.0566 44.2973 37.083C44.4244 37.1014 44.5296 37.1202 44.6127 37.1394C44.6751 37.1538 44.7946 37.1814 44.9713 37.2222C45.148 37.263 45.3338 37.3114 45.5289 37.3673C45.7368 37.4153 45.9291 37.4597 46.1057 37.5005C46.2928 37.5437 46.4123 37.5713 46.4643 37.5833C46.6098 37.6169 46.7145 37.6849 46.7785 37.7872C46.8424 37.8895 46.8704 38.0055 46.8624 38.135C46.8648 38.2669 46.858 38.3912 46.842 38.508C46.6748 39.5641 46.4608 40.6094 46.2001 41.6439C45.9498 42.6809 45.6267 43.701 45.2308 44.7043C44.9933 45.3063 44.675 45.8787 44.276 46.4216C43.8794 46.954 43.4181 47.4113 42.892 47.7934C42.6161 47.9924 42.3151 48.1583 41.9889 48.291C41.6627 48.4237 41.3329 48.5008 40.9995 48.5223ZM48.5973 50.2929C48.4494 50.2697 48.2559 50.2305 48.0169 50.1753C47.7858 50.1329 47.5492 50.0673 47.307 49.9785C47.0727 49.9026 46.8525 49.8134 46.6462 49.711C46.4399 49.6087 46.2956 49.4987 46.2133 49.3812C46.1733 49.3172 46.147 49.2181 46.1342 49.0838C46.1238 48.9391 46.1198 48.7904 46.1222 48.6377C46.135 48.4874 46.1466 48.3423 46.157 48.2023C46.1802 48.0544 46.1962 47.9377 46.205 47.8522C46.2683 47.3413 46.3471 46.834 46.4414 46.3303C46.5358 45.8267 46.6458 45.3266 46.7714 44.8301C46.9185 44.2401 47.0645 43.6553 47.2093 43.0756C47.3668 42.488 47.5711 41.9112 47.8222 41.3452C47.8694 41.2357 47.923 41.1221 47.983 41.0046C48.0533 40.8895 48.1449 40.8012 48.2576 40.7396C48.3704 40.6781 48.4915 40.6513 48.621 40.6593C48.7505 40.6673 48.8749 40.6741 48.994 40.6797C49.4081 40.6877 49.8255 40.7294 50.246 40.8045C50.6793 40.8717 51.0926 40.9781 51.486 41.1237C51.6451 41.1932 51.7298 41.3004 51.7402 41.4451C51.7913 41.84 51.7649 42.239 51.6609 42.6419C51.5594 43.0345 51.4682 43.4294 51.3874 43.8268C51.8511 43.4303 52.3453 43.0681 52.8698 42.7404C53.0848 42.6149 53.3015 42.5062 53.5198 42.4143C53.7509 42.3143 53.9879 42.2596 54.231 42.25C54.562 42.2389 54.8885 42.2705 55.2107 42.3449C55.5457 42.4112 55.8619 42.5116 56.1593 42.646C56.3888 42.7427 56.6122 42.8655 56.8297 43.0142C57.0495 43.1525 57.2286 43.3252 57.3669 43.5323C57.4756 43.6778 57.5483 43.8369 57.5851 44.0096C57.6323 44.1847 57.6574 44.3602 57.6606 44.5361C57.6734 44.9551 57.6369 45.3736 57.5513 45.7917C57.4658 46.2098 57.371 46.6204 57.267 47.0233C57.1606 47.4367 57.0491 47.8488 56.9323 48.2597C56.8283 48.6627 56.7128 49.0684 56.5856 49.4769C56.4976 49.7631 56.4045 50.0482 56.3061 50.332C56.2205 50.6078 56.1142 50.8788 55.987 51.145C55.9518 51.2026 55.9167 51.2601 55.8815 51.3177C55.8567 51.3777 55.8279 51.4312 55.7951 51.4784C55.7319 51.5623 55.6372 51.6171 55.5109 51.6427C55.3973 51.6602 55.2706 51.6638 55.1307 51.6534C55.0012 51.6454 54.8637 51.6246 54.7182 51.591C54.5831 51.5598 54.4635 51.5322 54.3596 51.5082C54.035 51.4443 53.708 51.3907 53.3786 51.3475C53.0596 51.3067 52.745 51.2231 52.4348 51.0967C52.3853 51.0743 52.3317 51.0455 52.2742 51.0104C52.2246 50.988 52.1838 50.9512 52.1518 50.9C52.0855 50.8081 52.0507 50.6742 52.0475 50.4983C52.0548 50.3248 52.0696 50.1421 52.092 49.9502C52.1272 49.7503 52.1652 49.5621 52.206 49.3854C52.2595 49.2007 52.2995 49.0512 52.3259 48.9369C52.4523 48.4844 52.5774 48.037 52.7014 47.5949C52.8278 47.1424 52.9449 46.6823 53.0529 46.2146C53.0721 46.1315 53.0961 46.0276 53.1249 45.9028C53.1537 45.7781 53.1785 45.647 53.1993 45.5095C53.2201 45.372 53.2217 45.2465 53.2041 45.1329C53.1993 45.0114 53.1718 44.9175 53.1214 44.8511C53.0263 44.7415 52.8952 44.7168 52.7281 44.7767C52.5714 44.839 52.429 44.9102 52.3011 44.9901C52.0836 45.126 51.8781 45.2811 51.6846 45.4554C51.5015 45.632 51.3236 45.8099 51.1509 45.989C51.1205 46.0258 51.0622 46.0889 50.9758 46.1785C50.8999 46.2704 50.8559 46.3423 50.8439 46.3943C50.7351 46.818 50.6275 47.2366 50.5212 47.6499C50.4252 48.0656 50.302 48.4806 50.1517 48.8947C50.0997 49.025 50.0477 49.1553 49.9957 49.2856C49.9438 49.4159 49.8814 49.5439 49.8086 49.6694C49.7534 49.7661 49.6879 49.8604 49.6119 49.9524C49.5488 50.0363 49.466 50.1103 49.3637 50.1742C49.2509 50.2358 49.1274 50.2729 48.9931 50.2857C48.8588 50.2985 48.7268 50.3009 48.5973 50.2929ZM61.8926 43.8546C61.524 43.7914 61.1691 43.6931 60.8277 43.5595C60.7182 43.5123 60.6035 43.464 60.4835 43.4144C60.374 43.3672 60.2809 43.2964 60.2041 43.2021C60.133 43.1309 60.081 43.0478 60.0483 42.9526C60.0283 42.8495 60.0123 42.7528 60.0003 42.6624C59.9907 42.5617 59.9883 42.4298 59.9931 42.2667C60.0084 42.106 60.0352 41.9425 60.0735 41.7762C60.1119 41.6099 60.1583 41.4564 60.2127 41.3157C60.2695 41.1646 60.3335 41.0534 60.4046 40.9823C60.4094 40.9615 60.4118 40.9511 60.4118 40.9511C60.4246 40.9431 60.4334 40.9287 60.4382 40.9079C60.539 40.7561 60.6729 40.6501 60.84 40.5902C60.9607 40.5414 61.0818 40.5147 61.2034 40.5099C61.3377 40.4971 61.4708 40.4895 61.6027 40.4871C61.8873 40.4871 62.1688 40.5247 62.447 40.5999C62.738 40.6671 63.019 40.7539 63.29 40.8602C63.3892 40.905 63.4871 40.955 63.5838 41.0102C63.6806 41.0654 63.7621 41.1389 63.8284 41.2309C63.9404 41.41 63.9931 41.6082 63.9867 41.8257C63.9827 42.0328 63.9683 42.2374 63.9435 42.4397C63.9235 42.6212 63.8879 42.7991 63.8367 42.9734C63.7983 43.1397 63.7247 43.2924 63.616 43.4315C63.5352 43.5442 63.4257 43.6393 63.2874 43.7169C63.1514 43.784 63.0127 43.8396 62.8712 43.8835C62.7089 43.9227 62.5474 43.9347 62.3867 43.9194C62.226 43.9042 62.0613 43.8826 61.8926 43.8546ZM60.0017 53.0407C59.8019 53.0055 59.6044 52.9599 59.4093 52.904C59.2246 52.8504 59.036 52.7904 58.8433 52.724C58.7809 52.7096 58.695 52.6788 58.5855 52.6316C58.4839 52.5973 58.3796 52.5513 58.2725 52.4937C58.1629 52.4465 58.0598 52.3953 57.9631 52.3402C57.8767 52.2874 57.8188 52.2302 57.7892 52.1687C57.7468 52.1151 57.7181 52.0263 57.7029 51.9024C57.6981 51.7809 57.6957 51.649 57.6957 51.5067C57.7061 51.3668 57.7153 51.232 57.7233 51.1025C57.7417 50.9754 57.7581 50.8807 57.7725 50.8183C57.8309 50.3282 57.9049 49.8417 57.9945 49.3588C58.0841 48.8759 58.1905 48.3915 58.3137 47.9054C58.4248 47.4713 58.54 47.0435 58.6592 46.6222C58.7911 46.1929 58.9531 45.776 59.145 45.3714C59.1922 45.2619 59.2485 45.16 59.3141 45.0656C59.3797 44.9713 59.4612 44.9026 59.5588 44.8594C59.6075 44.8378 59.6823 44.8222 59.783 44.8126C59.8942 44.8055 60.0093 44.8047 60.1284 44.8103C60.2603 44.8079 60.3795 44.8135 60.4858 44.8271C60.5945 44.8303 60.6761 44.8327 60.7304 44.8343C60.9895 44.8503 61.2489 44.8883 61.5087 44.9483C61.7686 45.0083 62.0272 45.0735 62.2846 45.1439C62.3262 45.1535 62.3822 45.1719 62.4525 45.1991C62.5253 45.2159 62.5968 45.2378 62.6672 45.265C62.7479 45.2946 62.8171 45.327 62.8747 45.3622C62.9426 45.3998 62.9886 45.4378 63.0126 45.4761C63.0341 45.5249 63.0445 45.5985 63.0437 45.6968C63.0557 45.7871 63.0601 45.8867 63.0569 45.9954C63.0537 46.1041 63.0453 46.2117 63.0317 46.318C63.0205 46.414 63.0089 46.4879 62.9969 46.5399C62.9825 46.6022 62.9501 46.7425 62.8997 46.9608C62.8621 47.1711 62.8157 47.3957 62.7605 47.6348C62.7157 47.8762 62.6693 48.1009 62.6213 48.3087C62.5837 48.519 62.5565 48.6605 62.5397 48.7333C62.4518 49.1618 62.3534 49.5879 62.2446 50.0116C62.1486 50.4274 62.0411 50.8459 61.9219 51.2672C61.8563 51.5039 61.7803 51.7381 61.694 51.97C61.6076 52.2018 61.4977 52.4173 61.3641 52.6163C61.3137 52.6923 61.2518 52.771 61.1782 52.8526C61.1071 52.9237 61.0239 52.9757 60.9288 53.0084C60.7848 53.0628 60.6313 53.0876 60.4682 53.0827C60.3051 53.0779 60.1496 53.0639 60.0017 53.0407ZM67.5557 54.5712C67.1791 54.4952 66.7986 54.4128 66.414 54.3241C66.0295 54.2353 65.6673 54.0969 65.3275 53.909C65.1317 53.8091 64.9686 53.6619 64.8383 53.4677C64.7208 53.2654 64.6316 53.0587 64.5709 52.8476C64.471 52.4742 64.4035 52.1029 64.3683 51.7335C64.3436 51.3665 64.3212 50.9892 64.3013 50.6014C64.2734 49.9162 64.2674 49.2306 64.2835 48.5447C64.2995 47.8587 64.3272 47.1699 64.3664 46.4784C64.368 46.424 64.3688 46.3257 64.3689 46.1834C64.3817 46.0331 64.3917 45.8712 64.3989 45.6977C64.4061 45.5242 64.4161 45.3623 64.4289 45.212C64.4417 45.0617 64.4541 44.9605 64.4661 44.9086C64.4973 44.7735 64.5613 44.6623 64.658 44.5752C64.7116 44.5328 64.7732 44.5032 64.8427 44.4865C64.9147 44.4593 64.9894 44.4437 65.067 44.4397C65.1445 44.4357 65.2781 44.4501 65.4675 44.4829C65.6674 44.5181 65.8713 44.5597 66.0791 44.6077C66.287 44.6557 66.4845 44.7013 66.6716 44.7445C66.8586 44.7877 66.9937 44.8189 67.0769 44.8381C67.16 44.8573 67.2692 44.8824 67.4043 44.9136C67.5418 44.9344 67.6769 44.9656 67.8096 45.0072C67.9527 45.0512 68.083 45.1032 68.2006 45.1632C68.3205 45.2127 68.3992 45.2747 68.4368 45.3491C68.4768 45.413 68.4915 45.515 68.4811 45.6549C68.4811 45.7972 68.4683 45.9475 68.4427 46.1058C68.4299 46.2561 68.4119 46.4052 68.3887 46.5531C68.3679 46.6906 68.3491 46.7958 68.3323 46.8685C68.3139 46.9956 68.2755 47.2331 68.2171 47.5809C68.1611 47.9182 68.1043 48.2828 68.0467 48.6746C67.9915 49.0559 67.9411 49.4165 67.8955 49.7563C67.8499 50.096 67.8231 50.3307 67.8151 50.4602C67.8135 50.5146 67.8135 50.5857 67.8151 50.6737C67.8191 50.7512 67.8446 50.8064 67.8918 50.8392C67.9286 50.8696 67.9582 50.86 67.9806 50.8104C68.0157 50.7528 68.0497 50.7005 68.0825 50.6533C68.2456 50.3735 68.3736 50.0801 68.4664 49.7731C68.5591 49.4661 68.6611 49.1667 68.7723 48.8749C68.8066 48.7734 68.8742 48.5755 68.975 48.2813C69.0861 47.9895 69.2021 47.6769 69.3229 47.3435C69.4436 47.0101 69.5596 46.6975 69.6707 46.4057C69.7843 46.1035 69.8634 45.9029 69.9082 45.8037C69.9506 45.715 70.0142 45.653 70.0989 45.6179C70.1941 45.5851 70.296 45.5703 70.4047 45.5735C70.5239 45.5791 70.6394 45.6003 70.7513 45.6371C70.876 45.6659 70.9904 45.6923 71.0943 45.7163C71.4117 45.8115 71.7339 45.8858 72.0609 45.9394C72.3903 45.9826 72.7073 46.0558 73.0119 46.159C73.1238 46.1958 73.2321 46.2482 73.3368 46.3161C73.4544 46.3761 73.5451 46.4573 73.609 46.5596C73.665 46.6491 73.6914 46.7483 73.6882 46.857C73.685 46.9657 73.6674 47.0657 73.6354 47.1568C73.4163 47.774 73.1672 48.3788 72.8881 48.9712C72.6218 49.5556 72.3347 50.1352 72.0268 50.7101C71.739 51.2457 71.4407 51.7789 71.1321 52.3098C70.8258 52.8302 70.4816 53.3255 70.0994 53.7955C69.9474 53.9794 69.7771 54.1481 69.5884 54.3016C69.3997 54.4551 69.1911 54.5766 68.9624 54.6661C68.7441 54.758 68.5103 54.7752 68.2608 54.7176C68.0218 54.6624 67.7867 54.6136 67.5557 54.5712ZM78.7262 57.0352C78.1426 56.9552 77.5573 56.8584 76.9705 56.7448C76.3837 56.6312 75.8241 56.4473 75.2916 56.193C74.9575 56.0283 74.6433 55.8244 74.3491 55.5813C74.0677 55.3302 73.8207 55.0488 73.608 54.7369C73.4034 54.4379 73.2847 54.0985 73.2519 53.7188C73.2296 53.3414 73.2332 52.97 73.2628 52.6046C73.3725 51.5133 73.6456 50.4488 74.0822 49.4111C74.2613 49.0146 74.4992 48.648 74.7959 48.3115C75.1053 47.9669 75.4535 47.6915 75.8405 47.4853C76.1659 47.3086 76.5209 47.1935 76.9055 47.14C77.3028 47.0785 77.6882 47.0689 78.0616 47.1113C78.6452 47.1913 79.2204 47.3077 79.7872 47.4605C80.3541 47.6132 80.9013 47.8272 81.429 48.1022C81.6376 48.1942 81.8355 48.3329 82.0225 48.5184C82.1544 48.6584 82.2596 48.8195 82.3379 49.0018C82.4266 49.1864 82.487 49.3755 82.5189 49.569C82.5741 49.8992 82.5672 50.237 82.4985 50.5824C82.4401 50.9302 82.3517 51.2655 82.2333 51.5885C82.1645 51.7916 82.0762 51.9847 81.9682 52.1677C81.8707 52.3532 81.7495 52.5223 81.6048 52.675C81.3937 52.878 81.1723 53.0075 80.9404 53.0635C80.7085 53.1194 80.4575 53.1162 80.1873 53.0538C79.7196 52.9458 79.2571 52.8391 78.7998 52.7335C78.3449 52.6175 77.896 52.4756 77.453 52.3076C77.3499 52.4699 77.2927 52.6702 77.2815 52.9084C77.2831 53.1387 77.3498 53.3238 77.4817 53.4637C77.5609 53.5477 77.6564 53.608 77.7683 53.6448C77.8802 53.6816 77.9922 53.7184 78.1041 53.7552C78.3487 53.8336 78.5946 53.9067 78.8416 53.9747C79.0991 54.0451 79.3601 54.0999 79.6247 54.1391C79.6871 54.1535 79.7766 54.1687 79.8933 54.1847C80.0229 54.1927 80.1552 54.2123 80.2903 54.2435C80.4278 54.2643 80.5525 54.2931 80.6644 54.3299C80.7892 54.3587 80.8739 54.3946 80.9187 54.4378C80.9738 54.4834 81.0086 54.5462 81.023 54.6261C81.0502 54.6981 81.0658 54.7728 81.0697 54.8504C81.0705 54.8944 81.0681 54.9759 81.0625 55.095C81.0569 55.2142 81.0489 55.3437 81.0385 55.4836C81.0281 55.6235 81.0201 55.753 81.0145 55.8721C81.0089 55.9913 81.0065 56.0728 81.0073 56.1168C80.9945 56.2671 80.9677 56.4306 80.9269 56.6073C80.8989 56.776 80.8237 56.9119 80.7014 57.015C80.6094 57.0813 80.4743 57.1213 80.296 57.1349C80.1281 57.1509 79.9458 57.158 79.7492 57.1564C79.5549 57.1444 79.3618 57.1272 79.1699 57.1048C78.9804 57.072 78.8325 57.0488 78.7262 57.0352ZM77.8789 50.534C77.9285 50.5564 78.0352 50.592 78.1991 50.6407C78.3734 50.6919 78.4865 50.7235 78.5385 50.7355C78.6888 50.7483 78.8315 50.6992 78.9667 50.588C79.1018 50.4769 79.1758 50.3462 79.1886 50.1959C79.1926 50.1312 79.1734 50.072 79.131 50.0184C79.0886 49.9648 79.0439 49.9217 78.9967 49.8889C78.8896 49.8313 78.7673 49.7921 78.6297 49.7713C78.5026 49.7529 78.3795 49.7409 78.2604 49.7353C78.1932 49.7417 78.1369 49.7725 78.0913 49.8276C78.0561 49.8852 78.0225 49.9595 77.9905 50.0507C77.9713 50.1338 77.9509 50.2222 77.9293 50.3157C77.9205 50.4013 77.9037 50.474 77.8789 50.534ZM84.8817 58.6534C84.5731 58.615 84.2757 58.5518 83.9895 58.4638C83.7033 58.3758 83.4195 58.2775 83.138 58.1687C83.0077 58.1167 82.8746 58.0531 82.7387 57.978C82.6108 57.9156 82.5185 57.8177 82.4617 57.6841C82.4217 57.6202 82.4018 57.517 82.4018 57.3747C82.4018 57.2324 82.4042 57.0797 82.409 56.9166C82.4242 56.7559 82.437 56.6056 82.4474 56.4657C82.4706 56.3178 82.4866 56.2011 82.4954 56.1155C82.5538 55.6254 82.6278 55.1389 82.7174 54.656C82.8174 54.1756 82.9238 53.6911 83.0366 53.2026C83.1733 52.6102 83.3205 52.0202 83.4781 51.4325C83.6356 50.8449 83.8296 50.2657 84.0599 49.6949C84.1142 49.5542 84.175 49.4095 84.2422 49.2608C84.3198 49.1145 84.4277 49.0025 84.566 48.925C84.6044 48.901 84.6688 48.883 84.7591 48.8711C84.8495 48.8591 84.9438 48.8535 85.0421 48.8543C85.1533 48.8471 85.2528 48.8427 85.3407 48.8411C85.4391 48.8419 85.5102 48.8419 85.5542 48.8411C85.9348 48.8524 86.3069 48.9 86.6707 48.984C87.0369 49.0576 87.397 49.1571 87.7512 49.2827C87.8815 49.3347 87.9746 49.4054 88.0306 49.495C88.0738 49.5925 88.0893 49.7384 88.0773 49.9327C88.0653 50.127 88.0405 50.3293 88.0029 50.5395C87.9653 50.7498 87.9237 50.9537 87.8781 51.1511C87.8429 51.351 87.8134 51.5029 87.7894 51.6068C87.8861 51.5197 87.9817 51.4378 88.076 51.361C88.1831 51.2763 88.2891 51.1967 88.3938 51.1224C88.7744 50.849 89.2002 50.6408 89.6711 50.4977C90.1524 50.357 90.6289 50.3083 91.1006 50.3515C91.1654 50.3555 91.2445 50.3683 91.3381 50.3899C91.4444 50.4035 91.5431 50.4263 91.6343 50.4583C91.7382 50.4823 91.8293 50.5143 91.9077 50.5543C91.9964 50.5967 92.0556 50.6486 92.0852 50.7102C92.1227 50.7846 92.1363 50.8917 92.1259 51.0316C92.1259 51.1739 92.1079 51.323 92.0719 51.4789C92.0463 51.6372 92.0167 51.7891 91.9831 51.9346C91.9495 52.0801 91.9243 52.1893 91.9075 52.262C91.8883 52.3452 91.8607 52.4647 91.8247 52.6206C91.8015 52.7685 91.7707 52.9256 91.7324 53.0919C91.6964 53.2478 91.6512 53.3961 91.5968 53.5368C91.5528 53.6799 91.5028 53.7778 91.4469 53.8306C91.3909 53.8833 91.3229 53.9169 91.243 53.9313C91.1734 53.9481 91.1011 53.9533 91.0259 53.9469C90.9739 53.9349 90.87 53.9109 90.7141 53.8749C90.5582 53.8389 90.3931 53.7953 90.2188 53.7441C90.0446 53.6929 89.8795 53.6494 89.7236 53.6134C89.5677 53.5774 89.4637 53.5534 89.4118 53.5414C89.2327 53.511 89.05 53.4962 88.8637 53.497C88.6878 53.5001 88.5151 53.5369 88.3456 53.6072C88.2121 53.664 88.0946 53.7463 87.993 53.8542C87.9019 53.9646 87.8107 54.0749 87.7196 54.1852C87.4837 54.4482 87.299 54.7504 87.1654 55.0918C87.0319 55.4332 86.8995 55.7693 86.7684 56.1003L86.7612 56.1315C86.6932 56.3785 86.6252 56.6256 86.5572 56.8726C86.4893 57.1197 86.4005 57.3619 86.2909 57.5993C86.219 57.7688 86.1366 57.9359 86.0438 58.1006C85.9511 58.2653 85.8279 58.3956 85.6744 58.4915C85.5697 58.5659 85.4438 58.6134 85.2967 58.6342C85.1599 58.6574 85.0216 58.6638 84.8817 58.6534ZM94.9722 61.0322C94.7803 61.0098 94.5169 60.9654 94.1819 60.899C93.8445 60.843 93.4952 60.7678 93.1338 60.6734C92.7828 60.5815 92.4522 60.4723 92.142 60.346C91.8294 60.23 91.606 60.1073 91.4717 59.9777C91.4293 59.9242 91.3882 59.8654 91.3482 59.8014C91.3082 59.7375 91.285 59.6719 91.2786 59.6047C91.2699 59.548 91.2663 59.4924 91.2679 59.438C91.2719 59.3733 91.2695 59.3125 91.2607 59.2558C91.2711 58.9735 91.2971 58.6949 91.3387 58.4199C91.3907 58.1473 91.4687 57.8806 91.5727 57.62C91.6198 57.5105 91.671 57.4073 91.7262 57.3106C91.7942 57.2059 91.8821 57.1331 91.99 57.0924C92.0724 57.0676 92.1863 57.072 92.3318 57.1056C92.4877 57.1416 92.6476 57.184 92.8115 57.2328C92.9754 57.2815 93.1329 57.3343 93.284 57.3911C93.4351 57.4479 93.5522 57.4859 93.6354 57.5051C93.7969 57.5642 93.9556 57.6118 94.1115 57.6478C94.2674 57.6838 94.4309 57.7106 94.6019 57.7282C94.6691 57.7218 94.7415 57.7166 94.819 57.7127C94.907 57.7111 94.9593 57.6739 94.9761 57.6011C95.0001 57.4972 94.9566 57.3777 94.8454 57.2425C94.7447 57.1098 94.6588 57.0079 94.5876 56.9367C94.2743 56.6345 93.9533 56.3414 93.6247 56.0576C93.2985 55.7633 93.012 55.4399 92.7649 55.0873C92.677 54.9466 92.6031 54.7927 92.5431 54.6256C92.4832 54.4585 92.4452 54.291 92.4292 54.1231C92.4021 53.7665 92.4489 53.4215 92.5697 53.0881C92.7032 52.7468 92.8879 52.4446 93.1238 52.1815C93.3725 51.9105 93.6571 51.6971 93.9777 51.5412C94.3007 51.375 94.6433 51.2898 95.0055 51.2859C95.1038 51.2867 95.2801 51.3055 95.5344 51.3423C95.7886 51.3791 96.0572 51.4247 96.3403 51.4791C96.6257 51.5231 96.8943 51.5687 97.1461 51.6159C97.4084 51.6655 97.5863 51.7011 97.6798 51.7227C97.7837 51.7467 97.9188 51.7779 98.0851 51.8162C98.2514 51.8546 98.4153 51.9034 98.5768 51.9626C98.7383 52.0218 98.8806 52.0929 99.0037 52.1761C99.1396 52.2513 99.228 52.3428 99.2687 52.4508C99.3231 52.5947 99.3375 52.7458 99.3119 52.9041C99.2863 53.0624 99.2567 53.2143 99.2231 53.3598C99.1471 53.594 99.0619 53.8207 98.9676 54.0397C98.8756 54.2484 98.7772 54.4611 98.6725 54.6777C98.6277 54.7768 98.5745 54.8412 98.513 54.8708C98.4362 54.9187 98.3527 54.9487 98.2623 54.9607C98.1744 54.9623 98.0864 54.9639 97.9985 54.9655C97.8378 54.9503 97.6743 54.9235 97.508 54.8851C97.3545 54.8387 97.1998 54.7975 97.0439 54.7615C96.9632 54.7319 96.8436 54.7043 96.6853 54.6787C96.527 54.6531 96.4147 54.6655 96.3483 54.7159C96.3052 54.7606 96.2972 54.819 96.3243 54.891C96.3539 54.9525 96.3847 55.0089 96.4167 55.0601C96.4462 55.1216 96.5258 55.2276 96.6553 55.3779C96.7872 55.5178 96.9271 55.6705 97.075 55.836C97.2229 56.0015 97.3616 56.1595 97.4911 56.3098C97.623 56.4497 97.7101 56.5465 97.7525 56.6C97.8852 56.7839 98.0051 56.9758 98.1122 57.1757C98.2297 57.378 98.3176 57.5899 98.376 57.8113C98.4119 57.94 98.4351 58.0768 98.4455 58.2215C98.4559 58.3662 98.4455 58.5061 98.4143 58.6412C98.3335 58.8962 98.2371 59.1477 98.1252 59.3955C98.026 59.6354 97.8929 59.8564 97.7258 60.0587C97.5539 60.2817 97.3452 60.4744 97.0997 60.6366C96.8543 60.7989 96.5912 60.9188 96.3106 60.9963C96.0995 61.0571 95.88 61.083 95.6522 61.0742C95.4219 61.0758 95.1953 61.0618 94.9722 61.0322ZM103.349 53.4256C102.98 53.3624 102.625 53.264 102.284 53.1305C102.175 53.0833 102.06 53.0349 101.94 52.9854C101.83 52.9382 101.737 52.8674 101.661 52.7731C101.589 52.7019 101.537 52.6187 101.505 52.5236C101.485 52.4205 101.469 52.3237 101.457 52.2334C101.447 52.1326 101.445 52.0007 101.45 51.8376C101.465 51.6769 101.492 51.5134 101.53 51.3471C101.568 51.1808 101.615 51.0273 101.669 50.8866C101.726 50.7355 101.79 50.6244 101.861 50.5533C101.866 50.5325 101.868 50.5221 101.868 50.5221C101.881 50.5141 101.89 50.4997 101.895 50.4789C101.995 50.327 102.129 50.2211 102.296 50.1611C102.417 50.1124 102.538 50.0856 102.66 50.0808C102.794 50.0681 102.927 50.0605 103.059 50.0581C103.344 50.0581 103.625 50.0957 103.903 50.1709C104.194 50.2381 104.475 50.3249 104.746 50.4312C104.846 50.476 104.943 50.526 105.04 50.5811C105.137 50.6363 105.219 50.7099 105.285 50.8018C105.397 50.9809 105.45 51.1792 105.443 51.3967C105.439 51.6037 105.425 51.8084 105.4 52.0107C105.38 52.1922 105.344 52.3701 105.293 52.5443C105.255 52.7106 105.181 52.8633 105.072 53.0024C104.992 53.1152 104.882 53.2103 104.744 53.2878C104.608 53.355 104.469 53.4105 104.328 53.4545C104.165 53.4936 104.004 53.5056 103.843 53.4904C103.682 53.4752 103.518 53.4536 103.349 53.4256ZM101.458 62.6117C101.258 62.5765 101.061 62.5309 100.866 62.4749C100.681 62.4213 100.492 62.3614 100.3 62.295C100.237 62.2806 100.151 62.2498 100.042 62.2026C99.9403 62.1682 99.836 62.1222 99.7289 62.0647C99.6193 62.0175 99.5162 61.9663 99.4195 61.9111C99.3331 61.8584 99.2752 61.8012 99.2456 61.7396C99.2032 61.6861 99.1745 61.5973 99.1593 61.4734C99.1545 61.3519 99.1521 61.2199 99.1521 61.0776C99.1625 60.9377 99.1717 60.803 99.1797 60.6735C99.1981 60.5464 99.2145 60.4516 99.2289 60.3893C99.2873 59.8992 99.3613 59.4127 99.4509 58.9298C99.5405 58.4469 99.6469 57.9624 99.7701 57.4763C99.8812 57.0422 99.9964 56.6145 100.116 56.1932C100.248 55.7639 100.409 55.3469 100.601 54.9424C100.649 54.8329 100.705 54.7309 100.771 54.6366C100.836 54.5423 100.918 54.4735 101.015 54.4304C101.064 54.4088 101.139 54.3932 101.239 54.3836C101.351 54.3764 101.466 54.3756 101.585 54.3812C101.717 54.3789 101.836 54.3845 101.942 54.3981C102.051 54.4013 102.132 54.4037 102.187 54.4053C102.446 54.4213 102.705 54.4593 102.965 54.5193C103.225 54.5793 103.484 54.6445 103.741 54.7148C103.783 54.7244 103.839 54.7428 103.909 54.77C103.982 54.7868 104.053 54.8088 104.124 54.836C104.204 54.8656 104.273 54.898 104.331 54.9332C104.399 54.9707 104.445 55.0087 104.469 55.0471C104.491 55.0959 104.501 55.1694 104.5 55.2678C104.512 55.3581 104.516 55.4576 104.513 55.5664C104.51 55.6751 104.502 55.7826 104.488 55.889C104.477 55.9849 104.465 56.0589 104.453 56.1108C104.439 56.1732 104.406 56.3135 104.356 56.5318C104.318 56.742 104.272 56.9667 104.217 57.2057C104.172 57.4472 104.126 57.6718 104.078 57.8797C104.04 58.09 104.013 58.2315 103.996 58.3042C103.908 58.7327 103.81 59.1589 103.701 59.5826C103.605 59.9983 103.497 60.4169 103.378 60.8382C103.313 61.0748 103.237 61.3091 103.15 61.5409C103.064 61.7728 102.954 61.9882 102.821 62.1873C102.77 62.2632 102.708 62.342 102.635 62.4235C102.563 62.4947 102.48 62.5466 102.385 62.5794C102.241 62.6338 102.088 62.6585 101.925 62.6537C101.762 62.6489 101.606 62.6349 101.458 62.6117ZM108.275 64.1361C108.023 64.1329 107.776 64.0921 107.531 64.0137C107.286 63.9354 107.048 63.853 106.816 63.7666C106.621 63.7106 106.413 63.6187 106.19 63.4907C106.122 63.4531 106.057 63.4052 105.994 63.3468C105.928 63.2988 105.877 63.2377 105.839 63.1633C105.791 63.0865 105.759 62.9642 105.743 62.7963C105.74 62.6204 105.744 62.4353 105.756 62.2411C105.779 62.0492 105.804 61.8689 105.832 61.7002C105.862 61.5211 105.883 61.3836 105.894 61.2877C105.972 60.7144 106.06 60.1436 106.158 59.5752C106.267 59.0091 106.393 58.4415 106.535 57.8723C106.4 57.8411 106.264 57.8151 106.126 57.7943C105.999 57.7759 105.87 57.7407 105.74 57.6887C105.61 57.6367 105.51 57.57 105.441 57.4884C105.37 57.4172 105.336 57.3273 105.339 57.2186C105.33 57.1178 105.331 57.0195 105.342 56.9236C105.355 56.8172 105.374 56.7121 105.398 56.6082C105.409 56.5122 105.429 56.4019 105.458 56.2772C105.489 56.1421 105.526 56.0081 105.567 55.8754C105.619 55.7451 105.679 55.6276 105.747 55.5229C105.815 55.4181 105.892 55.3482 105.976 55.313C106.038 55.2834 106.101 55.2707 106.166 55.2747C106.243 55.2707 106.315 55.2707 106.379 55.2747C106.506 55.2931 106.631 55.3219 106.754 55.3611C106.886 55.4026 107.014 55.443 107.136 55.4822C107.17 55.3367 107.226 55.1145 107.306 54.8155C107.397 54.5188 107.49 54.2118 107.585 53.8945C107.693 53.5691 107.806 53.2669 107.925 52.9879C108.047 52.6984 108.164 52.501 108.276 52.3955C108.385 52.3003 108.518 52.2488 108.673 52.2408C108.828 52.2328 108.983 52.2248 109.138 52.2168C109.182 52.2161 109.221 52.2141 109.254 52.2109C109.29 52.1973 109.33 52.1901 109.374 52.1893C109.648 52.1869 109.918 52.2053 110.182 52.2445C110.457 52.2861 110.728 52.3485 110.993 52.4317C111.056 52.4461 111.132 52.4693 111.223 52.5013C111.317 52.5229 111.403 52.5537 111.481 52.5936C111.572 52.6256 111.651 52.6656 111.716 52.7136C111.782 52.7616 111.823 52.8203 111.84 52.8899C111.871 53.0394 111.86 53.2776 111.806 53.6046C111.763 53.934 111.705 54.2818 111.631 54.648C111.568 55.0165 111.498 55.3671 111.421 55.6997C111.357 56.0243 111.308 56.2593 111.275 56.4048C111.526 56.4081 111.772 56.4321 112.013 56.4769C112.265 56.5241 112.507 56.5908 112.739 56.6772C112.89 56.734 113 56.8251 113.07 56.9507C113.107 57.025 113.127 57.1062 113.129 57.1941C113.141 57.2845 113.142 57.3724 113.133 57.4579C113.125 57.5435 113.105 57.6538 113.073 57.7889C113.045 57.9137 113.008 58.0476 112.964 58.1907C112.923 58.3234 112.872 58.4485 112.812 58.566C112.762 58.6859 112.704 58.7711 112.638 58.8215C112.556 58.8902 112.434 58.9222 112.271 58.9174C112.108 58.9125 111.932 58.8937 111.742 58.8609C111.565 58.8202 111.39 58.7742 111.216 58.723C111.041 58.6718 110.902 58.6342 110.798 58.6102C110.781 58.683 110.753 58.8077 110.712 58.9844C110.671 59.1611 110.619 59.3625 110.556 59.5888C110.503 59.8174 110.442 60.0605 110.371 60.3179C110.314 60.5673 110.253 60.8052 110.19 61.0314C110.137 61.2601 110.085 61.4616 110.034 61.6358C109.993 61.8125 109.964 61.9373 109.948 62.01C109.877 62.2235 109.8 62.4357 109.719 62.6468C109.647 62.8602 109.562 63.0649 109.462 63.2608C109.4 63.3887 109.327 63.5142 109.244 63.6373C109.173 63.7524 109.079 63.8512 108.962 63.9335C108.775 64.0766 108.546 64.1441 108.275 64.1361ZM117.404 70.0863C117.052 70.0927 116.705 70.0563 116.362 69.9771C116.027 69.9107 115.694 69.8339 115.364 69.7467C115.25 69.7203 115.085 69.6767 114.869 69.616C114.663 69.5576 114.45 69.4864 114.228 69.4024C114.015 69.3313 113.814 69.2521 113.626 69.1649C113.439 69.0778 113.307 68.9818 113.233 68.8771C113.167 68.7851 113.12 68.6812 113.092 68.5653C113.072 68.4621 113.063 68.3562 113.067 68.2475C113.063 68.0276 113.074 67.8113 113.101 67.5987C113.139 67.3884 113.187 67.1805 113.245 66.9751C113.311 66.7384 113.376 66.5018 113.442 66.2651C113.505 66.0389 113.604 65.8262 113.737 65.6272C113.818 65.5144 113.92 65.4285 114.043 65.3693C114.174 65.323 114.314 65.3114 114.462 65.3346C114.493 65.3418 114.555 65.3562 114.649 65.3778C114.742 65.3994 114.841 65.4222 114.945 65.4462C115.046 65.4806 115.144 65.5086 115.237 65.5302C115.329 65.5621 115.39 65.5817 115.421 65.5889C115.686 65.6721 115.972 65.7161 116.277 65.7209C116.58 65.7362 116.865 65.687 117.132 65.5735C117.304 65.4928 117.457 65.3749 117.592 65.2198C117.736 65.0671 117.846 64.9008 117.92 64.7209C117.41 64.7017 116.905 64.6617 116.404 64.6008C115.906 64.5296 115.421 64.4013 114.95 64.2157C114.679 64.1094 114.415 63.9718 114.158 63.8031C113.912 63.6368 113.709 63.4257 113.549 63.1699C113.365 62.8756 113.242 62.557 113.179 62.214C113.126 61.8734 113.112 61.5309 113.137 61.1863C113.154 60.7306 113.215 60.2792 113.318 59.8323C113.424 59.375 113.533 58.9241 113.647 58.4796C113.673 58.3653 113.715 58.2054 113.774 57.9999C113.835 57.7841 113.902 57.5642 113.975 57.3404C114.051 57.1061 114.134 56.8898 114.224 56.6916C114.313 56.4933 114.4 56.3546 114.484 56.2755C114.581 56.1883 114.7 56.1448 114.843 56.1448C114.933 56.1328 115.025 56.1376 115.118 56.1592C115.214 56.1704 115.306 56.1752 115.394 56.1736C115.78 56.208 116.168 56.2592 116.557 56.3272C116.947 56.3952 117.323 56.4984 117.685 56.6367C117.815 56.6887 117.904 56.7531 117.952 56.8298C117.992 56.8938 118.015 56.9594 118.022 57.0265C118.038 57.0961 118.049 57.1696 118.053 57.2472C118.052 57.3455 118.033 57.4998 117.995 57.7101C117.96 57.91 117.911 58.145 117.849 58.4152C117.786 58.6855 117.72 58.9713 117.651 59.2727C117.584 59.5637 117.514 59.8431 117.441 60.1109C117.379 60.3812 117.322 60.6254 117.272 60.8437C117.224 61.0515 117.194 61.2034 117.183 61.2994C117.144 61.564 117.151 61.8175 117.205 62.0597C117.237 62.1549 117.282 62.2472 117.338 62.3367C117.396 62.4159 117.464 62.4755 117.543 62.5155C117.629 62.5682 117.727 62.5962 117.835 62.5994C117.946 62.5922 118.046 62.5659 118.133 62.5203C118.23 62.4771 118.316 62.4148 118.389 62.3332C118.463 62.2517 118.512 62.159 118.536 62.055C118.647 61.6209 118.753 61.1856 118.854 60.7491C118.965 60.315 119.06 59.8772 119.14 59.4359C119.18 59.1713 119.223 58.9131 119.27 58.6612C119.32 58.399 119.385 58.1404 119.465 57.8853C119.527 57.7134 119.599 57.5659 119.683 57.4428C119.766 57.3197 119.886 57.249 120.044 57.2306C120.144 57.221 120.31 57.2374 120.541 57.2798C120.785 57.3142 121.032 57.3602 121.281 57.4178C121.543 57.4674 121.788 57.5238 122.014 57.587C122.253 57.6421 122.424 57.6817 122.528 57.7057C122.664 57.7369 122.797 57.7733 122.93 57.8149C123.073 57.8589 123.201 57.9213 123.314 58.002C123.44 58.1188 123.519 58.2739 123.551 58.4673C123.566 58.5913 123.552 58.7959 123.508 59.0814C123.466 59.3564 123.41 59.6498 123.338 59.9616C123.278 60.2654 123.211 60.5564 123.136 60.8346C123.071 61.1152 123.025 61.3179 122.996 61.4426C122.786 62.3029 122.573 63.1567 122.355 64.0042C122.148 64.854 121.919 65.7043 121.668 66.5549C121.517 67.0674 121.303 67.5655 121.027 68.0491C120.759 68.5456 120.412 68.9581 119.986 69.2867C119.626 69.5648 119.219 69.7663 118.763 69.891C118.317 70.018 117.865 70.0832 117.404 70.0863ZM130.077 68.9397C129.828 68.9261 129.582 68.8801 129.337 68.8017C129.09 68.7338 128.851 68.6566 128.619 68.5702C128.509 68.523 128.399 68.4811 128.287 68.4443C128.187 68.3995 128.091 68.3443 127.996 68.2787C127.832 68.186 127.713 68.082 127.641 67.9669C127.585 67.8774 127.556 67.7446 127.553 67.5687C127.552 67.3825 127.559 67.187 127.573 66.9823C127.588 66.7776 127.611 66.5806 127.644 66.3911C127.677 66.2016 127.7 66.0537 127.714 65.9474C127.813 65.2806 127.928 64.6174 128.058 63.9578C128.199 63.3007 128.346 62.6395 128.499 61.9743C128.668 61.2908 128.841 60.6136 129.018 59.9428C129.207 59.2641 129.423 58.5913 129.664 57.9246C129.719 57.7839 129.779 57.6392 129.847 57.4905C129.924 57.3442 130.028 57.2258 130.158 57.1355C130.263 57.0612 130.387 57.024 130.529 57.024C130.671 57.024 130.808 57.0228 130.94 57.0205C131.02 57.0061 131.094 56.9957 131.161 56.9893C131.534 56.9877 131.903 57.0237 132.269 57.0973C132.635 57.1709 132.994 57.2757 133.346 57.4116L133.362 57.4152C134.072 57.4697 134.774 57.6044 135.469 57.8196C136.163 58.0347 136.814 58.3218 137.421 58.6808C137.617 58.7808 137.777 58.9163 137.902 59.0874C138.053 59.2865 138.164 59.5148 138.236 59.7722C138.319 60.0321 138.358 60.2875 138.355 60.5386C138.354 60.9215 138.322 61.2973 138.259 61.6658C138.209 62.0264 138.152 62.391 138.089 62.7595C138.028 63.1177 137.957 63.4735 137.875 63.8269C137.793 64.1802 137.701 64.5312 137.599 64.8798C137.467 65.3091 137.247 65.718 136.938 66.1065C136.642 66.4871 136.285 66.7549 135.866 66.9099C135.684 66.9883 135.492 67.037 135.29 67.0562C135.102 67.0674 134.914 67.0733 134.728 67.0741C134.234 67.0805 133.74 67.0377 133.247 66.9457C132.764 66.8561 132.281 66.7445 131.797 66.6109C131.721 66.8452 131.645 67.0794 131.569 67.3137C131.495 67.5375 131.405 67.763 131.298 67.99C131.236 68.1179 131.169 68.2395 131.099 68.3546C131.039 68.4721 130.954 68.5784 130.845 68.6736C130.735 68.7687 130.609 68.8382 130.468 68.8822C130.339 68.9182 130.209 68.9373 130.077 68.9397ZM132.705 63.6021C132.793 63.7428 132.935 63.8412 133.13 63.8972C133.335 63.9555 133.519 63.9652 133.681 63.926C133.8 63.8876 133.905 63.8081 133.999 63.6874C134.105 63.5587 134.193 63.4148 134.263 63.2557C134.335 63.0862 134.396 62.9143 134.448 62.74C134.499 62.5657 134.539 62.4162 134.568 62.2915C134.594 62.1772 134.62 62.0409 134.646 61.8826C134.682 61.7267 134.701 61.5724 134.703 61.4197C134.708 61.2566 134.692 61.1107 134.656 60.9819C134.633 60.8452 134.576 60.7389 134.484 60.6629C134.316 60.5366 134.115 60.4574 133.882 60.4254C133.648 60.3934 133.46 60.4485 133.318 60.5908C133.293 60.6068 133.258 60.6372 133.215 60.682C133.182 60.7291 133.163 60.7631 133.159 60.7839C133.139 60.8671 133.101 61.0333 133.043 61.2828C132.999 61.5242 132.944 61.7853 132.879 62.0659C132.814 62.3465 132.753 62.6115 132.696 62.861C132.651 63.1024 132.62 63.2595 132.603 63.3323C132.596 63.3634 132.607 63.4098 132.637 63.4714C132.666 63.5329 132.689 63.5765 132.705 63.6021ZM140.375 71.465C140.067 71.4266 139.769 71.3634 139.483 71.2755C139.197 71.1875 138.913 71.0891 138.631 70.9804C138.501 70.9284 138.368 70.8648 138.232 70.7896C138.104 70.7273 138.012 70.6293 137.955 70.4958C137.915 70.4318 137.895 70.3287 137.895 70.1864C137.895 70.0441 137.898 69.8914 137.902 69.7283C137.918 69.5676 137.93 69.4173 137.941 69.2774C137.964 69.1295 137.98 69.0127 137.989 68.9272C138.047 68.4371 138.121 67.9506 138.211 67.4677C138.311 66.9872 138.417 66.5027 138.53 66.0143C138.667 65.4218 138.814 64.8318 138.971 64.2442C139.129 63.6566 139.323 63.0774 139.553 62.5065C139.608 62.3658 139.668 62.2211 139.736 62.0724C139.813 61.9261 139.921 61.8142 140.059 61.7367C140.098 61.7127 140.162 61.6947 140.253 61.6827C140.343 61.6707 140.437 61.6651 140.536 61.666C140.647 61.6588 140.746 61.6544 140.834 61.6528C140.933 61.6536 141.004 61.6536 141.048 61.6528C141.428 61.664 141.8 61.7116 142.164 61.7956C142.53 61.8692 142.89 61.9688 143.245 62.0943C143.375 62.1463 143.468 62.2171 143.524 62.3066C143.567 62.4042 143.583 62.5501 143.571 62.7444C143.559 62.9386 143.534 63.1409 143.496 63.3512C143.459 63.5614 143.417 63.7653 143.372 63.9628C143.336 64.1627 143.307 64.3146 143.283 64.4185C143.38 64.3314 143.475 64.2494 143.569 64.1727C143.677 64.0879 143.783 64.0084 143.887 63.9341C144.268 63.6607 144.694 63.4524 145.165 63.3094C145.646 63.1687 146.122 63.12 146.594 63.1632C146.659 63.1672 146.738 63.18 146.831 63.2016C146.938 63.2152 147.037 63.238 147.128 63.27C147.232 63.294 147.323 63.326 147.401 63.3659C147.49 63.4083 147.549 63.4603 147.579 63.5219C147.616 63.5962 147.63 63.7034 147.619 63.8433C147.619 63.9856 147.601 64.1347 147.565 64.2906C147.54 64.4489 147.51 64.6008 147.477 64.7463C147.443 64.8918 147.418 65.0009 147.401 65.0737C147.382 65.1568 147.354 65.2763 147.318 65.4322C147.295 65.5801 147.264 65.7372 147.226 65.9035C147.19 66.0594 147.145 66.2077 147.09 66.3484C147.046 66.4916 146.996 66.5895 146.94 66.6423C146.884 66.695 146.816 66.7286 146.736 66.743C146.667 66.7598 146.594 66.7649 146.519 66.7585C146.467 66.7465 146.363 66.7225 146.208 66.6866C146.052 66.6506 145.887 66.607 145.712 66.5558C145.538 66.5046 145.373 66.461 145.217 66.425C145.061 66.389 144.957 66.365 144.905 66.353C144.726 66.3226 144.543 66.3078 144.357 66.3086C144.181 66.3118 144.009 66.3486 143.839 66.4189C143.706 66.4757 143.588 66.558 143.486 66.6659C143.395 66.7762 143.304 66.8866 143.213 66.9969C142.977 67.2599 142.792 67.5621 142.659 67.9035C142.525 68.2448 142.393 68.581 142.262 68.912L142.255 68.9432C142.187 69.1902 142.119 69.4373 142.051 69.6843C141.983 69.9313 141.894 70.1736 141.784 70.411C141.712 70.5805 141.63 70.7476 141.537 70.9123C141.444 71.077 141.321 71.2073 141.168 71.3032C141.063 71.3775 140.937 71.4251 140.79 71.4459C140.653 71.469 140.515 71.4754 140.375 71.465ZM152.702 74.1139C152.119 74.0339 151.533 73.9371 150.947 73.8235C150.36 73.7099 149.8 73.526 149.268 73.2717C148.933 73.107 148.619 72.9031 148.325 72.66C148.044 72.4089 147.797 72.1275 147.584 71.8157C147.379 71.5166 147.261 71.1772 147.228 70.7975C147.206 70.4201 147.209 70.0487 147.239 69.6834C147.348 68.592 147.622 67.5275 148.058 66.4898C148.237 66.0933 148.475 65.7267 148.772 65.3902C149.081 65.0456 149.43 64.7702 149.817 64.564C150.142 64.3873 150.497 64.2722 150.881 64.2187C151.279 64.1572 151.664 64.1476 152.038 64.19C152.621 64.27 153.196 64.3864 153.763 64.5392C154.33 64.6919 154.877 64.9059 155.405 65.1809C155.614 65.2729 155.811 65.4116 155.999 65.5971C156.13 65.7371 156.236 65.8982 156.314 66.0805C156.403 66.2652 156.463 66.4542 156.495 66.6477C156.55 66.9779 156.543 67.3157 156.474 67.6611C156.416 68.0089 156.328 68.3442 156.209 68.6672C156.141 68.8703 156.052 69.0634 155.944 69.2464C155.847 69.4319 155.726 69.601 155.581 69.7537C155.37 69.9567 155.148 70.0862 154.916 70.1422C154.685 70.1981 154.433 70.1949 154.163 70.1325C153.696 70.0245 153.233 69.9178 152.776 69.8122C152.321 69.6962 151.872 69.5543 151.429 69.3863C151.326 69.5486 151.269 69.7489 151.257 69.9871C151.259 70.2174 151.326 70.4025 151.458 70.5424C151.537 70.6264 151.632 70.6867 151.744 70.7235C151.856 70.7603 151.968 70.7971 152.08 70.8339C152.325 70.9123 152.571 70.9854 152.818 71.0534C153.075 71.1238 153.336 71.1786 153.601 71.2178C153.663 71.2322 153.753 71.2474 153.869 71.2634C153.999 71.2714 154.131 71.291 154.266 71.3222C154.404 71.343 154.529 71.3718 154.64 71.4086C154.765 71.4374 154.85 71.4734 154.895 71.5165C154.95 71.5621 154.985 71.6249 154.999 71.7048C155.026 71.7768 155.042 71.8515 155.046 71.9291C155.047 71.9731 155.044 72.0546 155.039 72.1737C155.033 72.2929 155.025 72.4224 155.015 72.5623C155.004 72.7022 154.996 72.8317 154.99 72.9508C154.985 73.07 154.982 73.1515 154.983 73.1955C154.97 73.3458 154.944 73.5093 154.903 73.686C154.875 73.8547 154.8 73.9906 154.677 74.0937C154.585 74.16 154.45 74.2 154.272 74.2136C154.104 74.2296 153.922 74.2367 153.725 74.2351C153.531 74.2231 153.338 74.2059 153.146 74.1835C152.956 74.1507 152.809 74.1275 152.702 74.1139ZM151.855 67.6127C151.905 67.6351 152.011 67.6707 152.175 67.7194C152.349 67.7706 152.463 67.8022 152.515 67.8142C152.665 67.827 152.808 67.7779 152.943 67.6668C153.078 67.5556 153.152 67.4249 153.165 67.2746C153.169 67.2099 153.149 67.1507 153.107 67.0971C153.065 67.0436 153.02 67.0004 152.973 66.9676C152.866 66.91 152.743 66.8708 152.606 66.85C152.479 66.8316 152.356 66.8196 152.236 66.814C152.169 66.8204 152.113 66.8512 152.067 66.9063C152.032 66.9639 151.999 67.0383 151.967 67.1294C151.947 67.2125 151.927 67.3009 151.905 67.3944C151.897 67.48 151.88 67.5527 151.855 67.6127ZM159.813 76.002C159.622 75.9796 159.358 75.9352 159.023 75.8688C158.686 75.8128 158.336 75.7376 157.975 75.6432C157.624 75.5513 157.294 75.4421 156.983 75.3157C156.671 75.1998 156.447 75.077 156.313 74.9475C156.271 74.8939 156.229 74.8352 156.189 74.7712C156.15 74.7072 156.126 74.6417 156.12 74.5745C156.111 74.5178 156.108 74.4622 156.109 74.4078C156.113 74.3431 156.111 74.2823 156.102 74.2255C156.112 73.9433 156.138 73.6647 156.18 73.3897C156.232 73.117 156.31 72.8504 156.414 72.5898C156.461 72.4803 156.512 72.3771 156.567 72.2804C156.635 72.1757 156.723 72.1029 156.831 72.0622C156.914 72.0374 157.028 72.0418 157.173 72.0754C157.329 72.1114 157.489 72.1538 157.653 72.2026C157.817 72.2513 157.974 72.3041 158.125 72.3609C158.276 72.4177 158.394 72.4557 158.477 72.4749C158.638 72.534 158.797 72.5816 158.953 72.6176C159.109 72.6536 159.272 72.6804 159.443 72.698C159.51 72.6916 159.583 72.6864 159.66 72.6824C159.748 72.6809 159.801 72.6437 159.817 72.5709C159.841 72.467 159.798 72.3475 159.687 72.2123C159.586 72.0796 159.5 71.9777 159.429 71.9065C159.116 71.6043 158.795 71.3112 158.466 71.0274C158.14 70.7331 157.853 70.4097 157.606 70.0571C157.518 69.9164 157.444 69.7625 157.384 69.5954C157.324 69.4283 157.287 69.2608 157.271 69.0929C157.243 68.7363 157.29 68.3913 157.411 68.0579C157.544 67.7165 157.729 67.4144 157.965 67.1513C158.214 66.8803 158.498 66.6669 158.819 66.511C159.142 66.3448 159.485 66.2596 159.847 66.2557C159.945 66.2565 160.121 66.2753 160.376 66.3121C160.63 66.3489 160.899 66.3945 161.182 66.4489C161.467 66.4929 161.736 66.5385 161.987 66.5857C162.25 66.6353 162.428 66.6709 162.521 66.6925C162.625 66.7164 162.76 66.7476 162.926 66.786C163.093 66.8244 163.257 66.8732 163.418 66.9324C163.58 66.9916 163.722 67.0627 163.845 67.1459C163.981 67.2211 164.069 67.3126 164.11 67.4205C164.164 67.5645 164.179 67.7156 164.153 67.8739C164.128 68.0322 164.098 68.1841 164.064 68.3296C163.988 68.5638 163.903 68.7905 163.809 69.0095C163.717 69.2182 163.619 69.4308 163.514 69.6475C163.469 69.7466 163.416 69.811 163.354 69.8406C163.278 69.8885 163.194 69.9185 163.104 69.9305C163.016 69.9321 162.928 69.9337 162.84 69.9353C162.679 69.9201 162.516 69.8933 162.349 69.8549C162.196 69.8085 162.041 69.7673 161.885 69.7313C161.804 69.7017 161.685 69.6741 161.527 69.6485C161.368 69.6229 161.256 69.6353 161.19 69.6857C161.146 69.7304 161.138 69.7888 161.166 69.8607C161.195 69.9223 161.226 69.9787 161.258 70.0298C161.288 70.0914 161.367 70.1974 161.497 70.3477C161.628 70.4876 161.768 70.6403 161.916 70.8058C162.064 70.9713 162.203 71.1293 162.332 71.2796C162.464 71.4195 162.551 71.5162 162.594 71.5698C162.726 71.7537 162.846 71.9456 162.953 72.1455C163.071 72.3478 163.159 72.5596 163.217 72.7811C163.253 72.9098 163.276 73.0466 163.287 73.1913C163.297 73.336 163.287 73.4759 163.256 73.611C163.175 73.866 163.078 74.1175 162.966 74.3653C162.867 74.6051 162.734 74.8262 162.567 75.0285C162.395 75.2515 162.186 75.4442 161.941 75.6064C161.696 75.7687 161.432 75.8886 161.152 75.9661C160.941 76.0269 160.721 76.0528 160.493 76.044C160.263 76.0456 160.037 76.0316 159.813 76.002ZM169.723 78.0435C169.14 77.9635 168.554 77.8667 167.968 77.7531C167.381 77.6395 166.821 77.4556 166.289 77.2013C165.954 77.0366 165.64 76.8327 165.346 76.5896C165.065 76.3385 164.818 76.0571 164.605 75.7453C164.4 75.4462 164.282 75.1068 164.249 74.7271C164.227 74.3497 164.23 73.9783 164.26 73.613C164.369 72.5217 164.643 71.4571 165.079 70.4194C165.258 70.0229 165.496 69.6564 165.793 69.3198C166.102 68.9752 166.451 68.6998 166.838 68.4936C167.163 68.3169 167.518 68.2019 167.902 68.1483C168.3 68.0868 168.685 68.0772 169.059 68.1196C169.642 68.1997 170.217 68.316 170.784 68.4688C171.351 68.6216 171.898 68.8355 172.426 69.1105C172.635 69.2025 172.833 69.3412 173.02 69.5267C173.151 69.6667 173.257 69.8278 173.335 70.0101C173.424 70.1948 173.484 70.3839 173.516 70.5773C173.571 70.9075 173.564 71.2453 173.495 71.5907C173.437 71.9385 173.349 72.2739 173.23 72.5968C173.162 72.7999 173.073 72.993 172.965 73.1761C172.868 73.3615 172.747 73.5306 172.602 73.6833C172.391 73.8864 172.169 74.0159 171.937 74.0718C171.706 74.1277 171.455 74.1245 171.184 74.0621C170.717 73.9542 170.254 73.8474 169.797 73.7418C169.342 73.6258 168.893 73.4839 168.45 73.3159C168.347 73.4782 168.29 73.6785 168.279 73.9168C168.28 74.147 168.347 74.3321 168.479 74.472C168.558 74.556 168.653 74.6164 168.765 74.6531C168.877 74.6899 168.989 74.7267 169.101 74.7635C169.346 74.8419 169.592 74.9151 169.839 74.983C170.096 75.0534 170.357 75.1082 170.622 75.1474C170.684 75.1618 170.774 75.177 170.89 75.193C171.02 75.201 171.152 75.2206 171.287 75.2518C171.425 75.2726 171.55 75.3014 171.661 75.3382C171.786 75.367 171.871 75.403 171.916 75.4461C171.971 75.4917 172.006 75.5545 172.02 75.6344C172.047 75.7064 172.063 75.7811 172.067 75.8587C172.068 75.9027 172.065 75.9842 172.06 76.1033C172.054 76.2225 172.046 76.352 172.036 76.4919C172.025 76.6318 172.017 76.7613 172.012 76.8805C172.006 76.9996 172.003 77.0811 172.004 77.1251C171.991 77.2754 171.965 77.4389 171.924 77.6156C171.896 77.7843 171.821 77.9202 171.698 78.0233C171.606 78.0897 171.471 78.1296 171.293 78.1432C171.125 78.1592 170.943 78.1664 170.746 78.1647C170.552 78.1527 170.359 78.1355 170.167 78.1131C169.977 78.0803 169.83 78.0571 169.723 78.0435ZM168.876 71.5423C168.926 71.5647 169.032 71.6003 169.196 71.6491C169.37 71.7002 169.484 71.7318 169.536 71.7438C169.686 71.7566 169.829 71.7075 169.964 71.5964C170.099 71.4852 170.173 71.3545 170.186 71.2042C170.19 71.1395 170.17 71.0803 170.128 71.0267C170.086 70.9732 170.041 70.93 169.994 70.8972C169.887 70.8396 169.764 70.8004 169.627 70.7796C169.5 70.7612 169.377 70.7492 169.257 70.7436C169.19 70.75 169.134 70.7808 169.088 70.836C169.053 70.8935 169.02 70.9679 168.988 71.059C168.968 71.1422 168.948 71.2305 168.926 71.324C168.918 71.4096 168.901 71.4823 168.876 71.5423ZM175.844 79.6701C175.696 79.6469 175.503 79.6077 175.264 79.5525C175.032 79.5101 174.796 79.4445 174.554 79.3557C174.319 79.2798 174.099 79.1906 173.893 79.0882C173.687 78.9859 173.542 78.8759 173.46 78.7584C173.42 78.6944 173.394 78.5953 173.381 78.461C173.37 78.3163 173.366 78.1676 173.369 78.0149C173.382 77.8646 173.393 77.7195 173.404 77.5795C173.427 77.4316 173.443 77.3149 173.452 77.2294C173.515 76.7185 173.594 76.2112 173.688 75.7075C173.782 75.2039 173.892 74.7038 174.018 74.2073C174.165 73.6173 174.311 73.0325 174.456 72.4528C174.613 71.8652 174.818 71.2884 175.069 70.7224C175.116 70.6129 175.17 70.4993 175.23 70.3818C175.3 70.2667 175.392 70.1784 175.504 70.1168C175.617 70.0553 175.738 70.0285 175.868 70.0365C175.997 70.0445 176.121 70.0513 176.241 70.0569C176.655 70.0649 177.072 70.1066 177.493 70.1817C177.926 70.2489 178.339 70.3553 178.733 70.5009C178.892 70.5704 178.976 70.6776 178.987 70.8223C179.038 71.2172 179.012 71.6162 178.908 72.0191C178.806 72.4117 178.715 72.8066 178.634 73.204C179.098 72.8075 179.592 72.4453 180.116 72.1176C180.331 71.9921 180.548 71.8834 180.766 71.7915C180.997 71.6915 181.235 71.6368 181.478 71.6272C181.809 71.6161 182.135 71.6477 182.457 71.7221C182.792 71.7884 183.109 71.8888 183.406 72.0232C183.635 72.1199 183.859 72.2427 184.076 72.3914C184.296 72.5297 184.475 72.7024 184.614 72.9095C184.722 73.055 184.795 73.2141 184.832 73.3868C184.879 73.5619 184.904 73.7374 184.907 73.9133C184.92 74.3323 184.884 74.7508 184.798 75.1689C184.712 75.5871 184.618 75.9976 184.514 76.4005C184.407 76.8139 184.296 77.226 184.179 77.6369C184.075 78.0399 183.959 78.4456 183.832 78.8541C183.744 79.1403 183.651 79.4254 183.553 79.7092C183.467 79.985 183.361 80.256 183.234 80.5222C183.198 80.5798 183.163 80.6373 183.128 80.6949C183.103 80.7549 183.075 80.8084 183.042 80.8556C182.979 80.9395 182.884 80.9943 182.758 81.0199C182.644 81.0375 182.517 81.041 182.377 81.0306C182.248 81.0226 182.11 81.0018 181.965 80.9682C181.83 80.937 181.71 80.9094 181.606 80.8854C181.282 80.8215 180.955 80.7679 180.625 80.7247C180.306 80.6839 179.992 80.6003 179.681 80.4739C179.632 80.4515 179.578 80.4227 179.521 80.3876C179.471 80.3652 179.43 80.3284 179.398 80.2772C179.332 80.1853 179.297 80.0514 179.294 79.8755C179.301 79.702 179.316 79.5193 179.339 79.3274C179.374 79.1275 179.412 78.9393 179.453 78.7626C179.506 78.5779 179.546 78.4284 179.573 78.3141C179.699 77.8616 179.824 77.4142 179.948 76.9721C180.074 76.5196 180.192 76.0595 180.3 75.5918C180.319 75.5087 180.343 75.4048 180.372 75.28C180.4 75.1553 180.425 75.0242 180.446 74.8867C180.467 74.7492 180.468 74.6237 180.451 74.5101C180.446 74.3886 180.418 74.2947 180.368 74.2283C180.273 74.1188 180.142 74.094 179.975 74.1539C179.818 74.2162 179.676 74.2874 179.548 74.3673C179.33 74.5032 179.125 74.6583 178.931 74.8326C178.748 75.0093 178.57 75.1871 178.398 75.3662C178.367 75.403 178.309 75.4661 178.222 75.5557C178.146 75.6476 178.103 75.7195 178.091 75.7715C177.982 76.1952 177.874 76.6138 177.768 77.0271C177.672 77.4428 177.549 77.8578 177.398 78.2719C177.346 78.4022 177.294 78.5325 177.242 78.6628C177.19 78.7931 177.128 78.9211 177.055 79.0466C177 79.1433 176.935 79.2376 176.859 79.3296C176.795 79.4135 176.713 79.4875 176.61 79.5514C176.498 79.613 176.374 79.6501 176.24 79.6629C176.105 79.6757 175.973 79.6781 175.844 79.6701ZM188.569 82.6735C188.318 82.6703 188.07 82.6295 187.825 82.5511C187.581 82.4727 187.342 82.3904 187.11 82.304C186.915 82.248 186.707 82.156 186.484 82.0281C186.417 81.9905 186.351 81.9425 186.288 81.8842C186.222 81.8362 186.171 81.775 186.133 81.7007C186.085 81.6239 186.053 81.5016 186.037 81.3337C186.034 81.1578 186.038 80.9727 186.05 80.7784C186.073 80.5866 186.098 80.4063 186.126 80.2376C186.156 80.0585 186.177 79.921 186.188 79.825C186.266 79.2518 186.354 78.681 186.452 78.1125C186.561 77.5465 186.687 76.9789 186.829 76.4096C186.694 76.3784 186.558 76.3525 186.42 76.3317C186.293 76.3133 186.164 76.2781 186.034 76.2261C185.904 76.1741 185.804 76.1073 185.736 76.0258C185.664 75.9546 185.63 75.8647 185.634 75.7559C185.624 75.6552 185.625 75.5569 185.636 75.4609C185.65 75.3546 185.668 75.2495 185.692 75.1455C185.704 75.0496 185.724 74.9393 185.752 74.8145C185.784 74.6794 185.82 74.5455 185.862 74.4128C185.914 74.2825 185.974 74.165 186.042 74.0602C186.109 73.9555 186.186 73.8856 186.271 73.8504C186.332 73.8208 186.395 73.808 186.46 73.812C186.538 73.808 186.609 73.808 186.674 73.812C186.801 73.8305 186.925 73.8592 187.048 73.8984C187.18 73.94 187.308 73.9804 187.43 74.0196C187.464 73.8741 187.521 73.6518 187.601 73.3528C187.691 73.0562 187.784 72.7492 187.879 72.4318C187.987 72.1064 188.1 71.8042 188.22 71.5252C188.341 71.2358 188.458 71.0384 188.57 70.9328C188.679 70.8377 188.812 70.7861 188.967 70.7782C189.122 70.7702 189.277 70.7622 189.432 70.7542C189.476 70.7534 189.515 70.7514 189.548 70.7482C189.584 70.7346 189.624 70.7275 189.668 70.7267C189.943 70.7243 190.212 70.7427 190.477 70.7819C190.752 70.8235 191.022 70.8859 191.287 70.9691C191.35 70.9835 191.426 71.0066 191.518 71.0386C191.611 71.0602 191.697 71.091 191.775 71.131C191.867 71.163 191.945 71.203 192.01 71.251C192.076 71.2989 192.117 71.3577 192.134 71.4273C192.165 71.5768 192.154 71.815 192.1 72.142C192.057 72.4714 191.999 72.8192 191.925 73.1853C191.862 73.5539 191.792 73.9045 191.715 74.2371C191.651 74.5616 191.602 74.7967 191.569 74.9422C191.82 74.9454 192.066 74.9694 192.307 75.0142C192.559 75.0614 192.801 75.1282 193.033 75.2146C193.184 75.2714 193.294 75.3625 193.364 75.488C193.402 75.5624 193.421 75.6435 193.423 75.7315C193.435 75.8218 193.436 75.9098 193.428 75.9953C193.419 76.0809 193.399 76.1912 193.368 76.3263C193.339 76.451 193.302 76.5849 193.258 76.728C193.217 76.8608 193.166 76.9859 193.106 77.1034C193.056 77.2233 192.998 77.3085 192.932 77.3588C192.851 77.4276 192.728 77.4595 192.565 77.4547C192.402 77.4499 192.226 77.4311 192.036 77.3983C191.86 77.3575 191.684 77.3115 191.51 77.2604C191.335 77.2092 191.196 77.1716 191.092 77.1476C191.076 77.2203 191.047 77.3451 191.006 77.5217C190.965 77.6984 190.913 77.8999 190.85 78.1261C190.797 78.3548 190.736 78.5978 190.665 78.8553C190.608 79.1047 190.547 79.3426 190.484 79.5688C190.431 79.7975 190.379 79.9989 190.328 80.1732C190.287 80.3499 190.259 80.4746 190.242 80.5474C190.171 80.7608 190.094 80.9731 190.013 81.1842C189.942 81.3976 189.856 81.6023 189.756 81.7982C189.694 81.9261 189.621 82.0516 189.538 82.1747C189.467 82.2898 189.373 82.3885 189.256 82.4709C189.07 82.614 188.841 82.6815 188.569 82.6735Z" fill="#1D5298"/>
<defs>
<filter id="filter0_d_130_3067" x="1.35059" y="5.35059" width="222.926" height="98.9668" filterUnits="userSpaceOnUse" color-interpolation-filters="sRGB">
<feFlood flood-opacity="0" result="BackgroundImageFix"/>
<feColorMatrix in="SourceAlpha" type="matrix" values="0 0 0 0 0 0 0 0 0 0 0 0 0 0 0 0 0 0 127 0" result="hardAlpha"/>
<feOffset dy="4"/>
<feGaussianBlur stdDeviation="2"/>
<feComposite in2="hardAlpha" operator="out"/>
<feColorMatrix type="matrix" values="0 0 0 0 0 0 0 0 0 0 0 0 0 0 0 0 0 0 0.25 0"/>
<feBlend mode="normal" in2="BackgroundImageFix" result="effect1_dropShadow_130_3067"/>
<feBlend mode="normal" in="SourceGraphic" in2="effect1_dropShadow_130_3067" result="shape"/>
</filter>
</defs>
</svg>
