<svg width="225" height="202" viewBox="0 0 225 202" fill="none" xmlns="http://www.w3.org/2000/svg">
<path d="M107.603 147.954C107.603 177.803 83.5149 202 53.8013 202C24.0877 202 0 177.803 0 147.954C0 118.105 24.0877 93.9082 53.8013 93.9082C83.5149 93.9082 107.603 118.105 107.603 147.954ZM1.83349 147.954C1.83349 176.786 25.1003 200.158 53.8013 200.158C82.5023 200.158 105.769 176.786 105.769 147.954C105.769 119.123 82.5023 95.75 53.8013 95.75C25.1003 95.75 1.83349 119.123 1.83349 147.954Z" fill="#E38F49"/>
<path d="M122.276 136.215C122.276 166.064 98.1888 190.261 68.4751 190.261C38.7615 190.261 14.6738 166.064 14.6738 136.215C14.6738 106.367 38.7615 82.1694 68.4751 82.1694C98.1888 82.1694 122.276 106.367 122.276 136.215ZM16.5073 136.215C16.5073 165.047 39.7741 188.419 68.4751 188.419C97.1762 188.419 120.443 165.047 120.443 136.215C120.443 107.384 97.1762 84.0113 68.4751 84.0113C39.7741 84.0113 16.5073 107.384 16.5073 136.215Z" fill="#E38F49"/>
<path d="M136.948 124.477C136.948 154.326 112.861 178.523 83.147 178.523C53.4334 178.523 29.3457 154.326 29.3457 124.477C29.3457 94.6283 53.4334 70.4312 83.147 70.4312C112.861 70.4312 136.948 94.6283 136.948 124.477ZM31.1792 124.477C31.1792 153.308 54.446 176.681 83.147 176.681C111.848 176.681 135.115 153.308 135.115 124.477C135.115 95.6455 111.848 72.273 83.147 72.273C54.446 72.273 31.1792 95.6455 31.1792 124.477Z" fill="#E38F49"/>
<path d="M151.622 112.738C151.622 142.587 127.534 166.784 97.8208 166.784C68.1072 166.784 44.0195 142.587 44.0195 112.738C44.0195 82.8895 68.1072 58.6924 97.8208 58.6924C127.534 58.6924 151.622 82.8895 151.622 112.738ZM45.853 112.738C45.853 141.57 69.1198 164.942 97.8208 164.942C126.522 164.942 149.789 141.57 149.789 112.738C149.789 83.9067 126.522 60.5342 97.8208 60.5342C69.1198 60.5342 45.853 83.9067 45.853 112.738Z" fill="#E38F49"/>
<path d="M166.296 101C166.296 130.849 142.208 155.046 112.495 155.046C82.781 155.046 58.6934 130.849 58.6934 101C58.6934 71.1513 82.781 46.9541 112.495 46.9541C142.208 46.9541 166.296 71.1513 166.296 101ZM60.5269 101C60.5269 129.831 83.7936 153.204 112.495 153.204C141.196 153.204 164.462 129.831 164.462 101C164.462 72.1685 141.196 48.7959 112.495 48.7959C83.7936 48.7959 60.5269 72.1685 60.5269 101Z" fill="#E38F49"/>
<path d="M180.969 89.2612C180.969 119.11 156.881 143.307 127.168 143.307C97.4539 143.307 73.3662 119.11 73.3662 89.2612C73.3662 59.4125 97.4539 35.2153 127.168 35.2153C156.881 35.2153 180.969 59.4125 180.969 89.2612ZM75.1997 89.2612C75.1997 118.093 98.4665 141.465 127.168 141.465C155.869 141.465 179.135 118.093 179.135 89.2612C179.135 60.4297 155.869 37.0572 127.168 37.0572C98.4665 37.0572 75.1997 60.4297 75.1997 89.2612Z" fill="#E38F49"/>
<path d="M195.642 77.5229C195.642 107.372 171.554 131.569 141.84 131.569C112.127 131.569 88.0391 107.372 88.0391 77.5229C88.0391 47.6742 112.127 23.4771 141.84 23.4771C171.554 23.4771 195.642 47.6742 195.642 77.5229ZM89.8726 77.5229C89.8726 106.354 113.139 129.727 141.84 129.727C170.541 129.727 193.808 106.354 193.808 77.5229C193.808 48.6914 170.541 25.3189 141.84 25.3189C113.139 25.3189 89.8726 48.6914 89.8726 77.5229Z" fill="#E38F49"/>
<path d="M210.314 65.7841C210.314 95.6328 186.226 119.83 156.512 119.83C126.799 119.83 102.711 95.6328 102.711 65.7841C102.711 35.9354 126.799 11.7383 156.512 11.7383C186.226 11.7383 210.314 35.9354 210.314 65.7841ZM104.544 65.7841C104.544 94.6156 127.811 117.988 156.512 117.988C185.213 117.988 208.48 94.6156 208.48 65.7841C208.48 36.9526 185.213 13.5801 156.512 13.5801C127.811 13.5801 104.544 36.9526 104.544 65.7841Z" fill="#E38F49"/>
<path d="M224.987 54.0459C224.987 83.8946 200.9 108.092 171.186 108.092C141.472 108.092 117.385 83.8946 117.385 54.0459C117.385 24.1972 141.472 0 171.186 0C200.9 0 224.987 24.1972 224.987 54.0459ZM119.218 54.0459C119.218 82.8773 142.485 106.25 171.186 106.25C199.887 106.25 223.154 82.8773 223.154 54.0459C223.154 25.2144 199.887 1.84183 171.186 1.84183C142.485 1.84183 119.218 25.2144 119.218 54.0459Z" fill="#E38F49"/>
</svg>
