<svg width="437" height="181" viewBox="0 0 437 181" fill="none" xmlns="http://www.w3.org/2000/svg">
<path d="M6 92C9.31371 92 12 89.3137 12 86C12 82.6863 9.31371 80 6 80C2.68629 80 0 82.6863 0 86C0 89.3137 2.68629 92 6 92Z" fill="url(#paint0_linear_130_309)"/>
<path d="M431 24C434.314 24 437 21.3137 437 18C437 14.6863 434.314 12 431 12C427.686 12 425 14.6863 425 18C425 21.3137 427.686 24 431 24Z" fill="url(#paint1_linear_130_309)"/>
<path d="M107 12C110.314 12 113 9.31371 113 6C113 2.68629 110.314 0 107 0C103.686 0 101 2.68629 101 6C101 9.31371 103.686 12 107 12Z" fill="url(#paint2_linear_130_309)"/>
<path d="M161.5 165C164.538 165 167 162.538 167 159.5C167 156.462 164.538 154 161.5 154C158.462 154 156 156.462 156 159.5C156 162.538 158.462 165 161.5 165Z" fill="url(#paint3_linear_130_309)"/>
<path d="M351 181C355.971 181 360 176.971 360 172C360 167.029 355.971 163 351 163C346.029 163 342 167.029 342 172C342 176.971 346.029 181 351 181Z" fill="url(#paint4_linear_130_309)"/>
<defs>
<linearGradient id="paint0_linear_130_309" x1="5.99049" y1="93.0523" x2="6.00665" y2="81.0493" gradientUnits="userSpaceOnUse">
<stop stop-color="#0A3981"/>
<stop offset="1" stop-color="#EEEDE9"/>
</linearGradient>
<linearGradient id="paint1_linear_130_309" x1="430.99" y1="25.0523" x2="431.007" y2="13.0493" gradientUnits="userSpaceOnUse">
<stop stop-color="#0A3981"/>
<stop offset="1" stop-color="#EEEDE9"/>
</linearGradient>
<linearGradient id="paint2_linear_130_309" x1="106.99" y1="13.0523" x2="107.007" y2="1.04929" gradientUnits="userSpaceOnUse">
<stop stop-color="white"/>
<stop offset="1" stop-color="#E38F49"/>
</linearGradient>
<linearGradient id="paint3_linear_130_309" x1="161.491" y1="165.965" x2="161.506" y2="154.962" gradientUnits="userSpaceOnUse">
<stop stop-color="#E38F49"/>
<stop offset="1" stop-color="white"/>
</linearGradient>
<linearGradient id="paint4_linear_130_309" x1="350.986" y1="182.578" x2="351.01" y2="164.574" gradientUnits="userSpaceOnUse">
<stop stop-color="#132663"/>
<stop offset="0.5672" stop-color="#3957BD"/>
<stop offset="1" stop-color="#69C7F0"/>
</linearGradient>
</defs>
</svg>
