<svg width="227" height="227" viewBox="0 0 227 227" fill="none" xmlns="http://www.w3.org/2000/svg">
<path d="M141.659 113.471C141.659 129.038 129.039 141.658 113.472 141.658C97.9049 141.658 85.2852 129.038 85.2852 113.471C85.2852 97.9034 97.9049 85.2837 113.472 85.2837C129.039 85.2837 141.659 97.9034 141.659 113.471ZM89.5398 113.471C89.5398 126.688 100.255 137.403 113.472 137.403C126.69 137.403 137.404 126.688 137.404 113.471C137.404 100.253 126.69 89.5384 113.472 89.5384C100.255 89.5384 89.5398 100.253 89.5398 113.471Z" fill="#EEEDE9"/>
<path d="M164.784 112.748C164.784 140.689 142.133 163.34 114.192 163.34C86.2504 163.34 63.5996 140.689 63.5996 112.748C63.5996 84.8071 86.2504 62.1562 114.192 62.1562C142.133 62.1562 164.784 84.8071 164.784 112.748ZM67.5387 112.748C67.5387 138.514 88.426 159.401 114.192 159.401C139.957 159.401 160.845 138.514 160.845 112.748C160.845 86.9826 139.957 66.0954 114.192 66.0954C88.426 66.0954 67.5387 86.9826 67.5387 112.748Z" fill="#EEEDE9"/>
<path d="M187.914 112.748C187.914 153.462 154.909 186.468 114.194 186.468C73.4801 186.468 40.4746 153.462 40.4746 112.748C40.4746 72.0338 73.4801 39.0283 114.194 39.0283C154.909 39.0283 187.914 72.0338 187.914 112.748ZM44.5349 112.748C44.5349 151.22 75.7225 182.408 114.194 182.408C152.666 182.408 183.854 151.22 183.854 112.748C183.854 74.2762 152.666 43.0886 114.194 43.0886C75.7225 43.0886 44.5349 74.2762 44.5349 112.748Z" fill="#EEEDE9"/>
<path d="M209.597 112.748C209.597 165.437 166.884 208.15 114.195 208.15C61.506 208.15 18.793 165.437 18.793 112.748C18.793 60.0587 61.506 17.3457 114.195 17.3457C166.884 17.3457 209.597 60.0587 209.597 112.748ZM22.9303 112.748C22.9303 163.152 63.7909 204.013 114.195 204.013C164.599 204.013 205.46 163.152 205.46 112.748C205.46 62.3437 164.599 21.483 114.195 21.483C63.7909 21.483 22.9303 62.3437 22.9303 112.748Z" fill="#EEEDE9"/>
<path d="M226.941 113.471C226.941 176.139 176.139 226.941 113.471 226.941C50.8026 226.941 0 176.139 0 113.471C0 50.8026 50.8026 0 113.471 0C176.139 0 226.941 50.8026 226.941 113.471ZM4.23544 113.471C4.23544 173.8 53.1417 222.706 113.471 222.706C173.8 222.706 222.706 173.8 222.706 113.471C222.706 53.1417 173.8 4.23544 113.471 4.23544C53.1417 4.23544 4.23544 53.1417 4.23544 113.471Z" fill="#EEEDE9"/>
</svg>
