<svg width="231" height="67" viewBox="0 0 231 67" fill="none" xmlns="http://www.w3.org/2000/svg">
<path d="M60.6116 38.64C57.8236 54.0531 43.1253 64.2979 27.782 61.5225C12.4386 58.7472 2.26055 44.0025 5.04855 28.5895C7.83656 13.1764 22.5349 2.93154 37.8782 5.70692C53.2215 8.48231 63.3996 23.227 60.6116 38.64ZM5.99532 28.7607C3.30233 43.6485 13.1336 57.8907 27.954 60.5715C42.7744 63.2523 56.9719 53.3566 59.6649 38.4688C62.3578 23.581 52.5266 9.3388 37.7062 6.65799C22.8857 3.97719 8.68831 13.8729 5.99532 28.7607Z" fill="#EDE9E1"/>
<path d="M93.9602 38.4125C91.1722 53.8255 76.4739 64.0704 61.1306 61.295C45.7873 58.5196 35.6092 43.775 38.3972 28.3619C41.1852 12.9489 55.8835 2.704 71.2268 5.47938C86.5702 8.25477 96.7483 22.9994 93.9602 38.4125ZM39.344 28.5332C36.651 43.421 46.4822 57.6631 61.3026 60.3439C76.1231 63.0247 90.3205 53.129 93.0135 38.2412C95.7065 23.3534 85.8752 9.11126 71.0548 6.43045C56.2344 3.74965 42.0369 13.6454 39.344 28.5332Z" fill="#EDE9E1"/>
<path d="M127.312 38.1859C124.524 53.599 109.825 63.8438 94.4822 61.0684C79.1388 58.2931 68.9607 43.5484 71.7488 28.1354C74.5368 12.7223 89.2351 2.47743 104.578 5.25282C119.922 8.02821 130.1 22.7729 127.312 38.1859ZM72.6955 28.3066C70.0025 43.1944 79.8338 57.4366 94.6542 60.1174C109.475 62.7982 123.672 52.9025 126.365 38.0147C129.058 23.1269 119.227 8.88469 104.406 6.20389C89.5859 3.52309 75.3885 13.4188 72.6955 28.3066Z" fill="#EDE9E1"/>
<path d="M160.661 37.9584C157.873 53.3714 143.175 63.6163 127.832 60.8409C112.488 58.0655 102.31 43.3209 105.098 27.9078C107.886 12.4948 122.585 2.2499 137.928 5.02528C153.271 7.80067 163.449 22.5453 160.661 37.9584ZM106.045 28.0791C103.352 42.9669 113.183 57.209 128.004 59.8898C142.824 62.5706 157.022 52.6749 159.715 37.7871C162.408 22.8993 152.576 8.65716 137.756 5.97635C122.936 3.29555 108.738 13.1913 106.045 28.0791Z" fill="#EDE9E1"/>
<path d="M192.612 38.6405C189.824 54.0536 175.125 64.2984 159.782 61.523C144.439 58.7476 134.261 44.003 137.049 28.5899C139.837 13.1769 154.535 2.93202 169.878 5.70741C185.222 8.4828 195.4 23.2274 192.612 38.6405ZM137.995 28.7612C135.302 43.649 145.134 57.8912 159.954 60.572C174.774 63.2528 188.972 53.357 191.665 38.4692C194.358 23.5815 184.527 9.33928 169.706 6.65848C154.886 3.97768 140.688 13.8734 137.995 28.7612Z" fill="#EDE9E1"/>
<path d="M225.96 38.413C223.172 53.826 208.474 64.0709 193.131 61.2955C177.787 58.5201 167.609 43.7755 170.397 28.3624C173.185 12.9493 187.884 2.70449 203.227 5.47987C218.57 8.25526 228.748 22.9999 225.96 38.413ZM171.344 28.5337C168.651 43.4215 178.482 57.6636 193.303 60.3444C208.123 63.0252 222.32 53.1295 225.013 38.2417C227.706 23.3539 217.875 9.11175 203.055 6.43094C188.234 3.75014 174.037 13.6459 171.344 28.5337Z" fill="#EDE9E1"/>
</svg>
