<svg width="438" height="130" viewBox="0 0 438 130" fill="none" xmlns="http://www.w3.org/2000/svg">
<path d="M86.7248 85.7337C86.7248 110.093 67.3108 129.839 43.3624 129.839C19.414 129.839 0 110.093 0 85.7337C0 61.3748 19.414 41.6279 43.3624 41.6279C67.3108 41.6279 86.7248 61.3748 86.7248 85.7337ZM2.22482 85.7337C2.22482 108.843 20.6427 127.576 43.3624 127.576C66.0821 127.576 84.5 108.843 84.5 85.7337C84.5 62.6245 66.0821 43.8909 43.3624 43.8909C20.6427 43.8909 2.22482 62.6245 2.22482 85.7337Z" fill="#EDE9E1"/>
<path d="M203.679 85.7337C203.679 110.093 184.265 129.839 160.317 129.839C136.368 129.839 116.954 110.093 116.954 85.7337C116.954 61.3748 136.368 41.6279 160.317 41.6279C184.265 41.6279 203.679 61.3748 203.679 85.7337ZM119.179 85.7337C119.179 108.843 137.597 127.576 160.317 127.576C183.036 127.576 201.454 108.843 201.454 85.7337C201.454 62.6245 183.036 43.8909 160.317 43.8909C137.597 43.8909 119.179 62.6245 119.179 85.7337Z" fill="#EDE9E1"/>
<path d="M320.635 85.7337C320.635 110.093 301.221 129.839 277.273 129.839C253.324 129.839 233.91 110.093 233.91 85.7337C233.91 61.3748 253.324 41.6279 277.273 41.6279C301.221 41.6279 320.635 61.3748 320.635 85.7337ZM236.135 85.7337C236.135 108.843 254.553 127.576 277.273 127.576C299.992 127.576 318.41 108.843 318.41 85.7337C318.41 62.6245 299.992 43.8909 277.273 43.8909C254.553 43.8909 236.135 62.6245 236.135 85.7337Z" fill="#EDE9E1"/>
<path d="M437.588 85.7337C437.588 110.093 418.174 129.839 394.226 129.839C370.277 129.839 350.863 110.093 350.863 85.7337C350.863 61.3748 370.277 41.6279 394.226 41.6279C418.174 41.6279 437.588 61.3748 437.588 85.7337ZM353.088 85.7337C353.088 108.843 371.506 127.576 394.226 127.576C416.945 127.576 435.363 108.843 435.363 85.7337C435.363 62.6245 416.945 43.8909 394.226 43.8909C371.506 43.8909 353.088 62.6245 353.088 85.7337Z" fill="#EDE9E1"/>
<path d="M86.7248 44.1058C86.7248 68.4647 67.3108 88.2115 43.3624 88.2115C19.414 88.2115 0 68.4647 0 44.1058C0 19.7468 19.414 0 43.3624 0C67.3108 0 86.7248 19.7468 86.7248 44.1058ZM2.22482 44.1058C2.22482 67.2149 20.6427 85.9486 43.3624 85.9486C66.0821 85.9486 84.5 67.2149 84.5 44.1058C84.5 20.9966 66.0821 2.26295 43.3624 2.26295C20.6427 2.26295 2.22482 20.9966 2.22482 44.1058Z" fill="#EDE9E1"/>
<path d="M203.679 44.1058C203.679 68.4647 184.265 88.2115 160.317 88.2115C136.368 88.2115 116.954 68.4647 116.954 44.1058C116.954 19.7468 136.368 0 160.317 0C184.265 0 203.679 19.7468 203.679 44.1058ZM119.179 44.1058C119.179 67.2149 137.597 85.9486 160.317 85.9486C183.036 85.9486 201.454 67.2149 201.454 44.1058C201.454 20.9966 183.036 2.26295 160.317 2.26295C137.597 2.26295 119.179 20.9966 119.179 44.1058Z" fill="#EDE9E1"/>
<path d="M320.635 44.1058C320.635 68.4647 301.221 88.2115 277.273 88.2115C253.324 88.2115 233.91 68.4647 233.91 44.1058C233.91 19.7468 253.324 0 277.273 0C301.221 0 320.635 19.7468 320.635 44.1058ZM236.135 44.1058C236.135 67.2149 254.553 85.9486 277.273 85.9486C299.992 85.9486 318.41 67.2149 318.41 44.1058C318.41 20.9966 299.992 2.26295 277.273 2.26295C254.553 2.26295 236.135 20.9966 236.135 44.1058Z" fill="#EDE9E1"/>
<path d="M437.588 44.1058C437.588 68.4647 418.174 88.2115 394.226 88.2115C370.277 88.2115 350.863 68.4647 350.863 44.1058C350.863 19.7468 370.277 0 394.226 0C418.174 0 437.588 19.7468 437.588 44.1058ZM353.088 44.1058C353.088 67.2149 371.506 85.9486 394.226 85.9486C416.945 85.9486 435.363 67.2149 435.363 44.1058C435.363 20.9966 416.945 2.26295 394.226 2.26295C371.506 2.26295 353.088 20.9966 353.088 44.1058Z" fill="#EDE9E1"/>
</svg>
