<svg width="76" height="99" viewBox="0 0 76 99" fill="none" xmlns="http://www.w3.org/2000/svg">
<path d="M50.2356 1.58931C51.2793 1.24922 52.9009 1.53308 53.6269 2.13815C53.7225 2.21787 53.8378 2.35345 53.9318 2.3442C54.9224 2.24445 55.3615 3.44688 56.3549 3.35483C56.4578 3.3452 56.6806 3.58014 56.6837 3.70531C56.7003 4.44287 57.0697 4.88926 57.7196 5.19237C57.8891 5.27133 57.9993 5.52091 58.0898 5.71387C58.6801 6.96983 59.2074 8.25777 59.8515 9.48562C60.7481 11.1945 60.7671 12.8907 60.0124 14.632C59.754 15.2286 59.5064 15.8298 59.2229 16.5034C60.0619 16.8574 60.1091 17.5676 60.0271 18.3336C59.9671 18.8944 59.954 19.4625 59.86 20.0175C59.7393 20.7304 59.559 21.4329 59.371 22.2926C59.8221 22.9781 60.4526 23.7199 61.3384 24.2626C62.3109 24.858 62.9136 25.7493 63.044 26.9124C63.0536 26.9987 63.054 27.0904 63.085 27.1693C63.6486 28.6129 63.4815 29.9805 62.603 31.201C62.9894 31.8539 63.5716 31.9232 64.1298 31.9775C65.3828 32.0992 66.4949 32.5418 67.4802 33.3147C67.6171 33.4222 67.749 33.5528 67.9065 33.6152C70.4321 34.6192 71.4564 36.798 72.3365 39.1239C72.904 40.6241 73.555 42.0942 74.2157 43.557C74.6343 44.4837 75.0312 45.4342 74.8865 46.4418C74.4737 49.3188 75.2122 52.0564 75.7889 54.8149C76.329 57.3965 75.7766 59.8222 74.7685 62.1777C74.5689 62.6446 74.2262 63.0794 73.8625 63.443C72.5991 64.7043 71.3079 65.9391 70.0066 67.1623C68.6948 68.3952 67.2013 69.2225 65.3182 69.1335C65.1116 69.1239 64.8996 69.2221 64.5232 69.3088C64.4799 70.1453 64.3333 71.0077 64.4099 71.8496C64.6563 74.5479 64.4478 77.2301 64.2749 79.9181C64.102 82.6079 63.9909 85.3001 64.3882 87.9842C64.4389 88.327 64.4331 88.6779 64.4551 89.0249C64.5279 90.1738 64.3275 91.2002 63.1612 91.7629C63.2471 92.6765 63.3724 93.533 63.3995 94.3931C63.4563 96.201 63.0676 96.6693 61.2657 96.781C59.002 96.9216 56.7305 96.9378 54.4656 97.0595C52.1117 97.1858 49.7613 97.3695 47.4098 97.5359C45.7611 97.6526 45.4539 97.5544 44.4381 96.4686C43.3821 98.2376 41.6483 98.5053 39.8019 98.5693C36.0957 98.6987 32.3922 98.9309 28.6851 98.9887C26.4349 99.0237 26.1301 99.1289 26.1015 96.5638C26.0787 94.5283 26.0052 92.4935 25.9541 90.4634C25.7386 90.3614 25.5874 90.2758 25.4265 90.2154C23.7704 89.5934 22.9689 88.4356 22.9252 86.6424C22.8614 84.0403 22.6773 81.4409 22.538 78.8408C22.5241 78.5828 22.4757 78.3255 22.4281 78.0709C21.9887 75.7196 22.1662 73.3909 22.7608 71.0951C23.2571 69.1801 23.447 67.3037 23.0888 65.3067C22.7384 63.3536 22.6417 61.3308 22.666 59.3411C22.7275 54.3565 21.9144 49.469 21.2235 44.5645C21.0402 43.2608 20.4437 42.1809 19.3722 41.3797C18.5006 40.7285 17.6361 40.0675 16.763 39.4182C15.7603 38.6718 14.6257 38.255 13.3875 38.1033C13.2579 38.0875 13.1213 38.0767 13.003 38.0278C10.3168 36.9174 7.42986 36.2885 5.00365 34.5464C4.06055 33.8694 2.93023 33.4457 1.87108 32.9358C1.13997 32.5837 0.492414 32.1516 0.226273 31.352C0.092429 30.9503 -0.0271034 30.5062 0.00539054 30.0937C0.124535 28.5797 0.324528 27.0719 0.466495 25.5594C0.611171 24.0165 1.17401 22.6234 1.84207 21.2403C2.69078 19.4829 3.56425 17.7205 4.20446 15.8833C5.18972 13.0556 6.90803 10.8567 9.34546 9.16903C10.6 8.30013 11.7844 7.39658 12.6985 6.11442C13.5608 4.90505 14.9042 4.46329 16.4427 4.71055C16.9935 3.85591 17.515 3.00858 18.0747 2.18706C19.2112 0.519367 20.7806 -0.197007 22.8018 0.108031C23.0064 0.138843 23.2455 0.168113 23.4262 0.0945493C23.9573 -0.122674 24.3507 0.0544966 24.722 0.421158C24.8396 0.537472 24.9979 0.68421 25.1425 0.690372C25.8384 0.720029 26.0829 1.25577 26.5251 1.6517C27.3707 2.4089 27.5548 3.29475 27.6608 4.36161C28.3672 4.54802 29.1192 4.71517 29.2101 5.64608C29.2747 6.30776 29.1637 6.80845 28.4875 7.15278C28.002 7.40004 27.5289 7.76786 27.1943 8.19422C26.1154 9.56765 24.8044 10.3291 23.0041 10.0568C22.883 10.0383 22.7515 10.0903 22.4722 10.1327C22.3229 11.8173 21.1361 12.9123 20.0387 14.0989C19.5907 14.5831 19.4166 15.3195 19.1238 15.9438C18.7567 16.7264 18.4766 17.5633 18.0128 18.2839C17.2488 19.4714 16.6106 20.6719 16.4578 22.1065C16.4001 22.6473 16.1398 23.1665 15.9212 23.8547C16.4202 23.9298 16.874 24.0727 17.32 24.0515C18.8016 23.9826 20.2924 23.9364 21.7566 23.7234C22.9128 23.5551 24.0331 23.1476 25.1727 22.8572C27.2798 22.3203 29.3907 22.4124 31.528 22.7201C33.5639 23.0132 35.3681 23.8097 36.9962 24.9559C37.4736 24.6239 37.874 24.3731 38.2399 24.08C38.4325 23.9256 38.7064 23.6945 38.7029 23.5023C38.6778 22.2071 39.4383 21.8543 40.5911 21.9394C40.3443 20.7423 40.1056 19.6235 39.8855 18.5012C39.7346 17.732 39.9292 17.1169 40.6077 16.9082C40.6085 14.6485 40.5551 12.484 40.624 10.3237C40.7102 7.60764 41.9442 5.50819 44.2934 4.08623C44.7781 3.79274 45.2737 3.51659 45.7557 3.21887C46.7916 2.57876 47.8275 1.93864 48.8523 1.28081C49.5459 0.835575 49.5373 0.822093 50.2356 1.58931Z" fill="#1F519A"/>
</svg>
