<svg width="117" height="101" viewBox="0 0 117 101" fill="none" xmlns="http://www.w3.org/2000/svg">
<path d="M105.499 1.16082C105.798 0.884276 106.062 0.632532 106.333 0.387339C106.882 -0.108663 107.22 -0.143291 107.767 0.370492C108.088 0.672304 108.301 1.08876 108.618 1.53048C108.979 1.35407 109.489 1.07659 109.877 1.6105C110.178 2.02414 110.398 2.49628 110.64 2.91788C110.959 2.94456 111.399 2.85238 111.617 3.03159C111.887 3.25339 112.089 3.69277 112.11 4.05073C112.14 4.55469 112.029 5.08626 111.88 5.57618C111.757 5.97859 111.808 6.26075 112.057 6.5897C112.501 7.17602 112.925 7.78291 113.302 8.41414C113.944 9.4885 113.945 10.6887 113.936 11.8969C113.924 13.5524 113.946 15.2089 114.001 16.8635C114.04 18.0282 114.178 19.1896 114.233 20.3542C114.264 21.0276 114.285 21.715 114.19 22.3789C113.88 24.5557 114.285 26.6544 114.738 28.7638C115.071 30.3168 115.558 31.7815 116.571 33.0346C116.724 33.2241 116.871 33.4374 116.948 33.6644C117.008 33.8427 117.03 34.1061 116.939 34.2507C115.785 36.0967 114.616 37.9333 113.433 39.7605C112.883 40.6089 112.307 41.4409 111.718 42.263C111.433 42.6607 111.101 43.0271 110.772 43.3902C110.488 43.7033 110.212 44.1155 109.699 43.904C109.22 43.707 109.038 43.2588 109.023 42.7824C109.007 42.2639 109.031 41.7352 109.115 41.2242C109.356 39.7713 109.663 38.3291 109.888 36.8739C109.986 36.2431 109.983 35.5904 109.961 34.9493C109.91 33.4772 109.811 32.007 109.747 30.5354C109.694 29.2944 109.444 28.0989 108.954 26.959C108.445 25.7747 107.919 24.5979 107.396 23.4196C107.362 23.3433 107.291 23.2839 107.185 23.152C106.454 24.4453 106.009 25.8028 105.534 27.1429C104.948 28.8008 104.319 30.4362 103.132 31.7698C102.296 32.7098 101.37 33.5699 100.526 34.5039C99.4569 35.6858 98.4024 36.8833 97.3938 38.1162C96.3449 39.3988 95.3803 40.7497 94.3328 42.0332C93.9584 42.4918 93.8498 43.0009 93.7215 43.5376C93.487 44.5193 93.2661 45.5085 92.9488 46.4645C92.5425 47.6895 91.7791 48.6975 90.7396 49.4611C89.2994 50.5191 88.2828 51.9435 87.2775 53.3758C85.8799 55.3663 84.4243 57.298 82.5554 58.8875C81.975 59.3812 81.4592 59.9614 80.9673 60.5463C80.3135 61.3245 80.0078 62.2463 80.006 63.2701C80.0036 64.4348 80.0013 65.5994 79.9648 66.7632C79.9044 68.6966 79.8581 70.6324 79.7279 72.5617C79.6114 74.2884 79.7949 75.9944 79.925 77.7056C80.0153 78.8951 80.1857 80.078 80.2858 81.267C80.3345 81.8444 80.2802 82.4298 80.3144 83.0091C80.3752 84.0493 83.5243 97.5457 83.5893 98.5854C83.6642 99.7833 83.4058 100.154 82.2287 100.352C81.323 100.505 80.401 100.603 79.4836 100.632C77.5206 100.693 75.5506 100.79 73.5919 100.698C70.7415 100.563 67.9019 100.199 65.0515 100.073C62.5704 99.963 60.0762 99.949 57.5969 100.078C55.6424 100.18 53.7084 100.624 51.7548 100.802C50.0759 100.955 48.3821 100.979 46.6943 100.999C45.6829 101.012 45.5265 100.818 45.5794 99.7814C45.6815 97.7764 42.4477 83.354 42.0714 81.3756C41.7934 79.9119 41.7981 78.3841 41.7831 76.8835C41.7695 75.555 41.7213 74.2472 41.3464 72.9632C41.0581 71.9759 41.0296 70.9792 41.2051 69.9568C41.5112 68.1735 41.3132 66.4113 40.8583 64.6697C40.3621 62.7718 39.8529 60.8818 39.0722 59.0723C38.6734 58.1486 38.1497 57.3363 37.3667 56.7098C36.0631 55.6663 34.9754 54.4221 33.8966 53.1577C33.3447 52.5111 32.6549 51.9772 32.0029 51.4217C31.6537 51.1241 31.21 50.9313 30.8852 50.6136C30.5192 50.2557 30.0446 49.8453 29.9631 49.3951C29.8157 48.5805 29.314 48.04 28.9021 47.406C28.5038 46.7925 28.1059 46.1529 27.8611 45.4697C26.9021 42.7974 25.0852 40.7947 22.9565 39.0282C20.9243 37.3414 18.8719 35.6788 16.827 34.0069C16.0543 33.3752 15.4093 32.627 15.0138 31.7141C14.1891 29.8091 12.9923 28.1335 11.8348 26.4354C10.6044 24.6301 9.42535 22.8057 8.70737 20.7211C8.57117 20.3252 8.3437 19.9612 8.105 19.4731C7.90842 19.737 7.74976 19.8811 7.67581 20.0608C6.95689 21.8062 6.48323 23.603 6.49025 25.5122C6.49633 27.1368 6.55437 28.7703 6.40553 30.3833C6.25061 32.0585 5.90987 33.7205 5.58365 35.3751C5.37677 36.4247 4.81699 36.771 3.76015 36.4981C2.90363 36.2768 2.06817 35.946 1.25517 35.5918C0.664503 35.3344 0.555913 34.9114 0.695858 34.1019C0.873715 33.0748 1.02396 32.043 1.22147 31.0201C1.34878 30.3618 1.23037 29.8293 0.714584 29.3618C-0.0277342 28.6894 -0.182661 27.8663 0.207688 26.9351C1.1976 24.5712 1.59872 22.043 2.21794 19.5779C2.49315 18.483 2.57833 17.3389 2.73185 16.2145C2.89052 15.0545 3.12829 13.9221 3.60991 12.8426C4.03349 11.8936 4.58672 11.0738 5.49613 10.5268C5.70113 10.4033 5.87243 10.2241 6.1439 10.0009C5.86541 9.61297 5.61454 9.24378 5.34401 8.88956C4.54038 7.8386 4.93681 6.24016 6.11628 5.66321C6.32503 5.5612 6.44251 5.26874 6.59743 5.06098C6.88575 4.67401 7.1207 4.0147 7.46659 3.9506C8.27116 3.80226 8.70644 3.28286 9.2241 2.78967C9.54658 2.48271 9.95799 2.3924 10.4199 2.42984C10.6633 2.44949 10.9797 2.37696 11.1599 2.22442C11.95 1.55528 12.7503 1.73543 13.568 2.11679C13.8732 2.25904 14.1835 2.39989 14.4638 2.58379C15.1093 3.00726 15.8254 3.12331 16.5733 3.135C18.3547 3.16261 20.1365 3.17524 21.9175 3.2197C25.0782 3.29831 28.2398 3.3699 31.3986 3.4925C35.2375 3.6413 39.0689 3.55614 42.9055 3.37552C46.3994 3.21081 49.9004 3.1584 53.3986 3.1453C56.5916 3.1336 59.7855 3.23374 62.9785 3.29784C66.9695 3.37832 70.961 3.4546 74.9511 3.56737C76.9463 3.62398 78.9393 3.83502 80.9332 3.83455C82.7389 3.83408 84.5521 3.71383 86.348 3.51636C88.8188 3.24496 91.2704 2.79903 93.7412 2.52904C95.1706 2.37322 96.6229 2.35591 98.0622 2.38772C99.5754 2.42095 100.929 2.13691 102.025 1.01904C102.152 0.889423 102.327 0.80847 102.468 0.690553C103.362 -0.0600013 104.515 0.122492 105.186 0.907205C105.244 0.974118 105.326 1.02138 105.499 1.16082ZM67.5911 43.8142C68.8698 44.3598 69.6767 45.1389 69.7127 46.531C69.7244 46.9778 70.4223 47.4706 70.8431 47.4823C71.4253 47.4982 71.5189 47.0424 71.6369 46.6302C71.9196 45.6405 72.6731 45.203 73.5947 45.0406C74.8051 44.8272 75.7664 44.2554 76.5387 43.3088C77.0723 42.6551 77.7308 42.1465 78.5751 41.9589C80.6453 41.4984 82.1356 40.2855 83.2818 38.5318C84.2886 36.9918 85.608 35.7635 87.3145 34.9924C87.8171 34.7649 88.2917 34.4758 88.7832 34.2231C89.7525 33.7252 90.4115 32.9489 90.8819 31.978C91.1889 31.3444 91.4721 30.6743 91.9055 30.132C93.3031 28.3834 94.7442 26.668 96.2087 24.975C97.3531 23.6517 98.6875 22.4739 99.6989 21.0608C100.763 19.5737 101.547 17.885 102.445 16.2805C102.539 16.1125 102.582 15.9159 102.67 15.6708C100.97 15.7414 99.4143 16.0512 97.9484 16.7259C96.8747 17.2205 95.7575 17.535 94.586 17.6276C93.5161 17.7118 92.4414 17.754 91.3682 17.7862C87.7156 17.8967 84.063 18.0623 80.4094 18.0787C76.8794 18.0946 73.349 17.9575 69.819 17.877C68.5908 17.8494 67.3631 17.7886 66.1355 17.7474C63.9899 17.6753 61.8449 17.5733 59.6989 17.5439C56.505 17.5003 53.3101 17.4919 50.1152 17.5003C45.6 17.5116 41.0853 17.5761 36.57 17.5729C32.3258 17.5691 28.1022 17.8134 23.9006 18.4236C21.6788 18.746 19.4462 18.92 17.1972 18.7778C16.7535 18.7497 16.3065 18.7651 15.7196 18.7586C16.4133 19.8339 17.1907 20.6027 18.0397 21.2934C19.5641 22.5334 21.112 23.7448 22.6528 24.9642C23.9558 25.9955 25.2523 27.0432 26.2113 28.4152C26.9663 29.4956 27.6589 30.6238 28.3161 31.767C28.8379 32.6743 29.5199 33.2741 30.5697 33.4875C31.4187 33.6602 32.1948 34.0186 32.8276 34.6587C32.9993 34.8323 33.3003 34.9367 33.553 34.961C34.5153 35.0532 35.3218 35.4378 35.9859 36.1313C36.2827 36.4411 36.5775 36.7541 36.8649 37.0728C37.5146 37.7934 38.2798 38.36 39.2019 38.6595C40.6902 39.1433 42.0279 39.8396 43.0506 41.0637C43.5444 41.6547 44.1716 41.9645 44.9649 42.0272C45.4339 42.0641 45.9595 42.2045 46.3306 42.475C46.9793 42.9476 47.6749 43.3032 48.3633 43.6963C49.2465 44.2007 50.1073 44.5919 51.108 44.8263C52.0295 45.042 52.8725 45.5914 53.7646 46.0003C54.4138 44.7936 55.252 43.5835 54.6085 42.0431C54.5411 41.8821 54.5345 41.6954 54.5022 41.5302C54.3445 41.4671 54.234 41.4156 54.1189 41.3777C52.8791 40.9692 52.0965 40.1405 51.8096 38.8607C51.6823 38.2922 51.5685 37.7204 51.445 37.1509C51.2783 36.3812 51.2868 35.6727 52.0787 35.3082C52.0277 34.0144 51.9856 32.7889 51.9294 31.5639C51.8816 30.5176 52.1508 29.5607 52.7017 28.6763C53.7023 27.0704 55.0077 25.7298 56.4226 24.4977C56.8298 24.143 57.3554 23.9161 57.8455 23.6667C58.6922 23.2357 59.566 22.8586 60.4038 22.4122C61.2818 21.9442 62.1463 21.8769 63.0492 22.3097C63.63 22.5881 64.2123 22.8665 64.8076 23.1122C65.6384 23.4552 66.23 24.0382 66.7056 24.7892C67.0982 25.4102 67.5298 26.0133 68.0048 26.573C68.5534 27.2192 68.9278 27.9407 69.1946 28.7348C69.6945 30.2219 69.7417 31.7421 69.5672 33.2849C69.4956 33.9185 69.459 34.5563 69.4071 35.1837C70.5444 35.3475 70.7949 35.5375 70.7017 36.617C70.5912 37.893 70.3366 39.1611 70.0652 40.4156C69.9585 40.9084 69.6996 41.41 69.0472 41.4643C68.9461 41.4727 68.8183 41.5789 68.7645 41.6744C68.3779 42.3594 68.0062 43.0529 67.5911 43.8142Z" fill="#1F519A"/>
</svg>
