<svg width="204" height="219" viewBox="0 0 204 219" fill="none" xmlns="http://www.w3.org/2000/svg">
<path d="M86.7248 85.7337C86.7248 110.093 67.3108 129.84 43.3624 129.84C19.414 129.84 0 110.093 0 85.7337C0 61.3748 19.414 41.628 43.3624 41.628C67.3108 41.628 86.7248 61.3748 86.7248 85.7337ZM2.22482 85.7337C2.22482 108.843 20.6427 127.577 43.3624 127.577C66.0821 127.577 84.5 108.843 84.5 85.7337C84.5 62.6246 66.0821 43.8909 43.3624 43.8909C20.6427 43.8909 2.22482 62.6246 2.22482 85.7337Z" fill="#EDE9E1"/>
<path d="M86.7248 132.106C86.7248 156.465 67.3108 176.212 43.3624 176.212C19.414 176.212 0 156.465 0 132.106C0 107.747 19.414 88 43.3624 88C67.3108 88 86.7248 107.747 86.7248 132.106ZM2.22482 132.106C2.22482 155.215 20.6427 173.949 43.3624 173.949C66.0821 173.949 84.5 155.215 84.5 132.106C84.5 108.997 66.0821 90.263 43.3624 90.263C20.6427 90.263 2.22482 108.997 2.22482 132.106Z" fill="#EDE9E1"/>
<path d="M86.7248 174.106C86.7248 198.465 67.3108 218.212 43.3624 218.212C19.414 218.212 0 198.465 0 174.106C0 149.747 19.414 130 43.3624 130C67.3108 130 86.7248 149.747 86.7248 174.106ZM2.22482 174.106C2.22482 197.215 20.6427 215.949 43.3624 215.949C66.0821 215.949 84.5 197.215 84.5 174.106C84.5 150.997 66.0821 132.263 43.3624 132.263C20.6427 132.263 2.22482 150.997 2.22482 174.106Z" fill="#EDE9E1"/>
<path d="M203.679 85.7337C203.679 110.093 184.265 129.84 160.317 129.84C136.368 129.84 116.954 110.093 116.954 85.7337C116.954 61.3748 136.368 41.628 160.317 41.628C184.265 41.628 203.679 61.3748 203.679 85.7337ZM119.179 85.7337C119.179 108.843 137.597 127.577 160.317 127.577C183.036 127.577 201.454 108.843 201.454 85.7337C201.454 62.6246 183.036 43.8909 160.317 43.8909C137.597 43.8909 119.179 62.6246 119.179 85.7337Z" fill="#EDE9E1"/>
<path d="M203.725 135.106C203.725 159.465 184.311 179.212 160.362 179.212C136.414 179.212 117 159.465 117 135.106C117 110.747 136.414 91 160.362 91C184.311 91 203.725 110.747 203.725 135.106ZM119.225 135.106C119.225 158.215 137.643 176.949 160.362 176.949C183.082 176.949 201.5 158.215 201.5 135.106C201.5 111.997 183.082 93.263 160.362 93.263C137.643 93.263 119.225 111.997 119.225 135.106Z" fill="#EDE9E1"/>
<path d="M203.725 174.106C203.725 198.465 184.311 218.212 160.362 218.212C136.414 218.212 117 198.465 117 174.106C117 149.747 136.414 130 160.362 130C184.311 130 203.725 149.747 203.725 174.106ZM119.225 174.106C119.225 197.215 137.643 215.949 160.362 215.949C183.082 215.949 201.5 197.215 201.5 174.106C201.5 150.997 183.082 132.263 160.362 132.263C137.643 132.263 119.225 150.997 119.225 174.106Z" fill="#EDE9E1"/>
<path d="M86.7248 44.1058C86.7248 68.4647 67.3108 88.2115 43.3624 88.2115C19.414 88.2115 0 68.4647 0 44.1058C0 19.7468 19.414 0 43.3624 0C67.3108 0 86.7248 19.7468 86.7248 44.1058ZM2.22482 44.1058C2.22482 67.2149 20.6427 85.9486 43.3624 85.9486C66.0821 85.9486 84.5 67.2149 84.5 44.1058C84.5 20.9966 66.0821 2.26295 43.3624 2.26295C20.6427 2.26295 2.22482 20.9966 2.22482 44.1058Z" fill="#EDE9E1"/>
<path d="M203.679 44.1058C203.679 68.4647 184.265 88.2115 160.317 88.2115C136.368 88.2115 116.954 68.4647 116.954 44.1058C116.954 19.7468 136.368 0 160.317 0C184.265 0 203.679 19.7468 203.679 44.1058ZM119.179 44.1058C119.179 67.2149 137.597 85.9486 160.317 85.9486C183.036 85.9486 201.454 67.2149 201.454 44.1058C201.454 20.9966 183.036 2.26295 160.317 2.26295C137.597 2.26295 119.179 20.9966 119.179 44.1058Z" fill="#EDE9E1"/>
</svg>
