<svg width="150" height="189" viewBox="0 0 150 189" fill="none" xmlns="http://www.w3.org/2000/svg">
<circle cx="9.37995" cy="19.6964" r="9.31159" fill="#EEEDE9"/>
<circle cx="48.6964" cy="17.627" r="9.31159" fill="#EEEDE9"/>
<circle cx="85.9425" cy="13.4888" r="9.31159" fill="#EEEDE9"/>
<circle cx="125.257" cy="9.35016" r="9.31159" fill="#EEEDE9"/>
<circle cx="11.4483" cy="50.7349" r="9.31159" fill="#EEEDE9"/>
<circle cx="50.7647" cy="48.6656" r="9.31159" fill="#EEEDE9"/>
<circle cx="90.0811" cy="46.5967" r="9.31159" fill="#EEEDE9"/>
<circle cx="127.327" cy="42.4581" r="9.31159" fill="#EEEDE9"/>
<circle cx="15.587" cy="83.8428" r="9.31159" fill="#EEEDE9"/>
<circle cx="52.8331" cy="79.7042" r="9.31159" fill="#EEEDE9"/>
<circle cx="92.1495" cy="77.6353" r="9.31159" fill="#EEEDE9"/>
<circle cx="131.466" cy="75.566" r="9.31159" fill="#EEEDE9"/>
<circle cx="17.6573" cy="114.881" r="9.31159" fill="#EEEDE9"/>
<circle cx="56.9717" cy="112.812" r="9.31159" fill="#EEEDE9"/>
<circle cx="94.2198" cy="108.674" r="9.31159" fill="#EEEDE9"/>
<circle cx="133.534" cy="106.605" r="9.31159" fill="#EEEDE9"/>
<circle cx="19.7257" cy="147.989" r="9.31159" fill="#EEEDE9"/>
<circle cx="59.0421" cy="143.851" r="9.31159" fill="#EEEDE9"/>
<circle cx="98.3565" cy="141.782" r="9.31159" fill="#EEEDE9"/>
<circle cx="135.605" cy="137.643" r="9.31159" fill="#EEEDE9"/>
<circle cx="21.796" cy="179.028" r="9.31159" fill="#EEEDE9"/>
<circle cx="61.1104" cy="176.959" r="9.31159" fill="#EEEDE9"/>
<circle cx="100.427" cy="174.89" r="9.31159" fill="#EEEDE9"/>
<circle cx="139.741" cy="170.751" r="9.31159" fill="#EEEDE9"/>
</svg>
